<?xml version="1.0" encoding="utf-8"?>
<!-- Generator: Adobe Illustrator 16.0.0, SVG Export Plug-In . SVG Version: 6.00 Build 0)  -->
<!DOCTYPE svg PUBLIC "-//W3C//DTD SVG 1.0//EN" "http://www.w3.org/TR/2001/REC-SVG-20010904/DTD/svg10.dtd">
<svg version="1.0" id="Layer_1" xmlns="http://www.w3.org/2000/svg" xmlns:xlink="http://www.w3.org/1999/xlink" x="0px" y="0px"
	 width="100px" height="100px" viewBox="0 0 100 100" enable-background="new 0 0 100 100" xml:space="preserve">
<polygon fill="#424242" points="56.668,90 63.334,90 63.334,30 83.334,30 83.334,90 90,90 90,23.333 76.668,23.333 76.668,10 
	23.334,10 23.334,50 10,50 10,90 16.668,90 16.668,83.333 23.334,83.333 23.334,76.667 16.668,76.667 16.668,70 23.334,70 
	23.334,63.333 16.668,63.333 16.668,56.667 30,56.667 30,90 36.668,90 36.668,50 30,50 30,43.333 36.668,43.333 36.668,36.667 
	30,36.667 30,30 36.668,30 36.668,23.333 30,23.333 30,16.667 70,16.667 70,23.333 56.668,23.333 "/>
<rect x="63.334" y="30" fill="#E3F2FD" width="20" height="60"/>
<polygon fill="#E3F2FD" points="36.668,90 36.668,50 30,50 30,43.333 36.668,43.333 36.668,36.667 30,36.667 30,30 36.668,30 
	36.668,23.333 30,23.333 30,16.667 70,16.667 70,23.333 56.668,23.333 56.668,90 "/>
<polygon fill="#E3F2FD" points="16.668,90 16.668,83.333 23.334,83.333 23.334,76.667 16.668,76.667 16.668,70 23.334,70 
	23.334,63.333 16.668,63.333 16.668,56.667 30,56.667 30,90 "/>
<rect x="43.334" y="23.333" fill="#424242" width="6.666" height="6.667"/>
<rect x="43.334" y="36.667" fill="#424242" width="6.666" height="6.667"/>
<rect x="70" y="36.667" fill="#424242" width="6.668" height="6.667"/>
<rect x="70" y="50" fill="#424242" width="6.668" height="6.667"/>
<rect x="70" y="63.333" fill="#424242" width="6.668" height="6.667"/>
<rect x="70" y="76.667" fill="#424242" width="6.668" height="6.666"/>
<rect x="43.334" y="50" fill="#424242" width="6.666" height="6.667"/>
<rect x="43.334" y="63.333" fill="#424242" width="6.666" height="6.667"/>
<rect x="43.334" y="76.667" fill="#424242" width="6.666" height="6.666"/>
</svg>
