<svg xmlns="http://www.w3.org/2000/svg" viewBox="0 0 898 652"><path fill="#E3E1DA" d="M401.8 266s-15.6-8-19.8-16.1l17.6-23.9 30.4 10.8-20.9 28c-1.7 2.4-5 2.9-7.3 1.2z"/><path fill="#9D958C" d="M407.9 242.7v-.1c0-1.4-1.1-2.6-2.6-2.6-1.4 0-2.6 1.2-2.6 2.6v.1c-1.1.3-1.8 1.2-1.8 2.4 0 1.3 1.1 2.5 2.4 2.5.4 0 .8-.1 1.2-.3v3h1.2v-4.9h.7v2c.2.1.5.1.9.1 1.3 0 2.4-1.1 2.4-2.5 0-1-.7-2-1.8-2.3zm-1.1 12.3v6.5h-1v-5.7h-3.4v5.7h-.9V255h5.3zm1 5.1c0-.8.5-1.5 2-1.5.2 0 .6 0 .9.1v-.2c0-.5-.4-.9-1-.9-.5 0-1 .2-1.2.4l-.6-.6c.5-.4 1.1-.6 1.8-.6 1.1 0 1.9.6 1.9 1.7v3h-.9v-.5c-.3.4-.8.6-1.4.6-.8 0-1.5-.6-1.5-1.5zm2.9-.4v-.2c-.3 0-.6-.1-.8-.1-.8 0-1.2.3-1.2.8 0 .4.3.8.9.8.6-.2 1.1-.6 1.1-1.3zm2.1 3.5V257h.9v.7c.3-.5.8-.8 1.5-.8 1.2 0 2.1 1 2.1 2.4s-.9 2.4-2.1 2.4c-.7 0-1.2-.4-1.5-.8v2.4h-.9zm2.2-2.4c.8 0 1.4-.7 1.4-1.6 0-.9-.5-1.6-1.4-1.6-.8 0-1.4.7-1.4 1.6 0 .9.6 1.6 1.4 1.6zm4.1-3.8v1.8h.6l1.4-1.8h1l-1.7 2 2 2.5h-1.1l-1.5-2h-.7v2h-.9V257h.9zm6.7 0v3.1l2.1-3.1h.8v4.5h-.9v-3.1l-2.1 3.1h-.8V257h.9zm3.8 2.2c0-1.4 1-2.4 2.3-2.4.7 0 1.3.3 1.6.6l-.5.5c-.2-.2-.5-.4-1.1-.4-.8 0-1.4.7-1.4 1.6s.5 1.6 1.4 1.6c.5 0 .8-.2 1.1-.5l.5.5c-.4.4-.9.6-1.6.6-1.3.3-2.3-.7-2.3-2.1zm5.5-2.2v1.8h.5l1.4-1.8h1l-1.7 2 2 2.5h-1.1l-1.5-2h-.6v2h-.9V257h.9z"/><path fill="#9D958C" d="M438.1 262.9l.6-.6c.2.1.3.2.5.2.4 0 .7-.2.9-.8l-1.8-4.7h1l1.3 3.5 1.1-3.5h1l-1.7 4.9c-.3.8-.8 1.4-1.8 1.4-.4 0-.7-.1-1.1-.4zm4.9-3.7c0-1.4 1-2.4 2.3-2.4.7 0 1.3.3 1.6.6l-.5.5c-.2-.2-.5-.4-1.1-.4-.8 0-1.4.7-1.4 1.6s.5 1.6 1.4 1.6c.5 0 .8-.2 1.1-.5l.5.5c-.4.4-.9.6-1.6.6-1.3.3-2.3-.7-2.3-2.1zm4.3 0c0-1.4 1-2.4 2.3-2.4.7 0 1.3.3 1.6.6l-.5.5c-.2-.2-.5-.4-1.1-.4-.8 0-1.4.7-1.4 1.6s.5 1.6 1.4 1.6c.5 0 .8-.2 1.1-.5l.5.5c-.4.4-.9.6-1.6.6-1.3.3-2.3-.7-2.3-2.1zm4-1.6v-.6h3.9l-.3.7h-1.2v3.8h-.9v-3.8h-1.5zm4.3-.6h2.2c.8 0 1.4.5 1.4 1.1 0 .5-.2.8-.6 1 .5.1.8.6.8 1.1 0 .8-.6 1.4-1.4 1.4h-2.3V257zm2.7 1.2c0-.4-.3-.5-.6-.5h-1.2v1.1h1.2c.3 0 .6-.3.6-.6zm.3 1.9c0-.5-.3-.6-.8-.6h-1.2v1.3h1.2c.4-.1.8-.2.8-.7zm-56.7 7h1l-.9 1.8.9 1.8h-1l-.9-1.8.9-1.8zm1.9 0h1l-.8 1.8.8 1.8h-1l-.9-1.8.9-1.8zm3.4-2.8h.8l1.7 4.9 1.6-4.9h.8l2.1 6.5h-1.1l-1.4-4.8h-.1l-1.5 4.8h-.9l-1.6-4.8-1.4 4.8h-1.1l2.1-6.5z"/><path fill="#9D958C" d="M414.1 272.1l.6-.6c.1.1.3.2.5.2.4 0 .7-.2.9-.8l-1.8-4.7h1l1.3 3.5 1.1-3.5h1l-1.7 4.9c-.3.8-.8 1.4-1.8 1.4-.4.1-.8-.1-1.1-.4zm4.7-1.9l.5-.5c.2.2.6.5 1.2.5s1-.3 1-.7c0-.4-.2-.7-.9-.7h-.6v-.8h.7c.5 0 .8-.2.8-.6 0-.4-.4-.6-.8-.6-.5 0-.9.2-1.1.5l-.5-.5c.4-.3.9-.6 1.8-.6s1.7.5 1.7 1.2c0 .5-.3.8-.7 1 .5.2.8.6.8 1.1 0 .9-.8 1.4-1.9 1.4-1.1 0-1.7-.4-2-.7zm4.3-1.8c0-1.4 1-2.4 2.2-2.4s2.2.8 2.2 2.6v.1H424c.1.8.8 1.3 1.4 1.3.4 0 .8-.2 1.1-.5l.6.6c-.5.5-1.1.7-1.8.7-1.2 0-2.2-.9-2.2-2.4zm2.2-1.6c-.8 0-1.2.5-1.3 1.2h2.5c0-.5-.5-1.2-1.2-1.2zm2.7 1.6c0-1.4 1-2.4 2.3-2.4 1.3 0 2.3 1 2.3 2.4s-1 2.4-2.3 2.4c-1.4 0-2.3-.9-2.3-2.4zm3.6 0c0-.9-.5-1.6-1.4-1.6-.8 0-1.4.7-1.4 1.6 0 .9.5 1.6 1.4 1.6.9 0 1.4-.6 1.4-1.6zm2.7-2.2v1.8h2v-1.8h.9v4.6h-.9v-2h-2v2h-.9v-4.6h.9zm3.8.9h1l.9 1.8-.9 1.8h-1l.8-1.8-.8-1.8zm1.9 0h1l.9 1.8-.9 1.8h-1l.8-1.8-.8-1.8z"/><path fill="#E3E1DA" d="M676.2 339.8l-16.9 8.4c-3.4 1.7-7.4.3-9.1-3l-15.5-31c-1.7-3.4-.3-7.4 3.1-9.1l16.9-8.4c3.4-1.7 7.4-.3 9.1 3l15.5 31c1.7 3.4.3 7.5-3.1 9.1z"/><path fill="#9D958C" d="M659.3 313.7c0-1.5-1-2.7-2.4-2.7-1.3 0-2.4 1.2-2.4 2.6v.1c-1 .3-1.6 1.2-1.6 2.3 0 1.3 1 2.4 2.2 2.4.4 0 .7-.1 1-.3v2.9h1.1v-4.7h.6v2c.2.1.5.1.8.1 1.2 0 2.2-1.1 2.2-2.4.1-1.1-.5-2.1-1.5-2.3zM352.8 180.5c-.4 0-.7.3-.7.8v2h1.4v-2c.1-.4-.3-.8-.7-.8zm.2 2.3h-.4v-1.5c0-.1.1-.2.2-.2s.2.1.2.2v1.5zm9.3 2.4c-.6 0-1.1.5-1.1 1.1s.5 1.1 1.1 1.1 1.1-.5 1.1-1.1-.5-1.1-1.1-1.1zm0 1.7c-.3 0-.6-.2-.6-.6 0-.3.2-.6.6-.6.3 0 .6.2.6.6 0 .3-.3.6-.6.6zm-5.6-.4c-.5 0-.8.4-.8.8 0 .5.4.8.8.8.5 0 .8-.4.8-.8 0-.5-.4-.8-.8-.8zm0 1c-.1 0-.2-.2-.2-.3 0-.2.2-.3.2-.3.2 0 .3.2.3.3 0 .2-.2.3-.3.3zm-4.2-.4c-.5 0-.8.4-.8.8 0 .5.4.8.8.8.5 0 .8-.4.8-.8s-.3-.8-.8-.8zm0 1.1c-.2 0-.3-.2-.3-.2 0-.2.1-.3.3-.3.2 0 .2.2.2.3.1.1 0 .2-.2.2zm4.5 2v2.6h-.5v-2.6c0-.2.2-.2.2-.2.2-.1.3 0 .3.2zm4.1 0v2.9h-.5v-2.9c0-.2.2-.2.2-.2.2-.1.3 0 .3.2zm2.8 2.9h-.5v-2.9c0-.2.2-.2.2-.2.2 0 .2.2.2.2v.6l.1 2.3zm-14.7-1.8v2.5h-.5v-2.6c0-.2.2-.2.2-.2.1.1.3.1.3.3zm0 5v1.9h-.5v-2c0-.2.2-.2.2-.2.1 0 .3.1.3.3zm3.6-5.6v2.5h-.5v-2.6c0-.2.2-.2.2-.2.2.1.3.1.3.3zm19.7-9.5c0-.4-.3-.8-.7-.8-.4 0-.8.3-.8.8v2h1.4v-2zm-.5 1.6h-.4v-1.5c0-.1.1-.2.2-.2s.2.1.2.2v1.5zm-4.1 3.7c-.5 0-.8.4-.8.8 0 .5.4.8.8.8.5 0 .8-.4.8-.8 0-.5-.3-.8-.8-.8zm0 1c-.2 0-.3-.2-.3-.3 0-.2.2-.3.3-.3.2 0 .2.2.2.3.1.2 0 .3-.2.3zm4.2-.4c-.5 0-.8.4-.8.8 0 .5.4.8.8.8.5 0 .8-.4.8-.8s-.4-.8-.8-.8zm0 1.1c-.1 0-.3-.2-.3-.2 0-.2.2-.3.3-.3.2 0 .2.2.2.3.1.1-.1.2-.2.2zm-3.9 2v2.6h-.5v-2.6c0-.2.2-.2.2-.2.2-.1.3 0 .3.2zm7.8 1.1v2.5h-.5v-2.6c0-.2.1-.2.2-.2.2 0 .3.1.3.3zm0 5v1.9h-.5v-2c0-.2.1-.2.2-.2.2 0 .3.1.3.3zm-3.6-5.6v2.5h-.5v-2.6c0-.2.1-.2.2-.2.1.1.3.1.3.3zm-10.1-1.1c-.4 0-.7.3-.7.7v2.7h1.4v-2.7c-.1-.4-.4-.7-.7-.7zm.2 3h-.4v-2.2c0-.1.1-.2.2-.2s.2.1.2.2v2.2zm14.6-8.2v1.1h-2.7v-1.1h-.7l.1-4.7.3-1.1-.2-.3.1-.2c.2-.6.1-1.3-.4-1.7l-.8-.8c-.2-.2-.5-.5-.6-.9-.1-.2-.2-.5-.2-.7v-.9h.6v-.5h-.6v-.6h-.5v.6h-.6v.5h.6v.9c0 .2-.1.5-.2.7-.1.3-.4.6-.6.9l-.8.8c-.5.5-.6 1.1-.4 1.7l.1.2-.2.2.3 1.1v3.6h-2v-8l.5-1.1-.2-.2.1-.2c.4-1.4-.1-2.9-1.1-3.8l-3.9-3.9c-.5-.5-.7-1.1-.7-1.7v-1.1h.6v-.5h-.5v-.7h-.5v.7h-.6v.5h.6v1.1c0 .6-.2 1.2-.7 1.7l-3.9 3.9c-1 1-1.4 2.5-1.1 3.8v.1l-.2.3.5 1.1v8.1h-1.9v-3.6l.3-1.1-.2-.2.1-.2c.2-.6.2-1.3-.4-1.7l-.8-.8c-.2-.2-.5-.5-.6-.9-.1-.2-.1-.5-.1-.7v-.9h.6v-.5h-.6v-.7h-.5v.6h-.5v.5h.6v.9c0 .2-.1.5-.2.7l-.6.9-.8.8c-.5.5-.6 1.1-.3 1.7l.1.2-.2.3.3 1.1.1 4.7h-.7v1.1h-2.7v-1.1h-.6v15.2h30.6v-15.2h-.5zm-6.8-5.1l-.2-.5h3.4l-.2.5h-3zm.9-1.3c-.2-.5-.1-1 .2-1.4.2-.2.3-.5.4-.7.1.2.2.5.4.7.3.4.4.9.2 1.4l-.1.2h-1.1v-.2zm2-1.2c.3.3.4.8.2 1.1l-.1.3h-.5v-.1c.2-.6.1-1.4-.3-1.9-.1-.1-.2-.3-.3-.5l.2.2.8.9zm-2.9 0l.8-.8.1-.1c-.1.2-.1.3-.2.4-.4.5-.5 1.3-.3 1.9v.1h-.5l-.2-.3c0-.5 0-.9.3-1.2zm-13.3-1.9l-.2-.6h10.9l-.2.6H357zm2.6-5.3l1.7-2.6-.8 2.8c-.4 1.3-.4 2.6-.1 3.9h-1.6c-.3-1.4 0-2.9.8-4.1zm6.2 4.2h-1.6c.3-1.3.3-2.6-.1-3.9l-.8-2.8 1.7 2.6c.9 1.1 1.1 2.6.8 4.1zm-4.8 0c-.3-1.3-.3-2.6.1-3.8l1.1-3.5v7.2H361zm1.6-7.3l1.1 3.5c.4 1.2.4 2.6.1 3.8h-1.1v-7.3zm5.2 7.1l-.1.2h-1.4c.4-1.5.1-3.1-.8-4.5l-1-1.4 2.3 2.3c.9.9 1.3 2.2 1 3.4zm-10-3.4l2.3-2.3-1 1.4c-.9 1.3-1.2 2.9-.8 4.5h-1.4l-.1-.2c-.2-1.2.2-2.5 1-3.4zm-.6 5.2h.5v.7h.5v-.7h.4v.7h.5v-.7h.4v.7h.5v-.7h.4v.7h.5v-.7h.4v.7h.5v-.7h.4v.7h.5v-.7h.4v.7h.5v-.7h.4v.7h.5v-.7h.4v.7h.5v-.7h.4v.7h.5v-.7h.4v.7h.5v-.7h.5v6h-.7v-3.2c0-.2-.2-.2-.2-.2-.1 0-.2.2-.2.2v3.2h-.9v-3.1c0-.4-.3-.8-.8-.8-.4 0-.8.3-.8.8v3.1h-.8v-3.2c0-.4-.3-.8-.8-.8-.4 0-.8.3-.8.8v3.2h-.8v-3.1c0-.4-.3-.8-.8-.8-.4 0-.8.3-.8.8v3.1h-.9v-3.2c0-.2-.2-.2-.2-.2-.1 0-.2.2-.2.2v3.2h-.6v-6h-.2zm7.6 6h-.5v-3.1c0-.2.1-.2.2-.2s.2.1.2.2v3.1zm-2.3 0h-.5v-3.2c0-.2.1-.2.2-.2.2 0 .2.1.2.2v3.2zm-2.4 0h-.5v-3.1c0-.2.1-.2.2-.2.2 0 .2.1.2.2v3.1zm-8.8-2.1l-.2-.5h3.4l-.1.5h-3.1zm.9-1.3c-.2-.5-.1-1 .2-1.4.2-.2.3-.5.4-.7.1.2.2.5.4.7.3.4.4.9.2 1.4l-.1.2h-1.1v-.2zm2.1-1.2c.3.3.4.8.2 1.1l-.1.3h-.5v-.1c.2-.6.1-1.4-.3-1.9-.1-.1-.2-.3-.3-.5l.2.2.8.9zm-2.9 0l.8-.8.1-.1c-.1.2-.1.3-.2.4-.4.5-.5 1.3-.3 1.9v.1h-.5l-.2-.3c-.1-.5 0-.9.3-1.2zm22.2 18.2h-.6v.5c.5 0 .8.4.8.8v2.8h-2.1l-1.3-1.1v-2.6c0-.5.4-.8.8-.8v-.5h-.7v-4.5h3.4v5.4h-.3zm-5.1 2.7h-1.1V196c0-.3.2-.5.5-.5s.5.2.5.5l.1 1.7zm-.6-2.7c-.6 0-1.1.5-1.1 1.1v1.7h-.8v-2.5c0-.5.4-.8.8-.8v-.5h-.8v-5.3h3.9v5.3h-.7v.5c.5 0 .8.3.8.8v2.4h-1V196c0-.6-.5-1-1.1-1zm-5.9 2.7h-.6v-2.1c0-.3.2-.6.6-.7v2.8zm.6-2.8c.4.1.6.4.6.7v2.1h-.6v-2.8zm-.3-.5c-.8 0-1.4.6-1.4 1.3v2.1h-1.7v-2.2c0-.8.6-1.4 1.4-1.4v-.6h-1.4v-4.9h6.2v4.9H364v.5c.8 0 1.4.6 1.4 1.4v2.1h-1.7v-2.1c0-.5-.6-1.1-1.4-1.1zm-5 3.3h-1.1V196c0-.3.2-.5.5-.5s.5.2.5.5l.1 1.7zm-.6-2.7c-.6 0-1.1.5-1.1 1.1v1.7h-.9v-2.5c0-.5.4-.8.8-.8v-.5h-.8v-5.3h3.9v5.3h-.6v.5c.5 0 .8.4.8.8v2.4h-.9V196c-.1-.6-.5-1-1.2-1zm17-6h-3.4v-.5c0-.9.8-1.7 1.7-1.7.9 0 1.7.8 1.7 1.7v.5zm-3.8-1v.3H366v-.4c0-1.1.9-1.9 2-1.9 1 0 1.9.9 1.9 2zm-4.5 0v.3h-6.2v-.3c0-1.4.9-2.6 2.3-2.9.4-.1.7-.4.8-.5.2.2.5.5.8.5 1.4.3 2.3 1.4 2.3 2.9zm-6.7 0v.3h-3.9v-.3c0-1.1.9-2 2-2 1 0 1.9.9 1.9 2zm-4.4.5v.5h-3.4v-.5c0-.9.8-1.7 1.7-1.7.9 0 1.7.8 1.7 1.7zm-3.4 7.7c.1-.4.4-.7.8-.7v-.5H350.8v-5.4h3.4v4.5h-.8v.5c.5 0 .8.4.8.8v2.6l-1.2 1h-2.1v-2.8zm11.4 2.7h-8.5l.8-.7H370l.8.7h-8.5zm12 0v-2.8c0-.5.4-.8.8-.8v-.5h-.8v-6.6c-.1-1.1-1.1-2-2.2-2-.8 0-1.4.4-1.8.9-.3-1.1-1.3-1.8-2.4-1.8-.9 0-1.7.5-2.2 1.3-.4-1.1-1.3-2-2.4-2.3-.3-.1-.7-.5-.8-.6l-.2-.3-.2.3c-.1.2-.5.5-.8.6-1.1.3-2 1.2-2.4 2.3-.5-.8-1.2-1.3-2.2-1.3-1.1 0-2.1.8-2.4 1.8-.4-.6-1.1-.9-1.8-.9-1.2 0-2.2 1-2.2 2.2v6.4h-.8v.5c.5 0 .8.4.8.8v2.8h-2.9V187h3.1v-.5h-3.1v-.5h3.2v-1.1H354.3v-.5h-3.1l-.1-4.5h2.9v3.9h7v-.5h-4v-1.4h10.2v1.4h-3.9v.5h7v-3.9h2.9l-.1 4.5h-2.9v.5H373.9v1.1h3.2v.5H374v.5h3.1v11.9h-2.8zm327.8 164.6h-.5v-.3l.8-.9.8.9v.3h-.5v-.2l-.4-.5-.4.5v.2zm4.2 3.7c0-.3.2-.5.5-.5s.5.2.5.5v.4h.5v-.4c0-.6-.5-1.1-1-1.1-.6 0-1 .5-1 1.1v.4h.5v-.4zm-3.7 3.6h-.3l-.7.8-.1.2v.5h.5v-.4l.5-.5.5.5v.4h.5v-.5l-.1-.2-.8-.8zm-.1 1.4c-.1 0-.3.2-.3.3v.8h.7V372.5c-.1-.2-.3-.3-.4-.3zm0-8.8c-.2 0-.3.2-.3.3v.8h.5V363.7c.1-.2 0-.3-.2-.3zm-6.8 11.5c-.2 0-.3.2-.3.3v.9h.7v-.9c0-.2-.2-.3-.4-.3zm-9.7-16l-.4-1.1h-.1l-.4 1.1v.4h.9v-.4zm-4.1 3.6v-.2c0-.1-.2-.3-.3-.3-.2 0-.3.2-.3.3v.5h.5l.1-.3zm7.8 0v-.2c0-.1-.2-.3-.3-.3-.2 0-.3.2-.3.3v.5h.5l.1-.3zm-4.4 9.5h1.1v-1.1h-1.1v1.1zm6.8 0h1.1v-1.1h-1.1v1.1zm-14.5 0h1.1v-1.1h-1.1v1.1zm33.4 6H691.3v-2.8c0-1.2-.8-2.1-2-2.1-1.1 0-2 .9-2 2.1v2.8h-10.5v-16.6l-.8-1.3.2-.5h1l2.4-2.7v-2.4h.5v1.5h10.6v-1.5h.5v2.3l2.4 2.7h.7l.2.5-.7 1.2v2.5l2.5 1.5c0-.3.1-.5.3-.8v-2.1c-.4-.1-.6-.5-.6-1 0-.3.2-.7.4-.9l.5-.5.2-.2c.1-.1.1-.2.1-.3v-.9h-.4v-.5h.4v-.5h.5v.5h.4v.5h-.4v.9c0 .2 0 .2.1.3.1.1.1.2.1.2l.5.5c.2.2.4.5.4.9 0 .5-.2.8-.6 1v2.1c.2.2.2.3.3.5l1.4-.9v-2.7c-.3-.2-.5-.5-.5-.9 0-.3.1-.6.3-.8l.5-.5.1-.2c.1-.1.1-.2.1-.3v-.8h-.3v-.4h.3v-.5h.5v.5h.3v.5h-.3v.8c0 .1 0 .2.1.3l.2.2.2.2.5-2v-1.1c-.2-.1-.4-.4-.4-.7 0-.2.1-.5.2-.6l.3-.4.1-.2c0-.1.1-.2.1-.2v-.6h-.3v-.5h.3v-.1h.5v.5h.3v.5h-.3v.6c0 .1 0 .2.1.2l.1.1.3.3c.1.2.2.4.2.6 0 .3-.1.5-.4.7v1l1.4 6.4 1.2.7c.1-.1.1-.2.2-.2v-2.1c-.4-.1-.6-.5-.6-1 0-.3.2-.7.4-.9l.5-.5.2-.2c.1-.1.1-.2.1-.3v-.9h-.4v-.5h.4v-.5h.5v.5h.4v.5h-.4v.9c0 .2 0 .2.1.3.1.1.1.2.1.2l.5.5c.2.2.4.5.4.9 0 .5-.2.8-.6 1v2.1c.2.2.4.5.4.8v.2h1.1v4.8l2.1.7v7zm-1.4-4.1h.8v-2.3h-4.8v2.3h1.4v-1.3c0-.1.2-.3.3-.3.1 0 .3.2.3.3v1.4h1.3V372.6c0-.1.1-.3.3-.3.2 0 .3.2.3.3v1.3h.1zm-2.7 2.4c0-.4-.2-.6-.6-.6-.3 0-.6.2-.6.6v1.1h1.1l.1-1.1zm-3.6-1.2c0-.5-.4-.9-.8-.9-.5 0-.8.4-.8.9v2.3h1.7v-2.3zm.5-.6h1.4v-4.3H700v4.3h1.3c.2-.5.7-.8 1.3-.8.4 0 .9.4 1.2.8zm-10.3-1.8v-2.9h-16.2v2.9h1.6c.5-1.1 1.6-1.7 3-1.7s2.6.7 3 1.7h2c.4-1.1 1.3-1.7 2.4-1.7 1.1 0 2 .7 2.4 1.7h1.8zm-6.8 2.6v-1.6-.4h-.6v3.3h-.5v-3.3h-.6v4.3h1.7v-2.3zm-2.6 1.6v.6h.4v-3.8h-2.3v3.8h.5v-.6h.5v.6h.5v-.6h.4zm-2.9 0v.6h.4v-3.8h-2.3v3.8h.5v-.6h.5v.6h.5v-.6h.4zm3.2-3.7c-.3-.9-1.3-1.6-2.6-1.6s-2.3.7-2.6 1.6h5.2zm9.1-4v-.9h-.8v.6h-.5v-.6h-5.4v.6h-.5v-.6h-.8v.6h-.5v-.6h-6.5v.6h-.5v-.6h-.6v.9h16.1zm-12.8-5h1.9v-.3h-1.9v.3zm0 3.6h.5v-2h.9v2h.5v-3h-1.9v3zm7.8-3.6h1.9v-.3h-1.9v.3zm0 3.6h.5v-2h.9v2h.5v-3h-1.9v3zm5-6.2h-.8v6.1h.8v-6.1zm-1.3 0h-5.4v6.1h1.2V364h-.2v-.5h.2v-.1c0-.5.4-1 1-1.1l.1.5c-.3 0-.5.2-.5.5v.1h1.9v-.1c0-.3-.2-.5-.5-.5l.1-.5c.5.1 1 .5 1 1.1v.1h.2v.5h-.2v3.8h1.2l-.1-6.2zm-6 0h-.8v6.1h.8v-6.1zm-1.3 0h-6.5v6.1h1.7V364h-.2v-.5h.2v-.1c0-.5.4-1 1-1.1l.1.5c-.3 0-.5.2-.5.5v.1h1.9v-.1c0-.3-.2-.5-.5-.5l.1-.5c.5.1 1 .5 1 1.1v.1h.2v.5h-.2v3.8h1.7v-6.2zm-7 0h-.6v6.1h.6v-6.1zm18.4 6.1c0-.4-.2-.6-.6-.6-.3 0-.6.2-.6.6v1.1l1.1.6.1-1.7zm-2.3 1.5v1.5h3.3v-.6h-.8l-1.7-.9h-.8zm4 .5v2.7h1.4v-2.8h.6v-3.8c0-.5.2-.7.4-.8l.1-.2-2.5 1.6V369.7zm2.6-7.8v1.9l.4-1.9h-.4zm.3 4.3v-.3c0-.2-.1-.4-.2-.4-.2 0-.2.2-.2.4v2.7h.7v-2.3h-.3zm2.2 0v-.3c0-.3-.2-.5-.5-.5s-.5.2-.5.5v.3h-.3v2.3h.5v-1.9c0-.2.1-.3.3-.3.2 0 .3.2.3.3v1.9h.5v-2.3h-.3zm1.5 2.9h-4.1v.6h4.1v-.6zm-.5-2.9h-.2v2.3h.7v-2.7c0-.2-.1-.4-.2-.4s-.2.2-.2.4v.4zM694 376.6h3.3v-5.2H694v5.2zm4-3.1h1.4v-.5H698v.5zm11.7-2.4l-1.1-.4h-2.9v.4h4zm-1.4-5.1h-3.2v3.6h.5v.5h1v-.9c0-.2.1-.3.3-.3s.3.2.3.3v.9h1.1V366zm-1.1-.5v-.2c0-.3-.2-.5-.6-.5-.3 0-.5.2-.5.5v.2h1.1zm-.8-1.4h.5v-1.6h-.5v1.6zm-.6-2.8c0 .3.2.5.5.5h.5c.3 0 .5-.2.5-.5 0-.2-.1-.4-.2-.5l-.5-.5-.2-.2-.2.2-.5.5c.2.2.1.4.1.5zm-1.1 3.5l.1.2c.2.1.3.2.4.5h.5v-.2l-1-.5zM702 356c0 .2.2.3.3.3h.4c.2 0 .3-.2.3-.3 0-.2-.1-.2-.2-.3l-.3-.4-.1-.1-.1.1-.3.4c.1 0 0 .1 0 .3zm-1.1 9c.2.1.5.3.5.6h.1c.1-.5.5-.8 1-.8s.9.3 1 .8c.1-.3.3-.5.5-.6l-1.6-7.3v-.9h-.1v1l-1.4 7.2zm-.8-4.2c0 .3.2.5.5.5h.6l.2-1-.4-.4-.1-.2-.1.2-.5.5c-.2 0-.2.3-.2.4zm-2.8 3.5h.5v-1.6h-.5v1.6zm-.5-2.7c0 .3.2.5.5.5h.5c.3 0 .5-.2.5-.5 0-.2-.1-.4-.2-.5l-.5-.5-.2-.2-.2.2-.5.5c.2.2.1.3.1.5zm.2 4.3l.4.2.8-.5v-.1c0-.3-.2-.5-.6-.5-.3 0-.5.2-.5.5v.4zm-3-1.3v4h.5v-1c0-.7.5-1.1 1.1-1.1.7 0 1.1.5 1.1 1.1v1.9h.5v-2.9l-3.2-2zm-13.9-7.6h10.6v-.2h-10.6v.2zm-2.1 2.7h.6v-.2c0-.2.2-.3.3-.3.2 0 .3.1.3.3v.2h.5v-.2c0-.2.2-.3.3-.3.2 0 .3.1.3.3v.2h.5v-.2c0-.2.2-.3.3-.3.2 0 .3.1.3.3v.2h.5v-.2c0-.2.2-.3.3-.3.2 0 .3.1.3.3v.2h.5v-.2c0-.2.2-.3.3-.3.2 0 .3.1.3.3v.2h.5v-.2c0-.2.1-.3.3-.3s.3.1.3.3v.2h2.3v-.2c0-.2.1-.3.3-.3s.3.1.3.3v.2h.5v-.2c0-.2.2-.3.3-.3s.3.1.3.3v.2h.5v-.2c0-.2.1-.3.3-.3.2 0 .3.1.3.3v.2h.5v-.2c0-.2.2-.3.3-.3.2 0 .3.1.3.3v.2h.5v-.2c0-.2.1-.3.3-.3s.3.1.3.3v.2h.5v-.2c0-.2.2-.3.3-.3s.3.1.3.3v.2h.8l-.8-.8c-.1.1-.1.2-.2.2-.2 0-.3-.2-.3-.3v-.2l.1-.2-.5-.6-.2.2c-.2 0-.3-.2-.3-.3v-.2h-.5v.2c0 .2-.2.3-.3.3-.2 0-.3-.2-.3-.3v-.2h-.5v.2c0 .2-.2.3-.3.3-.2 0-.3-.2-.3-.3v-.2h-.5v.2c0 .2-.2.3-.3.3-.2 0-.3-.2-.3-.3v-.2h-.5v.2c0 .2-.2.3-.3.3-.2 0-.3-.2-.3-.3v-.2H685v.2c0 .2-.2.3-.3.3-.2 0-.3-.2-.3-.3v-.2h-.5v.2c0 .2-.2.3-.3.3-.2 0-.3-.2-.3-.3v-.2h-.5v.2c0 .2-.2.3-.3.3s-.3-.2-.3-.3v-.2h-.5v.2c0 .2-.2.3-.3.3-.2 0-.3-.2-.3-.3v-.2h-.5v.2c0 .2-.2.3-.3.3-.1 0-.2 0-.2-.1l-.5.6V358.8c0 .2-.2.3-.3.3-.1 0-.2 0-.2-.1l-1.1.7zm-1.3.6l.5.8h.8v-.3h.5v.3h6.5v-.3h.5v.3h.8v-.3h.5v.3h5.4v-.3h.5v.3h.8l.5-.8H676.7zm.6 17.2h1.4v-3.9-.4h-.5v3.3h-.5v-3.3h-.5l.1 4.3zm13.9-4c-.1-1.1-.9-2-2-2s-1.9.8-2 2c.4-.5.9-.8 1.6-.9v-.7h.9v.7c.7.1 1.2.4 1.5.9zm2.3 4v-4.2h-.5v3.3h-.5v-3.3h-.6v4.3h1.6zm3.8-.4H694v.4h3.3v-.4zm2.1-3H698v3.5h1.4v-3.5zm.5 3.4h1.1V375h-1.1v2.5zm5.1 0V375h-1.2v2.4h1.2zm4.6-1.2c0-.4-.2-.6-.6-.6-.3 0-.6.2-.6.6v1.1h1.1l.1-1.1zm.9 1.2v-3h-4.8v1c.2-.1.5-.3.8-.3.6 0 1.1.5 1.1 1.1v1.1h.5v-1.1c0-.7.5-1.1 1.1-1.1.7 0 1.1.5 1.1 1.1v1.1h.2zm-3.3-9.3l-.1-.1h-.3l-.1.1-.2.2c-.4.1-.6.4-.6.8v.3h.5v-.3c0-.2.2-.3.3-.4.1 0 .2-.1.3-.2.1.1.2.1.3.2.2 0 .3.1.3.4v.3h.5v-.3c0-.4-.2-.7-.6-.8-.3-.1-.3-.2-.3-.2zm-26 7.5h-.5v.7h.5v-.7zm0-1.1h-.5v.7h.5v-.7zm-1.6 1.8h.5v-.7h-.5v.7zm0-1.1h.5v-.7h-.5v.7zm.2-16.2c.2 0 .3-.2.3-.3v-.2c0-.2-.2-.3-.3-.3-.1 0-.3.2-.3.3v.2c0 .2.2.3.3.3zm2.2 0c.2 0 .3-.2.3-.3v-.2c0-.2-.2-.3-.3-.3-.2 0-.3.2-.3.3v.2c0 .2 0 .3.3.3zm-1.1 0c.2 0 .3-.2.3-.3v-.2c0-.2-.2-.3-.3-.3-.2 0-.3.2-.3.3v.2c0 .2.2.3.3.3zm3.1 0c.2 0 .3-.2.3-.3v-.2c0-.2-.1-.3-.3-.3-.2 0-.3.2-.3.3v.2c0 .2.1.3.3.3zm-1 0c.2 0 .3-.2.3-.3v-.2c0-.2-.2-.3-.3-.3-.2 0-.3.2-.3.3v.2c0 .2.2.3.3.3zm8.1 0c.2 0 .3-.2.3-.3v-.2c0-.2-.2-.3-.3-.3-.2 0-.3.2-.3.3v.2c0 .2.1.3.3.3zm-2.1 0c.2 0 .3-.2.3-.3v-.2c0-.2-.1-.3-.3-.3-.2 0-.3.2-.3.3v.2c0 .2.1.3.3.3zm1 0c.1 0 .3-.2.3-.3v-.2c0-.2-.2-.3-.3-.3-.2 0-.3.2-.3.3v.2c0 .2.1.3.3.3zm-3.1 0c.1 0 .3-.2.3-.3v-.2c0-.2-.2-.3-.3-.3-.2 0-.3.2-.3.3v.2c0 .2.2.3.3.3zm1 0c.2 0 .3-.2.3-.3v-.2c0-.2-.2-.3-.3-.3-.1 0-.3.2-.3.3v.2c0 .2.2.3.3.3zm-3.8 16.6h-.5v.7h.5v-.7zm0-1.1h-.5v.7h.5v-.7zm-1.5 1.8h.5v-.7h-.5v.7zm0-1.1h.5v-.7h-.5v.7zm22.4-62.9v-.4c0-.7.5-1.1 1.1-1.1s1.1.5 1.1 1.1v.4h-.5v-.4c0-.4-.3-.7-.7-.7-.4 0-.7.3-.7.7v.4h-.3zm7.2 2.8v5.1l-.2.2h-33.5l-.2-.2v-3.8l-.2-.8v-1.5l-.1-.4 1.4-.8 1.8-4.2h.4l1.8 4.2 1.4.8-.1.3v1.5h4.4v-4.1l-.2-.5.2-.3h.5l1.1-.4v-2.1c-.2-.2-.3-.4-.3-.7 0-.3.1-.5.3-.8l.5-.5.2-.2c.1-.1.1-.2.1-.3v-.8h-.4v-.5h.4v-.5h.5v.5h.4v.5h-.4v.8c0 .1 0 .2.1.3l.2.2.5.5c.2.2.3.5.3.8 0 .2-.1.5-.3.7v1.4l.6-.2v-2.5c-.2-.2-.5-.6-.5-1s.2-.8.5-1.1l.9-1c.1-.1.2-.2.2-.3.1-.2.2-.4.2-.5v-1h-.7v-.5h.7v-.9h.5v.9h.7v.5h-.7v1.2c0 .1.1.4.2.5.1.2.2.2.2.4l.9 1c.3.3.5.7.5 1.1 0 .4-.2.8-.5 1v2.5l.6.2v-1.4c-.2-.1-.3-.4-.3-.7 0-.3.1-.5.3-.8l.5-.5c0-.1.1-.1.2-.2s.1-.2.1-.3v-.8h-.4v-.5h.4v-.5h.5v.5h.4v.5h-.4v.8c0 .1 0 .2.1.3.1.1.1.2.2.2l.5.5c.2.2.3.5.3.8 0 .2-.1.5-.3.7v2.1l1.1.4h.5l.2.3-.2.5v3.3h1.1V311l-.3-.4.2-.4h1.2v-5.1l-.2-.2v-.3l.4-.4v-.7l.2-.2h.2v-3.5l-.4-.2v-.4l.4-.3v-.5l-.4-.4.2-.4h.2v-.2s.5-1.6 2.3-2v-1.6l-.2.1-.1-.5.8-.2v-.5c-.3-.2-.5-.5-.5-.8 0-.2.1-.5.2-.7l.4-.4.2-.2c.1-.1.1-.2.1-.2v-.4c-.1-.1-.2-.2-.2-.3s.1-.2.2-.3v-.5h-.3v-.5h.3v-.4h.5v.5h.2v.5h-.2v.5c.1.1.2.1.2.3s-.1.2-.2.3v.9c0 .1 0 .1.1.2l.2.2.4.4c.2.1.3.5.3.7 0 .4-.2.7-.5.8v.5l.8.2-.1.5-.2-.1v1.6c1.8.4 2.3 2 2.3 2v.2h.2l.2.4-.4.4v.5l.4.3v.4l-.4.2v3.2h.2l.2.2v.7l.4.4v.3l-.2.2v5.1h1.1l.2.4-.3.4v4.2h1.2l-1.2-.3zm-3.6 4.9h.8v-4.7H702.6v4.7h.8V318.3c0-.2.2-.3.3-.3.2 0 .3.2.3.3v1.7h.7v-2.7c0-.8.5-1.4 1.3-1.4s1.3.6 1.3 1.4v2.7h.7V318.3c0-.2.2-.3.3-.3.2 0 .3.2.3.3v1.8zm-1.7-2.7c0-.5-.4-.9-.8-.9-.5 0-.8.4-.8.9v2.7h1.7l-.1-2.7zm-5.4-2.1v4.8h.8v-4.8h-.8zm2-10.1v3.1h.5v-3.1h.5v3.1h.6v-2c0-.6.5-1.1 1.1-1.1.6 0 1.1.5 1.1 1.1v2h.5v-3.1h.5v3.1h.4v-3.1h.5v3.1h.5v-3.5l.1-.1H703l.1.1v3.5h.5v-3.1h-.1zm.6-5.1v3h1v-2c0-.6.5-1.1 1-1.1.6 0 1 .5 1 1.1v2h1v-3h.5v3h.4v-3.3l.1-.1h-5.7l.1.1v3.3h.4v-3h.2zm-.9-1.7v.7l-.1.2h.4v-1.1h-.5l.1.1.1.1zm.9-.2v1.1h3.9v-1.1h-1.1c-.2.4-.5.6-.8.6-.4 0-.8-.2-.8-.6h-1.2zm1.9.1c.2 0 .5-.2.5-.5 0-.2-.2-.5-.5-.5-.2 0-.5.2-.5.5.1.3.3.5.5.5zm2.8.8v-.7l.1-.2.1-.1h-.5v1.1h.5l-.2-.1zm-3.3 4h1.1v-2c0-.4-.2-.6-.5-.6s-.5.2-.5.6l-.1 2zm0 1.2h1.1v-.8h-1.1v.8zm1.2 2c0-.4-.2-.7-.6-.7-.4 0-.6.3-.6.7v2h1.2v-2zm1.2 3.7l-1.8-.8-1.9.8h3.7zm-3.2.5v3.8l1.1-.5V313c0-.2.2-.3.3-.3.2 0 .3.1.3.3v.8l1.1.5v-3.8h-2.8zm-.5 4.4h3.6l-1.8-.8-1.8.8zm5.1 0v-4.5h-1.6v3.9l.8.3V311h.5v3.8l.3.1zm-.8-5.1v-1.1h-2.3l2.3 1.1zm-5-1v1.1l2.4-1.1h-2.4zm-.8 1.7v4.5h.5v-3.8h.5v3.6l.7-.3v-4h-1.7zm7.1 9.6h.7v-4.7h-.7v4.7zm0-9.6v4.5h.5v-4.2l.1-.2.1-.1h-.7zm-.5-1.7h-.5v1.3h.5v-1.3zm-.3-5.3h-2v.8h2.3l-.1-.2v-.5l-.2-.1zm-3-10l.1-.5h-.1v.5zm-.6-1.3c0 .2.1.4.4.4h.4c.2 0 .4-.2.4-.4s-.1-.3-.2-.4l-.4-.4-.1-.1-.1.1-.4.4c.1.2 0 .4 0 .4zm.1 3.4h.3v-1c0-.1.1-.2.2-.2s.2.1.2.2v1h.3V294l-.2-.1h-.6l-.2.1v1.6zm-2.3 2.1h1.9c.1-.5.5-.8.9-.8.5 0 .8.3.9.8h1.9c-.1-.2-.7-1.7-2.8-1.7-2.1.1-2.7 1.5-2.8 1.7zm-.5 6.6h2.3v-.8h-2v-.1l-.1.1h-.2v.8zm0 5.7h.5v-1.3h-.5v1.3zm-1.1.7v4.2h.6v-4.5h-.7l.1.1v.2zm-1.5 4.6v4.8h.8v-4.8h-.8zm-1.8 4.6v.1h1.4v-2.9h-15.3v2.9h1.4v-.2c0-.2.2-.3.3-.3.2 0 .3.2.3.3v.2h3.4v-.2c0-.2.2-.3.3-.3.2 0 .3.2.3.3v.2h3.4v-.2c0-.2.1-.3.3-.3.2 0 .3.2.3.3v.2h3.4v-.2c0-.2.2-.3.3-.3.1 0 .2.1.2.4zm-16.6-2.2v.2h2.3v-1.1h-5.2v1.1h2.3V317.6c0-.2.2-.3.3-.3.1.1.3.2.3.4zm18-1.5h-15.2l-.1.5v.2h15.3v-.7zm-2.8-8.6c0 .3.2.5.5.5h.7c.3 0 .5-.2.5-.5 0-.2-.1-.3-.2-.5l-.5-.5-.2-.2-.2.2-.6.5c.1.2 0 .4 0 .5zm.3 2.2l.4.2v-.8h.4v1l.4.2v-1.7H697.3v1.1zM693 306c0 .5.4.9.9.9h1.2c.5 0 .9-.4.9-.9 0-.3-.2-.6-.3-.8l-.9-1c-.2-.1-.2-.2-.3-.4-.1.2-.2.2-.3.4l-.9 1c-.1.2-.3.5-.3.8zm.5 1.2v2.2h.9V308h.4v1.4h.9v-2.2c-.2.1-.3.1-.5.1H694c-.2 0-.4-.1-.5-.1zm-3 .4c0 .3.2.5.5.5h.7c.3 0 .5-.2.5-.5 0-.2-.1-.3-.2-.5l-.5-.5-.2-.2-.2.2-.5.5c0 .2-.1.4-.1.5zm.3 2.7l.4-.2v-1h.4v.8l.4-.2v-1.3h-1.2v1.9zm-.2.5h7.9l-2.6-1h-2.6l-2.7 1zm-1.2.7v4.2h10.3v-4.3l.1-.2h-10.6l.2.3zm-6.3 1.9h-.4l.5.5h.5l-.6-.5zm-.3-.5l-1-2.3.5 2.3h.5zm-1.5-2.4l-.5 2.4h1l-.5-2.4zm-.4.1l-1 2.3h.5l.5-2.3zm-.3 2.8l-.5.5h2.5l-.5-.5h-1.5zm-1.7.4h.5l.5-.5h-.4l-.6.5zm-.4 2l.1.6h.6V315.7c0-.1.1-.1.1-.1l.2.1v.7h1.4V315.7c0-.1.1-.1.2-.1s.2.1.2.1v.7h1.4V315.7c0-.1.1-.1.2-.1s.1.1.1.1v.7h.7l.2-.6v-1.5h-5.7v1.5h.3zm.3 4.3h5.2v-1.7h-5.2v1.7zm33-4.7h-.8v4.7h.8v-4.7zm-26.5 2.3c-.1 0-.2.1-.2.2v1h.4v-1c0-.2-.1-.2-.2-.2zm1.4 0c-.1 0-.1.1-.1.2v1h.4v-1c-.2-.2-.2-.2-.3-.2zm1.3 0c-.1 0-.2.1-.2.2v1h.4v-1c0-.2-.1-.2-.2-.2zm1.3 0c-.1 0-.2.1-.2.2v1h.4v-1c0-.2-.1-.2-.2-.2zm1.4 0c-.1 0-.2.1-.2.2v1h.4v-1c-.1-.2-.1-.2-.2-.2zm1.4 0c-.1 0-.2.1-.2.2v1h.4v-1c-.1-.2-.2-.2-.2-.2zm1.2 0c-.1 0-.2.1-.2.2v1h.4v-1c.1-.2 0-.2-.2-.2zm1.4 0c-.1 0-.1.1-.1.2v1h.4v-1c-.2-.2-.2-.2-.3-.2zm1.4 0c-.1 0-.2.1-.2.2v1h.4v-1c-.1-.2-.2-.2-.2-.2zm1.3 0c-.1 0-.2.1-.2.2v1h.4v-1c0-.2-.1-.2-.2-.2zm1.5.5v-.5c0-.1-.1-.2-.2-.2s-.2.1-.2.2v1h.4v-.5zm-19.4-2.9h.2v-.4c0-.1-.1-.1-.2-.1s-.2.1-.2.1v.5h.2zm3.6 0h.2v-.4c0-.1-.1-.1-.2-.1s-.2.1-.2.1v.5h.2zm25.8 1.5c0 .5-.3.8-.6.8-.4 0-.6-.4-.6-.8 0-.5.3-.8.6-.8.4 0 .6.3.6.8zm-.5 0c0-.2-.1-.4-.2-.4s-.2.1-.2.4c0 .2.1.4.2.4.2-.1.2-.2.2-.4zm-4 0c0 .5-.3.8-.6.8-.4 0-.6-.4-.6-.8 0-.5.3-.8.6-.8s.6.3.6.8zm-.5 0c0-.2-.1-.4-.2-.4s-.2.1-.2.4c0 .2.1.4.2.4.1-.1.2-.2.2-.4zm-13.9-3.7c0-.6.5-1.1 1.1-1.1s1.1.5 1.1 1.1v.7h.5v-.7c0-.9-.7-1.6-1.6-1.6-.9 0-1.6.7-1.6 1.6v.7h.5v-.7zm3.4 0c0-.6.5-1.1 1.1-1.1.6 0 1.1.5 1.1 1.1v.7h.5v-.7c0-.9-.7-1.6-1.6-1.6-.9 0-1.6.7-1.6 1.6v.7h.5v-.7zm3.4 0c0-.6.5-1.1 1.1-1.1.6 0 1.1.5 1.1 1.1v.7h.5v-.7c0-.9-.7-1.6-1.6-1.6-.9 0-1.6.7-1.6 1.6v.7h.5v-.7zm-5.8 1.7h.4v-1.4h-.4v1.4zm3.4 0h.4v-1.4h-.4v1.4zm3.4 0h.4v-1.4h-.4v1.4z"/><path fill="#E3E1DA" d="M573.4 279.3l3.9-2.8c1.3.5 2.7 1.4 2.7 2.4l15.7 30.1c0 1.1-1.2 2-2.8 2.2l-16 1.5c-7.1.7-14.1 1.8-20.9 3.2l-7.5 1.6c-1.7.3-3.4.2-4.8-.5l-4.4-8c-.3-.9-.3-1.3 0-2.3l-.9-4c.5-1.2 2.1-5.1 3.1-4.7l14.5-6.6 17.4-12.1zM479.6 91.5l8.5 5.2c1.7 1 2.9 3 2.9 5v34.2c0 2.2-1.6 4.1-3.7 4.4l-11.7 1.9c-9.4 1.5-18.7 3.7-27.8 6.5l-9.9 3.2c-2.2.7-4.5.3-6.4-.9l-7.2-5c-1.7-1.2-2.5-3.3-2.1-5.4L438.5 73c.6-2.5 3.4-3.6 5.5-2.4L470 86l9.6 5.5z"/><path fill-rule="evenodd" clip-rule="evenodd" fill="#CDDAE2" d="M863.5 652c1.4-2.3 2.5-4.7 3.3-7.3L872 629c.6-2 3.5-1.5 3.5.5V652h22.3v-42.7V604.6c-.6-28.5-11.3-47.3-23.8-61.4-19.5-21.9-66.7-60-66.7-60l-.2-.2c-11.4-10.1-26.2-15.6-41.4-15.6h-39.5c-12.8 0-13.5 17.2-1.4 17.2h17.5c4.4 0 8.8.8 12.7 2.8 12.6 6.2 18.3 20.2 14.5 33l-3.3 11c-1.7 5.7-5.2 10.7-10 14.3-2.8 2.1-5.6 4.1-7.7 5.7-13.7 9-30.8 15.4-52.9 20-3.5.7-7.5 1.4-12 2.1-.4 0-17.6 2.5-28.9 2.5h-.1c-.4 0-1.1 0-1.7-.9-.7-1-.2-1.8-.1-2.1l5.5-9.9 14.9-26c2.6-4.6 2-10.5-2-14-5.5-5-13.8-3.4-17.3 2.6l-25.7 44.8c-2.5 4.4-6.7 7.5-11.6 8.7-31.9 2.1-52.2 2.4-71 2.9-3.1 0-6.1-1.4-7.9-4.2-1-1.5-1.4-3.3-1.4-5.1v-74.2c0-5 4-9 9-9h47.5c21.3 0 38.7-17.3 38.7-38.7v-53.2c0-4.5 2.6-8.7 6.7-10.5 10.8-4.8 18.8-14 22.1-25.6 2.7-9.8 1.3-20.3-3.3-29.3l-63.1-123.9c-2.4-5.2-5.9-10.9-9.1-15.7-3.5-5.1-.8-12.2 5.2-13.9l36-9.9 52.6-14.3 11.5-3.2c4.1-1 8.5.1 11.5 3.1l4.9 4.9c3.5 3.5 8.4 5.2 13.4 4.6 5-.6 9.3-3.5 11.8-7.7l16.7-28.2c4.7-8 5.5-17.7 2.1-26.4l-3.5-8.9c-2.3-5.9-1.8-12.5 1.4-18.1l.8-1.4c3.1-5.4 9.4-7.9 15.4-6.2l6.5 1.9c9 2.6 18.8-.7 24.4-8.2L811 40.2h-11.6l-11.3 15c-3.3 4.4-9.1 6.4-14.5 4.9l-6.5-1.9c-10.1-2.9-20.8 1.5-26 10.5l-.8 1.4c-4.6 7.9-5.3 17.5-2 26.1l3.5 9c2.3 6 1.8 12.8-1.5 18.3l-16.6 28c-.8 1.3-1.9 2.4-3.4 3-2.6 1-5.4.4-7.3-1.5l-4.9-4.9c-5.3-5.3-13.2-7.5-20.5-5.6l-12.1 3.2-52.2 14.1-38.4 10.3c-3.1.8-6.3.2-8.9-1.7-6.4-4.8-15.3-11.3-18-13-10.1-6.4-20.9-11.5-32.3-14.7-1.3-.4-2.7-.7-4.1-1l-3.6-.9c-4.1-.8-8.4-1.4-12.7-1.7-3.7-.3-7.2-.4-10.9-.4-38.2 0-74.7 18.7-97.1 49.6L257.8 378.5c-9.7 13.2-23.9 21.5-40.2 23.2-16.3 1.8-32-3.2-44.3-14.1-12.4-10.9-19.4-26.6-19.4-43.1s7.1-32.1 19.5-43l99.1-87.2c26.4-23.2 31.3-62.7 11.4-91.9-17.6-25.8-49.7-36.6-79.1-26.9-.9.2-1.8.4-2.7.8l-98.7 38.4c-13.3 5.2-28.2 1.2-37.1-9.8l-33.1-41L0 42.8v48.8l42.5 52.6c12.3 15.2 30.4 23.5 49.1 23.5 6.9 0 13.9-1.1 20.7-3.5 5.3-1.9 10.5-3.9 15.9-6l84.1-32.7c17-6.6 36-.7 46.2 14.3 11.2 16.4 8.4 38.5-6.3 51.5l-98.7 86.9-.4.3c-19 16.7-29.9 40.8-29.9 66 0 25.3 10.8 49.4 29.7 66.1 16.2 14.3 37.1 22.2 58.5 22.2 3.1 0 6.3-.2 9.4-.5 24.6-2.7 47.1-15.7 61.7-35.7l111-152.5c3.1-4.2 7.9-6.7 13-6.7h30.6c11.3 0 22.1-4.6 30-12.6l9.2-9.5c7.4-7.7 17.6-12.2 28.2-12.4 14.9-.2 28.8 6.5 38 18.2 1.5 1.8 35.2 43.9 41.8 51.1l6.5 7.8c1.6 2.2 4 3.9 6.6 4.6l.3.1.5.1c2.2.5 4.1 1.8 5.1 3.8l1 2c2.1 4.2 4 7.9 4.8 9.6l23.2 45.5c1.8 3.5 1.7 7.6-.3 11.2-1.2 2.1-3.1 3.8-5.4 4.8-14.1 6.4-23.2 20.5-23.2 36v53.1c0 5.9-4.8 10.7-10.7 10.7h-47.5c-20.4 0-36.9 16.5-36.9 36.9v73.7c0 8.8 2.8 17.5 8.4 24.3 7.4 8.9 18.1 13.7 29.5 13.4 43.4-1.2 121.3-4.2 154.9-11.2 30.6-6.4 51.7-17.4 71.8-30.7 2-1.3 3.7-2.4 5.1-3.4 5.7-3.9 12.1-6.7 18.8-8.4 2.6-.4 5.3-.6 8-.6 7 .1 13.8 1.4 20.1 3.8 1.2.5 1.7 1.8 1.3 2.9-.5 1.3-2.1 1.9-3.3 1.2-.9-.5-1.8-.9-2.8-1.2-5.5-1.5-11.1-2.3-17.1-2.4-1.3 0-2.7.7-3.3 1.9-1.4 2.8.6 5.6 3.2 5.6 5.4.1 10.4.8 15.2 2.1 1.3.4 2.4 1.2 3 2.4.5 1.1.6 2.3.3 3.4l-10.7 29.2c-.9 2.4 0 5.2 2.3 6.2 2.6 1.3 5.7 0 6.6-2.7l14.5-40.4c.6-1.7 2.7-2.2 4.1-1.1l3.6 3c4.8 3.9 8.8 8.6 11.9 13.9l8.7 16.4c4.1 7.7 4.8 16.7 2.1 25l-4.6 13.9c-1.7 5-4.4 9.5-7.8 13.3h11.4zM578.8 197.9c-.4-.8-.7-1.7-1-2.6-1.1.9-2.3 1.6-3.6 2.1 1 1.4 2 2.7 2.9 4.1 1-.3 2-.5 3-.6l-1.3-3zm-75.1-5.2c18.4-.5 35.7 7.6 47 22.1.3.4 31.6 39.4 40.2 49.2l-21.8-42.8c-2.1-4.2-2-8.9 0-12.8-16.2-24.8-43.7-40-73.9-40-12.3 0-24.2 2.6-35.1 7.3-14.1 6.2-26.6 16-35.9 28.8l-14.6 19.8c-.8 1.1 0 2.8 1.4 2.8l26.1.1h.1c8.5 0 16.7-3.4 22.6-9.5l9.2-9.4c9.2-9.5 21.6-15.2 34.7-15.6zM807 541.6c0 .9.7 1.6 1.6 1.7 24.7 1.2 46.5 13.8 58.5 35.1.4.7 1.2.9 1.9.5s1-1.3.5-2l-2.7-5.6c-9.7-18.7-29.6-29.9-50.6-31.2-1.6-.1-4.8-.3-7.5-.3-.8.1-1.7.8-1.7 1.8z"/><path fill="#9D958C" d="M394.4 324v-1.5h-26.7v1.5h-3.3v-3h-9.1v3h-1.6v-1.5h-3.3v1.5h-10.1v7.6h1.1v2.1h56.2V324h-3.2zm-26-.9h25.3v.9h-25.3v-.9zm28.7 1.6v2.1h-19.2v2.4h19.2v1.8h-32.6v-6.3h32.6zm-18.6 2.7h2v1.1h-2v-1.1zm2.7 0h2.1v1.1h-2.1v-1.1zm2.8 0h2.1v1.1H384v-1.1zm2.8 0h2.1v1.1h-2.1v-1.1zm2.8 0h2.1v1.1h-2.1v-1.1zm2.8 0h2.1v1.1h-2.1v-1.1zm2.8 0h1.9v1.1h-1.9v-1.1zm-26.7 5.7h-1.7v-1.5h1.7v1.5zm.7-1.5h1.7v1.5h-1.7v-1.5zm2.3 0h1.7v1.5h-1.7v-1.5zm2.3 0h1.7v1.5h-1.7v-1.5zm2.4 0h1.7v1.5h-1.7v-1.5zm2.3 0h1.7v1.5h-1.7v-1.5zm2.3 0h1.7v1.5h-1.7v-1.5zm2.4 0h5.1l-2.9 1.5h-2.2v-1.5zm-19.4-3.1H356v-6.9h7.8v6.9zm-4.2 4.6h-1.4v-3.9h1.4v3.9zm.7-3.9h1.4v3.9h-1.4v-3.9zm-9.2-6.1h2v.9h-2v-.9zm-10.1 1.6h14.4v6.3H341v-6.3zm5 8.4h-1.7v-1.5h1.7v1.5zm.7-1.5h1.7v1.5h-1.7v-1.5zm2.3 0h1.7v1.5H349v-1.5zm2.4 0h1.7v1.5h-1.7v-1.5zm-9.3 0h1.7v1.5h-1.7v-1.5zm11.6 0h1.7v1.5h-1.7v-1.5zm2.4-2.4h1.5v3.9h-1.5v-3.9zm7.2 3.9h-1v-3.9h1.5v3.9h-.5zm1.2-1.5h1.7v1.5h-1.7v-1.5zm22.4 1.5l2.9-1.5h7.3v1.5h-10.2zm-44.9 5.7h.8l1.7 4.9 1.6-4.9h.8l2.1 6.5h-1l-1.5-4.8-1.5 4.8h-.9l-1.6-4.8-1.4 4.8H340l2-6.5z"/><path fill="#9D958C" d="M348.9 346.7l.6-.6c.2.1.3.2.5.2.4 0 .7-.2.9-.8l-1.8-4.7h1l1.3 3.5 1.1-3.5h1l-1.7 4.9c-.3.8-.8 1.4-1.8 1.4-.3 0-.8-.2-1.1-.4zm4.8-2l.5-.5c.2.2.6.5 1.2.5s1-.3 1-.7c0-.4-.2-.7-.9-.7h-.7v-.8h.7c.5 0 .8-.2.8-.6 0-.4-.4-.6-.8-.6-.5 0-.9.2-1.1.5l-.5-.5c.4-.3.9-.6 1.8-.6s1.7.5 1.7 1.2c0 .5-.3.8-.7 1 .5.2.8.6.8 1.1 0 .9-.8 1.4-1.9 1.4-1-.1-1.6-.4-1.9-.7zm4.2-1.7c0-1.4 1-2.4 2.2-2.4s2.2.8 2.2 2.6v.2h-3.5c.1.8.8 1.3 1.4 1.3.4 0 .8-.1 1.1-.5l.6.6c-.5.5-1.1.7-1.8.7-1.1-.2-2.2-1.1-2.2-2.5zm2.2-1.7c-.8 0-1.2.5-1.3 1.2h2.5c0-.6-.5-1.2-1.2-1.2zm3.9-.6v3.1l2.1-3.1h.8v4.6h-.9v-3.1l-2.1 3.1h-.8v-4.6h.9zm-.4-1.3l.5-.5c.2.2.5.5 1 .5s.8-.3 1-.5l.5.5c-.2.2-.7.8-1.5.8-.8-.1-1.3-.6-1.5-.8zm6.3 3.6c0-1.4 1-2.4 2.3-2.4.7 0 1.3.3 1.6.6l-.5.5c-.2-.2-.5-.4-1.1-.4-.8 0-1.4.7-1.4 1.6s.5 1.6 1.4 1.6c.5 0 .8-.2 1.1-.5l.5.5c-.4.4-.9.6-1.6.6-1.3.2-2.3-.7-2.3-2.1zm4.2 0c0-1.4 1-2.4 2.3-2.4s2.3 1 2.3 2.4-1 2.4-2.3 2.4c-1.2-.1-2.3-1-2.3-2.4zm3.7 0c0-.9-.5-1.6-1.4-1.6s-1.4.7-1.4 1.6c0 .9.5 1.6 1.4 1.6.8 0 1.4-.7 1.4-1.6zm1.8-2.3h2.2c.8 0 1.4.5 1.4 1.1 0 .5-.2.8-.6 1 .5.2.8.6.8 1.1 0 .8-.6 1.4-1.4 1.4h-2.3v-4.6zm2.7 1.2c0-.4-.3-.5-.6-.5h-1.2v1.1h1.2c.3.1.6-.2.6-.6zm.2 2c0-.5-.3-.6-.8-.6h-1.2v1.3h1.2c.5-.1.8-.3.8-.7zm1.8 3v-6.3h.9v.7c.3-.5.8-.8 1.5-.8 1.2 0 2.1 1 2.1 2.4s-.9 2.4-2.1 2.4c-.7 0-1.2-.4-1.5-.8v2.4h-.9zm2.2-2.3c.8 0 1.4-.7 1.4-1.6 0-.9-.5-1.6-1.4-1.6-.8 0-1.4.7-1.4 1.6.1.9.6 1.6 1.4 1.6zm2.9-1.6c0-1.4 1-2.4 2.2-2.4 1.2 0 2.2.8 2.2 2.6v.2h-3.5c.1.8.8 1.3 1.4 1.3.4 0 .8-.1 1.1-.5l.6.6c-.5.5-1.1.7-1.8.7-1.1-.2-2.2-1.1-2.2-2.5zm2.2-1.7c-.8 0-1.2.5-1.3 1.2h2.5c0-.6-.5-1.2-1.2-1.2zm4.7-.6l1.1 3.4 1.2-3.4h1l1.1 4.6h-1l-.8-3.3-1.1 3.3h-.8l-1.1-3.3-.8 3.3h-.9l1.1-4.6h1zm4.8 2.3c0-1.4 1-2.4 2.2-2.4s2.2.8 2.2 2.6v.2H402c.1.8.8 1.3 1.4 1.3.4 0 .8-.1 1.1-.5l.6.6c-.5.5-1.1.7-1.8.7-1.1-.2-2.2-1.1-2.2-2.5zm2.2-1.7c-.8 0-1.2.5-1.3 1.2h2.5c0-.6-.4-1.2-1.2-1.2zm3.9-.6v1.8h2v-1.8h.9v4.6h-.9v-2h-2v2h-.9v-4.6h.9zm5 0v1.8h2v-1.8h.9v4.6h-.9v-2h-2v2h-.9v-4.6h.9zm3.7 2.3c0-1.4 1-2.4 2.3-2.4 1.3 0 2.3 1 2.3 2.4s-1 2.4-2.3 2.4c-1.2-.1-2.3-1-2.3-2.4zm3.6 0c0-.9-.5-1.6-1.4-1.6-.8 0-1.4.7-1.4 1.6 0 .9.5 1.6 1.4 1.6.9 0 1.4-.7 1.4-1.6zm4.9-2.3l-.3.8h-1.8v3.8h-.9v-4.6h3zm.2 2.3c0-1.4 1-2.4 2.3-2.4 1.3 0 2.3 1 2.3 2.4s-1 2.4-2.3 2.4c-1.3-.1-2.3-1-2.3-2.4zm3.6 0c0-.9-.5-1.6-1.4-1.6-.8 0-1.4.7-1.4 1.6 0 .9.5 1.6 1.4 1.6.8 0 1.4-.7 1.4-1.6zm-86.8 7v3.1l2.2-3.1h.8v4.5h-.9v-3.1l-2.1 3.1h-.8V350h.8zm3.9 2.2c0-1.4 1-2.4 2.3-2.4.7 0 1.3.3 1.6.6l-.5.5c-.2-.2-.5-.4-1.1-.4-.8 0-1.4.7-1.4 1.6 0 .9.5 1.6 1.4 1.6.5 0 .8-.2 1.1-.5l.5.5c-.4.4-.9.6-1.6.6-1.3.3-2.3-.7-2.3-2.1zm5.5-2.2v1.8h.5l1.4-1.8h1l-1.6 2.1 1.9 2.4h-1.1l-1.5-2h-.6v2h-.9V350h.9z"/><path fill="#9D958C" d="M353.7 355.9l.6-.6c.2.1.3.2.5.2.4 0 .7-.2.9-.8L354 350h1l1.3 3.5 1.1-3.5h1l-1.7 4.9c-.3.8-.8 1.4-1.8 1.4-.4 0-.8-.1-1.2-.4zm5-3.7c0-1.4 1-2.4 2.3-2.4.7 0 1.3.3 1.6.6l-.5.5c-.2-.2-.5-.4-1.1-.4-.8 0-1.4.7-1.4 1.6 0 .9.5 1.6 1.4 1.6.5 0 .8-.2 1.1-.5l.5.5c-.4.4-.9.6-1.6.6-1.3.3-2.3-.7-2.3-2.1zm4.3 0c0-1.4 1-2.4 2.3-2.4.7 0 1.3.3 1.6.6l-.5.5c-.2-.2-.5-.4-1.1-.4-.8 0-1.4.7-1.4 1.6 0 .9.5 1.6 1.4 1.6.5 0 .8-.2 1.1-.5l.5.5c-.4.4-.9.6-1.6.6-1.3.3-2.3-.7-2.3-2.1zm4-1.5v-.7h3.9l-.3.8h-1.2v3.8h-.9v-3.8H367zm4.4-.7h2.2c.8 0 1.4.5 1.4 1.1 0 .5-.2.8-.6 1 .5.2.8.6.8 1.1 0 .8-.6 1.4-1.4 1.4h-2.3V350zm2.6 1.2c0-.4-.3-.5-.6-.5h-1.1v1.1h1.2c.3 0 .5-.3.5-.6zm.2 1.9c0-.5-.3-.6-.8-.6h-1.2v1.3h1.2c.4 0 .8-.2.8-.7zm1.5 0c0-.8.5-1.5 2-1.5.2 0 .6 0 .9.1v-.2c0-.5-.4-.9-1-.9-.5 0-1 .2-1.2.4l-.6-.6c.5-.4 1.1-.6 1.8-.6 1.1 0 1.8.6 1.8 1.7v3h-.9v-.5c-.3.4-.8.6-1.4.6-.8 0-1.4-.6-1.4-1.5zm2.9-.4v-.2c-.3 0-.6-.1-.8-.1-.8 0-1.2.3-1.2.8 0 .4.3.8.9.8.6-.1 1.1-.6 1.1-1.3zm4.7-1.8h1l-.9 1.8.9 1.8h-1l-.9-1.8.9-1.8zm1.9 0h1l-.8 1.8.8 1.8h-1l-.9-1.8.9-1.8zm6-2.9l-.3.9h-2.7v5.6h-1V348h4zm.2 5.1c0-.8.5-1.5 2-1.5.2 0 .6 0 .9.1v-.2c0-.5-.4-.9-1-.9-.5 0-1 .2-1.2.4l-.6-.6c.5-.4 1.1-.6 1.8-.6 1.1 0 1.8.6 1.8 1.7v3h-.9v-.5c-.3.4-.8.6-1.4.6-.7 0-1.4-.6-1.4-1.5zm2.9-.4v-.2c-.3 0-.6-.1-.8-.1-.8 0-1.2.3-1.2.8 0 .4.3.8.9.8.6-.1 1.1-.6 1.1-1.3zm2.1 3.5V350h.9v.7c.3-.5.8-.8 1.5-.8 1.2 0 2.1 1 2.1 2.4s-.9 2.4-2.1 2.4c-.7 0-1.2-.4-1.5-.8v2.4h-.9zm2.2-2.4c.8 0 1.4-.7 1.4-1.6 0-.9-.5-1.6-1.4-1.6-.8 0-1.4.7-1.4 1.6.1.9.6 1.6 1.4 1.6zm2.9-.7c0-.8.5-1.5 2-1.5.2 0 .6 0 .9.1v-.2c0-.5-.4-.9-1-.9-.5 0-1 .2-1.2.4l-.6-.6c.5-.4 1.1-.6 1.8-.6 1.1 0 1.9.6 1.9 1.7v3h-.9v-.5c-.3.4-.8.6-1.4.6-.9 0-1.5-.6-1.5-1.5zm2.9-.4v-.2c-.3 0-.6-.1-.8-.1-.8 0-1.2.3-1.2.8 0 .4.3.8.9.8.5-.1 1.1-.6 1.1-1.3zm1.6-2.7h1l1.4 1.8h.5V350h.9v1.8h.5l1.4-1.8h1l-1.6 2.1 1.8 2.4h-1.1l-1.4-2h-.5v2h-.9v-2h-.5l-1.5 2h-1.1l1.8-2.4-1.7-2.1zm7.1.9h1l.9 1.8-.9 1.8h-1l.8-1.8-.8-1.8zm1.8 0h1l.9 1.8-.9 1.8h-1l.8-1.8-.8-1.8z"/><path fill="none" stroke="#DBD9CC" stroke-width="10" d="M89 133.9C89 87.6 97.3 43.1 112.4 2m716 0c15.2 41.1 23.4 85.6 23.4 131.9 0 210.7-170.8 381.4-381.4 381.4-76.1 0-147-22.3-206.5-60.7M125.4 296.8c-16.4-34.6-27.7-72.1-33-111.5"/><path fill="none" stroke="#DBD9CC" stroke-width="10" d="M346.3 5.5c-29.2 31.4-47 73.5-47 119.8 0 45.7 17.4 87.4 46 118.7M610.7 12.7c25.4 30.5 40.7 69.8 40.7 112.6 0 7.5-.5 14.8-1.4 22.1M384.2 276c26.6 16.1 57.8 25.4 91.2 25.4 36.6 0 70.7-11.2 98.8-30.3m43.8-42.6c12.3-16.9 21.6-36.1 27.2-56.9"/><path fill="#9D958C" d="M421 126.8v4h1.4l2.9-4h1.7l-3.4 4.4 3.9 5.1h-1.8l-3.2-4.3H421v4.3h-1.4v-9.5h1.4zm7.1 12.1v-9.2h1.3v1c.4-.7 1.2-1.2 2.2-1.2 1.8 0 3.1 1.4 3.1 3.5 0 2-1.3 3.5-3.1 3.5-1 0-1.8-.6-2.2-1.2v3.5h-1.3zm3.3-3.6c1.2 0 2-1 2-2.3 0-1.3-.8-2.3-2-2.3s-2 1-2 2.3c0 1.3.8 2.3 2 2.3zm4.3-2.3c0-2.1 1.4-3.5 3.2-3.5 1.8 0 3.2 1.2 3.2 3.8v.2H437c.1 1.2 1.1 1.9 2.1 1.9.6 0 1.2-.2 1.7-.7l.9.9c-.7.7-1.7 1-2.7 1-1.8-.2-3.3-1.5-3.3-3.6zm3.2-2.3c-1.1 0-1.8.8-1.9 1.8h3.7c-.1-1.1-.7-1.8-1.8-1.8zm6.8-1.1l1.7 5.1 1.8-5.1h1.4l1.7 6.8h-1.4l-1.1-4.9-1.7 4.9h-1.3l-1.5-4.9h-.1l-1 4.9h-1.4l1.7-6.8h1.2zm6.8 6.7v-1.1s.2.1.3.1c.7 0 .8-.7.9-2 .1-1.9.2-3.7.2-3.7h5v6.8h-1.3v-5.6h-2.4c0 .7-.1 1.7-.1 2.5-.1 2.1-.7 3.2-1.9 3.2-.4-.1-.6-.2-.7-.2zm9.5-4.5h1.8c1.4 0 2.5.8 2.5 2.2 0 1.4-1.1 2.2-2.5 2.2h-3.1v-6.8h1.3v2.4zm2.9 2.3c0-.9-.7-1.2-1.4-1.2H462v2.4h1.4c.8-.1 1.5-.4 1.5-1.2zM467 112v1.3h-.7V112c0-.1-.1-.2-.2-.2s-.2.1-.2.2v1.3h-.7V112c0-.4.3-.9.9-.9.6.1.9.4.9.9zm-3.3-.8c-.4 0-.9.3-.9.9v1.3h.5v-1.3c0-.1.1-.2.2-.2s.2.1.2.2v1.3h.5v-1.3c.3-.6 0-.9-.5-.9zm-4 .8c0-.1.1-.2.2-.2s.2.1.2.2v1.3h.5V112c0-.4-.3-.9-.9-.9-.4 0-.9.3-.9.9v1.3h.5V112h.4zm2.8-15.5c0-.1.1-.2.2-.2s.2.1.2.2v1.3h.5v-1.3c0-.4-.3-.9-.9-.9-.4 0-.9.3-.9.9v1.3h.5v-1.3h.4zm-5.3 15.5c0-.1.1-.2.2-.2s.2.1.2.2v1.3h.5V112c0-.4-.3-.9-.9-.9-.4 0-.9.3-.9.9v1.3h.5V112h.4zm-4.5 0c0-.1.1-.2.2-.2s.2.1.2.2v1.3h.6V112c0-.4-.3-.9-.9-.9-.4 0-.9.3-.9.9v1.3h.5V112h.3zm24.1-2.2v8.2h-33.7v-5.1h1.4v-3.1h1v-5.3l-.1-.3-.5-1.9h.3v-.3c0-.4.2-.8.4-1v-3.7l-.1-1.1c-.8-.5-1.3-1.5-1.3-2.6 0-1 .3-1.9 1.1-2.6l1.7-1.8c.2-.2.4-.5.7-.9.2-.4.4-1 .4-1.5v-1.2h-.7v-.5h.7v-.6h.6v.6h.7v.5h-.7V87c0 .5.1 1.1.4 1.5.2.3.4.6.6 1l1.7 1.8c.6.8 1.1 1.6 1.1 2.6 0 1.1-.5 2-1.4 2.6l-.1 1.1v3.6c.2.2.4.5.4 1v.3h.4l-.8 2.7c.1.2.1.4.1.6 0 .5-.2 1-.7 1.3v.8h.5v-.6c0-.5.4-1.1 1-1.2 0-.4.2-.8.5-1V102c-.8-.3-1.3-1.1-1.3-2 0-.6.2-1.3.8-1.8l1.2-1.2c.2-.2.3-.3.4-.5.2-.3.2-.6.2-1v-.6h-.5v-.5h.5V93.8h.5v.4h.4v.5h-.4v.6c0 .3.1.6.2 1 .1.2.3.4.4.6l1.1 1.2c.2.2.3.4.4.8v-2.5l-.1-1c-.8-.4-1.2-1.3-1.2-2.3 0-.9.3-1.6.9-2.3l1.4-1.5c.2-.2.4-.4.5-.8.2-.3.3-.8.3-1.2v-.9h-.6V86h.6v-.6h.5v.6h.7v.6h-.7v.9c0 .4.1.9.3 1.2.1.1.1.2.2.3l2.6-10.5-.4-2.5h.1c-.4-.2-.7-.8-.7-1.2 0-.4.2-.9.4-1.2l.8-.8c.1-.1.2-.2.2-.3.1-.2.1-.3.1-.5v-1h-.7v-.5h.7v-.9h.5v.6h.7v.5h-.7v1.1c0 .2 0 .3.1.5.1.1.2.2.2.3l.6.8c.3.3.5.8.5 1.2 0 .5-.2 1-.7 1.3l-.4 2.5 3.7 14.7V98c.4.5.8 1.2.8 1.8 0 .8-.3 1.4-1 1.8v3.7c.1.2.2.4.2.8.5.1 1 .6 1 1.2v.4h.5V103l-.1-.3-.5-1.9h.3v-.3c0-.6.4-1.1 1-1.2V97l-.1-1c-.8-.4-1.2-1.3-1.2-2.3 0-.9.3-1.6.9-2.2l1.4-1.5c.2-.2.4-.4.5-.8.2-.3.3-.8.3-1.2v-.9h-.7v-.5h.7V86h.5v.6h.6v.5h.2v.9c0 .4.1.9.3 1.2.2.3.3.5.5.8l1.4 1.5c.5.6.9 1.4.9 2.3 0 1-.5 1.8-1.3 2.3l-.1 1v2.2c.5.1 1 .6 1 1.2v.3h.3l-.6 2.3v6.8h2.4zm-2.2 0v-6.5h-1.1v1.3h-.5v-1.3h-1.3v1.3h-.6v-1.3h-1v5.5h1.5l.9-2.2h.4l.1.2 1.2 3h.4zm-2.2 4.3c0-.2-.2-.4-.4-.4s-.4.2-.4.4v3.2h2.5v-3.2c0-.2-.2-.4-.4-.4s-.4.2-.4.4v.3h-.5v-.3h-.4zm2 0v3.2h.4v-5.2h-4.6v5.2h.4v-3.2c0-.5.4-1.1 1.1-1.1.3 0 .5.1.8.3.2-.2.4-.3.8-.3.7 0 1.1.6 1.1 1.1zm-8.4 2.8c0-.5-.4-1-1-1-.5 0-1 .4-1 1v.4h1.8v-.4h.2zm.5 0v.4h3.1v-1l-1.6-1.7h-6v2.7h1.3v-.4c0-.9.7-1.5 1.5-1.5 1 0 1.7.8 1.7 1.5zm-20.8-14l.4 1.6v4.2h2v-1.8c-.4-.3-.7-.8-.7-1.2 0-.4.2-.9.4-1.2l.8-.8c.1-.1.2-.2.2-.3.1-.1.1-.3.1-.4h-3.2v-.1zm4 0c0 .1 0 .3.1.4.1.1.2.2.2.3l.6.6.4-1.5h-1.4v.2zm-.7-.8c0-.3-.3-.6-.6-.6s-.7.3-.7.6v.3H449v-.3zm-2.9 7.7h22l2.1 1.8h.3l.9-2.3h-25.3v.5zm23.5-8.5l.3 1.4h4.7l.4-1.4h-.5v.5h-.7v-.5h-1.3v.5h-.5v-.5h-1.3v.5h-.7v-.5h-.4zm3.4-1c0-.3-.3-.6-.6-.6s-.7.3-.7.6v.3H473v-.3zm-11.5 10.1h-5.7v3.7h5.7v-3.7zm.7 3.7h6.2l1.4 1.5v-3.5l-2-1.6h-5.6v3.6zm-6.4 3.2h5.7v-2.7h-5.7v2.7zm18.5-5.7l-1.6-4-1.6 4h3.2zm0-11.9c-.3 0-.7.3-.7.6v.3h1.3v-.3c.1-.3-.3-.6-.6-.6zm-2.4-9.6l1.8 2c.8.9 1.1 1.9 1 2.9.3-.3.5-.9.5-1.4 0-.6-.2-1.3-.8-1.8l-1.4-1.5c-.2-.2-.4-.5-.7-.9l-.1-.2-.1.2c0 .4-.1.5-.2.7zm-.8 1l1.5 1.7c.8.9 1 2 .5 3 .3 0 .6-.1.9-.2.3-1.1 0-2.3-.8-3l-1.8-2-.3.5zm-.9.8l1.2 1.4c.6.8.6 1.7.2 2.5h.9c.4-.9.3-1.9-.3-2.7l-1.5-1.7-.5.5zm-.6 2.2c0 .2.1.5.2.9.1-.4.1-.7-.2-.9zm1.3 1.6c.5-.5.5-1.4 0-2l-1.1-1.3c-.1.2-.2.4-.2.6l.4.5c.4.4.5 1.2.2 1.7.3.3.5.5.7.5zm-.1.7l.1.6v2.3c.2.1.4.2.5.3.2-.2.5-.4 1-.4.4 0 .8.2 1 .4.1-.2.3-.3.5-.4V97l.1-.6c-.2.1-.5.1-.8.1h-1.5c-.3 0-.6-.1-.9-.1zm-.9 4.3h1.3v-.3c0-.3-.3-.6-.7-.6-.3 0-.7.3-.7.6v.3zm-2.1 5.9c-.3 0-.6.3-.6.6v.4h1.3v-.4c-.2-.3-.4-.6-.7-.6zm-14.4-.1c.2-.2.4-.3.6-.4 0-.3-.3-.6-.6-.6s-.6.3-.6.6c.1 0 .3.2.6.4zm2-5c-.3-.6-.3-1.4.2-1.9l.7-.6c-.1-.1-.1-.2-.2-.3l-.1-.2-1 1.1c-.5.6-.5 1.5 0 2.2 0-.3.2-.3.4-.3zm1-2l-.4.4c-.2.3-.3.6-.2 1.1.1-.3.3-.6.6-.9v-.2-.4zm2-4.2l-.2-.6c-.3-1-.3-1.9-.1-2.9l.3-1.5V90l-.9 1.4c-.7 1-.5 2.3.1 3.2l.4.6h.4zm4.6-16.6l-.1.5c.1.2.3.3.5.3s.3-.1.5-.2l-.1-.5h-.8v-.1zm.8-1.3h-1l.1.6h.6l.3-.6zm-2.3 7.1l.8 1.8 1.1-2.6 1.1 2.6.8-1.8L464 80c-.2.1-.4.2-.7.2-.2 0-.5-.1-.6-.2l-1.2 4.5zm5.9 9.1h-5c0 .2-.1.4-.2.6h5.1v-.6h.1zm.7 6.1l-.2.2.1.2v-.2l.1-.2zm-1.3 5.7c-.3 0-.6.3-.6.6.2.1.4.2.6.4.2-.2.4-.3.6-.4.1-.3-.3-.6-.6-.6zm-1.2.6c0-.3-.3-.6-.6-.6s-.7.3-.7.6c.2.1.4.2.7.4.1-.1.3-.3.6-.4zm-1-8l.4.4.4-.5-.4-.4-.4.5zm2.1 2.4l.4-.5-.4-.5-.4.5.2.2c.1.1.1.2.2.3zm-.3-1.5l-.4-.5-.4.5.4.5.4-.5zm-1.1 1.2l.2-.2-.4-.5-.4.5.4.5c0-.1.1-.2.2-.3zm-1.1-1.6c-.1.1-.2.3-.3.5l.3.4.4-.5-.4-.4zm-.5 1.6l.2-.2-.2-.2v.4zm.9 1.3c0-.1.1-.3.1-.4l-.5-.6c-.1.2-.2.3-.2.5.1.2.3.4.6.5zm1.5.1c.1-.2.1-.4.3-.6-.1-.1-.2-.3-.3-.4l-.1-.2-.1.2c-.1.1-.2.2-.3.4l.3.6h.2zm1.7-.6c-.1-.2-.1-.3-.2-.5l-.6.6c.1.1.1.3.1.4.3-.1.6-.3.7-.5zm.1-1.9c-.1-.2-.2-.4-.3-.5l-.4.4.4.5.3-.4zm-.8-.9l-.4-.5-.3.4.4.5.3-.4zm-.8-1c-.1-.1-.2-.3-.3-.4-.1.2-.2.3-.3.4l.4.4.2-.4zm-3.9-6c.2-.2.5-.3 1-.3.3 0 .7.1 1 .3v-.2c0-.5-.4-1-1-1-.5 0-1 .4-1 1v.2zm2.5 1.8h1.8v-.6c0-.5-.4-1-1-1-.5 0-1 .4-1 1v.6h.2zm.9-3c-.5 0-1 .4-1 1v.2c.2-.2.5-.3 1-.3.3 0 .6.1 1 .3v-.2c-.1-.6-.4-1-1-1zm-1.5-.4c0-.5-.4-1-1-1-.5 0-1 .4-1 1v.2c.2-.2.5-.3 1-.3.3 0 .7.1 1 .3v-.2zm-2.5 1.4c0-.5-.4-1-1-1h-.2l.9 1v.1l.2.1v-.2h.1zm.6 1.8v.2h1.8v-.6c0-.5-.4-1-1-1-.5 0-1 .4-1 1l.2.4zm4.1-3.2l-.2-.9c-.1-.1-.2-.1-.4-.1-.5 0-1 .4-1 1v.2c.2-.2.5-.3 1-.3.2 0 .4 0 .6.1zm-1.6-2.6h1l-.3-1.4-.7 1.4zm-1.6-1.5l-.6 1.5h1.2l-.6-1.5zm-2 .1l-.3 1.3h.9l-.6-1.3zm-.4 1.9l-.1.5h.2c.5 0 1 .2 1.2.6.3-.4.8-.6 1.2-.6.5 0 1 .2 1.2.6.3-.4.8-.6 1.2-.6h.2l-.1-.5h-5zm-.6 2.1c.2-.1.4-.1.5-.1.3 0 .6.1 1 .3v-.2c0-.5-.4-1-1-1-.1 0-.2 0-.4.1l-.1.9zm-1.1 2.2l-.3-1.2-.3 1.2c-.2.9-.2 1.7.1 2.6l.2.8.2-.8c.3-.7.3-1.7.1-2.6zm.6 2.8l-.2.6h.2l.4-.6c.7-1 .7-2.3.1-3.2l-.9-1.4v.2l.4 1.5c.3 1 .3 2 0 2.9zm.8.6c.8-.3 1.2-1.1 1.2-1.9 0-.6-.2-1.3-.8-1.8l-.4-.4.1.1c.8 1.2.6 2.7-.1 3.9v.1zm.6.3l-.1 1v3.7c.5.1 1 .6 1 1.2v.3h.1l-.3 1.6v4.6h1v-.5c0-.5.4-1.1 1-1.2 0-.2.1-.4.2-.6v-3.7c-.2-.2-.4-.4-.5-.6-.2-.3-.3-.6-.3-1.1 0-.6.2-1.3.8-1.8l1.2-1.2c.2-.2.3-.3.4-.5.2-.3.2-.6.2-1V95H462c-.3.1-.6.3-.8.4zm-4.7 7.4h4.7l.1-.8h-5l.2.8zm.1 1.1l1 3.2 1.2-3.8h-2.2v.6zm2.4-.4l1.2 3.7 1-3.2v-.4H459zm1.1-2.3v.3h1.3v-.3c0-.3-.3-.6-.6-.6-.4 0-.7.3-.7.6zm-.5 0c0-.3-.3-.6-.6-.6s-.7.3-.7.6v.3H459.6v-.3zm-2 0c0-.3-.3-.6-.7-.6-.3 0-.6.3-.6.6v.3h1.3v-.3zm-1.7 4.8c0-.3-.3-.6-.7-.6-.3 0-.6.3-.6.6.2.1.4.2.6.4.2-.1.4-.3.7-.4zm-2.2 1.2v.4h1.3v-.4c0-.3-.3-.6-.6-.6-.5 0-.7.3-.7.6zm1.8.5h.4v-1.1c-.3.1-.4.3-.4.6v.5zm1.1 0h.5l-.5-1.7v1.7zm1.4 0h1.6l-.9-2.7-.7 2.7zm2.6 0h.5v-1.8l-.5 1.8zm2.7 0h1.3v-.4c0-.3-.3-.6-.6-.6s-.7.3-.7.6v.4zm1.9-.5v.4h1.3v-.4c0-.3-.3-.6-.6-.6-.4 0-.7.3-.7.6zm1.9-5.1c-.2.1-.4.1-.7.1h-1.3c-.2 0-.5 0-.8-.1v2.9c.1 0 .3-.1.4-.1.3 0 .8.2 1 .4.2-.2.5-.4 1-.4.1 0 .2 0 .4.1v-2.9zm.3-4.7v-2.7h-1.2v.6c0 .3.1.6.2 1 .1.2.3.4.4.6l.6.5zM462 74.7c0 .5.4.9.9.9h.8c.5 0 .9-.4.9-.9 0-.3-.1-.5-.3-.8l-.7-.8-.3-.3c-.1.1-.2.2-.2.3l-.8.8c0 .2-.3.5-.3.8zm.7 1.4l.1.6h1.1l.1-.6h-1c-.1.1-.2.1-.3 0zm-5.4 19l-.1-.1c-.8-1.2-.9-2.7-.1-3.9l.1-.1-.3.4c-.4.5-.8 1.1-.8 1.8 0 .8.4 1.4 1.2 1.9zm0 .6l.1.6v3.8c.2.1.4.2.5.3.2-.2.5-.4 1-.4.4 0 .8.2 1 .4.1-.2.3-.3.6-.4v-3.7l.1-.6c-.2.1-.5.1-.8.1h-1.5c-.4 0-.7 0-1-.1zm-2.4 1.7l-1.3 1.5c-.7.8-.8 1.7-.3 2.6h.8c-.4-.9-.3-1.8.3-2.6l1-1.1-.5-.4zm-2.4 3.8c-.2-.9 0-1.8.6-2.6l1.4-1.5c-.1-.1-.2-.2-.2-.4-.1.2-.3.4-.5.6l-1.2 1.2c-.3.4-.5.9-.5 1.4-.1.5.1 1 .4 1.3zm.6 3.7h.1c.3 0 .8.2 1 .4.2-.2.5-.4 1-.4.3 0 .5.1.8.3v-2l-.2-1.2c-.3.1-.7.2-1 .2h-1.6v2.7zm-1.4 2.8h1.3v-.4c0-.3-.3-.6-.6-.6s-.7.3-.7.6v.4zm-1.2.6v.4h18.9v-.4h-18.9zm-.5-1.2h-1.3v1.6h1.3v-1.6zm.7-1.4c0-.3-.1-.5-.3-.9l-.7-.8-.3-.3c-.1.1-.2.2-.2.3l-.8.8c-.2.2-.3.5-.3.9 0 .5.4.9.9.9h.8c.4 0 .9-.5.9-.9zm.2-3.3v-.3c0-.3-.3-.6-.6-.6s-.6.3-.6.6v.3h1.2zm1.1-8.5v-.5l-.5.6c-.4.4-.4 1.2 0 1.6.2-.5.5-1.1.5-1.7zm-.7-2.1l-1.5 1.7c-.6.6-.6 1.7 0 2.4l.3.3c.2-.1.5-.2.8-.4-.6-.6-.6-1.7 0-2.4l.9-.9c-.2-.1-.3-.3-.5-.7zm-1.9 4.7c-.9-1-.9-2.4 0-3.2l1.5-1.7-.5-.6-1.8 2.2c-.9 1-.9 2.5-.1 3.6h1v-.3zm0-6.6l-.1-.1-2.2 2.5c-1 1.1-1.2 2.6-.6 4 .3.1.6.2 1.1.2h.1c-.8-1.2-.7-2.8.3-3.9l2-2.2-.6-.5zm-3.7 5.7c-.3-1.3.1-2.8 1-3.8l2.3-2.6c-.1-.1-.2-.3-.3-.4-.1-.1-.1-.2-.2-.4 0 .1-.1.2-.2.4-.2.3-.4.6-.8 1l-1.7 1.8c-.5.6-.9 1.4-.9 2.3 0 .6.2 1.3.8 1.7zm.8 5.2c.3 0 .8.2 1 .4.2-.2.5-.4 1-.4.4 0 .8.2 1 .4.2-.3.5-.4 1-.4h.2v-3.2l.1-.8c-.3.1-.8.2-1.2.2h-1.8c-.4 0-.9-.1-1.3-.2l.1.6v3.4zm-.6 1.6h1.3v-.3c0-.3-.3-.6-.7-.6-.3 0-.6.3-.6.6v.3zm-.8 8v2.5h5.5v4.4h4.6v-6.9H445.1zm-1.5 6.9h3.3v-1.4c0-.6.5-1.2 1.2-1.2.6 0 1.2.5 1.2 1.2v1.4h.6v-3.9h-6.4v3.9h.1zm5.1-1.4c0-.3-.3-.6-.6-.6s-.7.3-.7.6v1.4h1.3v-1.4zm27.5-5.6h-1.7l.5 1.3h.5v5.7h.6v-7zm-10.4-7.6c-.2 0-.3.1-.3.3v1.2h.7V103c0-.2-.1-.3-.4-.3zm-11.1 1.1v-.6c0-.2-.1-.3-.3-.3-.2 0-.3.1-.3.3v1.2h.5v-.6h.1zm-5.5-5v-.6c0-.2-.1-.3-.3-.3-.2 0-.3.1-.3.3v1.6h.5v-1h.1zm-1 0v-.6c0-.2-.1-.3-.3-.3-.2 0-.3.1-.3.3v1.6h.5v-1h.1zm11.6-.8v-.6c0-.2-.1-.3-.3-.3-.2 0-.3.1-.3.3V99h.5v-1h.1zm-1.2 0v-.6c0-.2-.1-.3-.3-.3-.2 0-.3.1-.3.3V99h.5v-1h.1zm-13 16.8v1.6h.7v-1.6h-.7zm-1.1.1v1.5h.7v-1.6h-.7v.1zm13.1 1.9h.5v-1.5h-.5v1.5zm-1.1 0h.5v-1.5h-.5v1.5zm8.1-33.1h-.5v1h.5v-1zm-2 0h-.6v1h.5v-1zm1.1-2.8h-.5v1h.5v-1zm0 1.5h-.5v1h.5v-1zm-10.6 34.4h.5v-1.5h-.5v1.5zm-.4-1.5h-.5v1.5h.5v-1.5zm7.5 1.5h.5v-1.5h-.5v1.5zm-1.2 0h.5v-1.5h-.5v1.5zm-8.5-5.4h-4.3v.5h4.3v-.5zm22.7-13.8v-.3c0-.2-.1-.3-.3-.3-.2 0-.3.1-.3.3v1.3h.6v-1zm-1.1 0v-.3c0-.2-.1-.3-.3-.3-.2 0-.3.1-.3.3v1.3h.5v-1h.1z"/><path fill="#E3E1DA" d="M498.5 127.9l-3.8 15.2-1.1 5.3.1 2c.1.8.7 1.3 1.3 1.6.3.2.7.3 1.2.3.6 0 1.2-.2 1.7-.7l22.1-23-1.4-1.2-12.1 12.6-6.9 7.3-3.3-2.1 1.1-4.4 3-12.5-1.5-.2-.4-.2z"/><path fill="#9D958C" d="M495.4 153.1l-.9-.3c-1.2-.7-1.8-2.1-1.5-3.5l5-22.4 1.1-1.6-5.4 24.1c-.3 1.3.5 2.3 1.2 2.7s1.9.5 2.8-.4l23.1-24.9-.6 1.7-22 23.8c-.7.7-1.8 1-2.8.8z"/><path fill-rule="evenodd" clip-rule="evenodd" fill="#9D958C" d="M499.3 147.3c-.1 0-.2-.1-.3-.1l-1.8-1c-.5-.3-.7-.8-.6-1.4L501 126l.3 1.8-1.1 4.8 1.1.2-.8 3.7-1.2-.2-2 8.7c-.1.2.1.4.3.5l1.8 1c.2.1.4.1.6-.1l6.3-6.4-.8-.8 2.6-2.7.8.8 10.3-10.6 1.6-.6-20.3 20.9c-.3.3-.8.4-1.2.3z"/><path fill="#9D958C" d="M521.9 97.4v9.5h-1.3v-8.3h-5v8.3h-1.4v-9.5h7.7zm1.6 7.6c0-1.1.8-2.2 3-2.2.3 0 .9 0 1.3.1v-.3c0-.8-.6-1.3-1.4-1.3-.8 0-1.4.3-1.8.6l-.9-.9c.7-.6 1.7-.9 2.7-.9 1.7 0 2.7.9 2.7 2.4v4.4h-1.3v-.8c-.4.6-1.1.9-2 .9-1.5.2-2.3-.8-2.3-2zm4.3-.7v-.3c-.4 0-.9-.1-1.2-.1-1.2 0-1.8.4-1.8 1.1 0 .6.4 1.1 1.3 1.1.9-.1 1.7-.7 1.7-1.8zm2.9 5.2v-9.2h1.3v1c.4-.7 1.2-1.2 2.2-1.2 1.8 0 3.1 1.4 3.1 3.5s-1.3 3.5-3.1 3.5c-1 0-1.8-.6-2.2-1.2v3.5h-1.3zm3.3-3.5c1.2 0 2-1 2-2.3 0-1.3-.8-2.3-2-2.3s-2 1-2 2.3c0 1.3.9 2.3 2 2.3zm6-5.7v2.7h.9l2.1-2.7h1.4l-2.4 3 2.9 3.7h-1.7l-2.2-2.9h-1v2.9h-1.3v-6.6h1.3zm-25.2 14.9h1.4l-1.3 2.7 1.3 2.7h-1.4l-1.3-2.7 1.3-2.7zm2.8 0h1.4l-1.2 2.7 1.2 2.7h-1.4l-1.3-2.7 1.3-2.7zm2 4.3l.9-.9c.7.6 1.4.9 2.4.9 1.3 0 2.1-.7 2.1-1.7s-.8-1.6-2-1.6h-1.3v-1.1h1.3c1.1 0 1.8-.6 1.8-1.6 0-.9-.8-1.4-1.8-1.4s-1.8.4-2.3.9l-.9-.9c.8-.8 1.9-1.2 3.3-1.2 2.1 0 3.1 1.2 3.1 2.4 0 1-.6 1.8-1.4 2.1.9.3 1.7 1.2 1.7 2.3 0 1.5-1.3 2.9-3.5 2.9-1.4.1-2.5-.3-3.4-1.1zm7.8-1c0-1.1.8-2.2 3-2.2.3 0 .9 0 1.3.1v-.4c0-.8-.6-1.3-1.4-1.3-.8 0-1.4.3-1.8.6l-.9-.9c.7-.6 1.7-.9 2.7-.9 1.7 0 2.7.9 2.7 2.4v4.4h-1.3v-.8c-.4.6-1.1.9-2 .9-1.3.3-2.3-.7-2.3-1.9zm4.4-.7v-.3c-.4 0-.9-.1-1.2-.1-1.2 0-1.8.4-1.8 1.1 0 .6.4 1.1 1.3 1.1s1.7-.7 1.7-1.8zm3 5.2v-9.2h1.3v1c.4-.7 1.2-1.2 2.2-1.2 1.8 0 3.1 1.4 3.1 3.5s-1.3 3.5-3.1 3.5c-1 0-1.8-.6-2.2-1.2v3.5h-1.3zm3.3-3.5c1.2 0 2-1 2-2.3s-.8-2.3-2-2.3-2 1-2 2.3c-.1 1.3.8 2.3 2 2.3zm4.4-3.6c0-1.3 1.1-2.1 2.3-2.1h3v6.8h-1.3v-2.4h-1.2l-1.7 2.4H542l1.9-2.7c-.8-.2-1.4-1-1.4-2zm2.6-1c-.7 0-1.2.3-1.2 1s.6 1 1.2 1h1.4v-2.1h-1.4v.1zm4.2 4.6c.4-.3.7-1.1.8-2.2.2-2.1.3-3.4.3-3.4h4.4v5.6h.9v2.7h-1.2v-1.6H550v1.6h-1.2v-2.7h.5zm4.2 0V115h-2c0 .7-.1 1.5-.2 2.5-.1.8-.3 1.4-.6 2h2.8zm4.8-3.5h1.8c1.4 0 2.5.8 2.5 2.2 0 1.4-1.1 2.2-2.5 2.2H557v-6.8h1.3v2.4zm2.8 2.3c0-.9-.7-1.2-1.4-1.2h-1.4v2.4h1.4c.8 0 1.4-.4 1.4-1.2zm2-1.1c0-2.1 1.4-3.5 3.2-3.5 1.8 0 3.2 1.2 3.2 3.8v.2h-5.1c.1 1.2 1.1 1.9 2.1 1.9.6 0 1.2-.2 1.7-.7l.9.9c-.7.7-1.7 1-2.7 1-1.7-.1-3.3-1.4-3.3-3.6zm3.4-2.4c-1.1 0-1.8.8-1.9 1.8h3.7c-.2-.9-.8-1.8-1.8-1.8zm3.9.4h1.4l1.3 2.7-1.3 2.7h-1.4l1.2-2.7-1.2-2.7zm2.8 0h1.4l1.3 2.7-1.3 2.7h-1.4l1.2-2.7-1.2-2.7zm-66 2.6c0-1.5-1.1-2.7-2.6-2.7-1.4 0-2.6 1.2-2.6 2.6v.1c-1.1.3-1.8 1.2-1.8 2.4 0 1.3 1.1 2.5 2.4 2.5.4 0 .8-.1 1.2-.3v3h1.2v-4.9h.7v2c.2.1.5.1.9.1 1.3 0 2.4-1.1 2.4-2.5 0-1.1-.7-2-1.8-2.3zm66.7 171.9v-.1c0-1.4-1.1-2.6-2.6-2.6-1.4 0-2.6 1.2-2.6 2.6v.1c-1.1.3-1.8 1.2-1.8 2.4 0 1.3 1.1 2.5 2.4 2.5.4 0 .8-.1 1.2-.3v3h1.2v-4.9h.7v2c.2.1.5.1.9.1 1.3 0 2.4-1.1 2.4-2.5 0-1-.7-2-1.8-2.3zM539 324.6h.2c.3 0 .5-.1.7-.2.2-.2.3-.5.4-.9.1-.5.1-1.1.1-2v-2.3h4.2v6.3h-.8V320h-2.7v1.7c0 1-.1 1.8-.2 2.4-.1.6-.3.9-.6 1.1-.3.2-.6.3-1.1.3h-.2v-.9zm10.1.8v-.5h-.2c-.3.4-.8.6-1.4.6-.5 0-.9-.1-1.2-.4-.3-.3-.4-.6-.4-1s.1-.7.4-1c.3-.3.7-.4 1.3-.4h1.5v-.2c0-.3-.1-.5-.3-.7-.2-.2-.5-.3-.8-.3-.7 0-1 .2-1.1.6h-.8c0-.4.2-.7.5-.9.3-.2.8-.3 1.3-.3.6 0 1 .1 1.4.4.3.3.5.6.5 1.1v3h-.7zm-1.5-.6c.4 0 .7-.1 1-.4.3-.2.4-.5.4-.9v-.4h-1.4c-.7 0-1.1.3-1.1.8 0 .3.1.4.3.6.2.3.5.3.8.3zm7.6.6h-.8v-1.9h-2.5v1.9h-.8V321h.8v1.8h2.5V321h.8v4.4zm5.6-.7h.8v1.9h-.7v-1.3H557v1.3h-.7v-1.9h.6c.4-.8.6-1.6.6-2.6V321h3.4v3.7zm-.8 0v-3.1h-2v.6c0 1-.2 1.9-.5 2.6h2.5zm7.7-3.7h.7v4.4h-5.8V321h.7v3.8h1.8V321h.7v3.8h1.8V321zm5.1 4.4v-.5h-.2c-.3.4-.8.6-1.4.6-.5 0-.9-.1-1.2-.4-.3-.3-.4-.6-.4-1s.1-.7.4-1c.3-.3.7-.4 1.3-.4h1.5v-.2c0-.3-.1-.5-.3-.7-.2-.2-.5-.3-.8-.3-.7 0-1 .2-1.1.6h-.8c0-.4.2-.7.5-.9.3-.2.8-.3 1.3-.3.6 0 1 .1 1.4.4.3.3.5.6.5 1.1v3h-.7zm-1.5-.6c.4 0 .7-.1 1-.4.3-.2.4-.5.4-.9v-.4h-1.4c-.7 0-1.1.3-1.1.8 0 .3.1.4.3.6.3.3.5.3.8.3zm6.5.6v1.8h-.8v-1.8h-.1c-.7 0-1.3-.2-1.7-.6-.4-.4-.6-.9-.6-1.6 0-.7.2-1.2.6-1.6.4-.4.9-.6 1.7-.6h.2v-2h.8v2h.1c.7 0 1.2.2 1.6.6.4.4.6.9.6 1.6 0 .7-.2 1.2-.6 1.6s-1.1.6-1.8.6zm-2-3.4c-.3.3-.4.7-.4 1.1 0 .5.1.8.4 1.1.3.3.6.4 1.1.4h.1v-3.2h-.1c-.5.2-.9.3-1.1.6zm2 2.7h.1c.5 0 .9-.1 1.1-.4.3-.3.4-.7.4-1.1 0-.5-.1-.8-.4-1.1-.3-.3-.6-.4-1.1-.4h-.1v3zm3-3.1v-.6h3.9v.6h-1.6v3.8h-.8v-3.8h-1.5zm9 3.8h-.8v-1.9h-2.5v1.9h-.8V321h.8v1.8h2.5V321h.8v4.4zm1.4-4.4h.8v1.5h1.3c.5 0 1 .1 1.3.4.3.3.4.6.4 1.1 0 .5-.1.8-.4 1.1-.3.3-.7.4-1.3.4h-2V321zm.8 2.1v1.7h1.1c.4 0 .7-.1.8-.2.2-.1.2-.3.2-.6s-.1-.5-.2-.6c-.2-.1-.4-.2-.8-.2H592zm3.7-2.1h.8v4.4h-.8V321zm3.3 4.4h-1.1V321h.7v3.4h.2l2-3.4h1.1v4.4h-.7V322h-.2l-2 3.4zm1.7-6.4h.6c0 .4-.1.7-.4.9-.2.2-.6.3-1 .3s-.8-.1-1-.3c-.2-.2-.4-.5-.4-.9h.6c0 .5.3.7.8.7.5.1.8-.2.8-.7zm-57.1 14.2h-.8v-3.8h-2.5v3.8h-.8v-4.4h4v4.4zm4.4 0v-.5h-.2c-.3.4-.8.6-1.4.6-.5 0-.9-.1-1.2-.4-.3-.3-.4-.6-.4-1s.1-.7.4-1c.3-.3.7-.4 1.3-.4h1.5v-.2c0-.3-.1-.5-.3-.7-.2-.2-.5-.3-.8-.3-.7 0-1 .2-1.1.6h-.8c0-.4.2-.7.5-.9.3-.2.8-.3 1.3-.3.6 0 1 .1 1.4.4.3.3.5.6.5 1.1v3h-.7zm-1.4-.5c.4 0 .7-.1 1-.4.3-.2.4-.5.4-.9v-.4h-1.4c-.7 0-1.1.3-1.1.8 0 .3.1.4.3.6.2.2.4.3.8.3zm5.7-3.3c-.5 0-.8.2-1.1.5-.2.3-.4.7-.4 1.2s.1.9.4 1.2c.2.3.6.5 1.1.5.4 0 .8-.2 1-.5.2-.3.4-.7.4-1.2s-.1-.9-.4-1.2c-.2-.4-.5-.5-1-.5zm-2.2-.6h.7v.5h.2c.3-.4.8-.6 1.4-.6.6 0 1.1.2 1.5.7.4.4.5 1 .5 1.7s-.2 1.2-.5 1.7c-.4.4-.8.6-1.5.6-.6 0-1.1-.2-1.4-.6h-.2v2.2h-.8v-6.2zm8.7 4.4l-1-1.9h-1.4v1.9h-.8v-4.4h.8v1.8h1.4l.9-1.8h.8l-1.1 2.1 1.2 2.3h-.8zm49.3-147.9h.5v.5h-.5v-.5zm-14.6 2.8h-.5v.5h.5v-.5zm14.6-3.2h.5v-.5h-.5v.5zm-15.4 3.2h-.5v.5h.5v-.5zm15.4 1.1h.5v-.5h-.5v.5zm0-2.5h.5v-.5h-.5v.5zm0 .8h.5v-.5h-.5v.5zm0 .8h.5v-.5h-.5v.5zm0-4.2h.5v-.5h-.5v.5zm0 6h.5v-.5h-.5v.5zm.8 1.9h.5v-.5h-.5v.5zm-13.4 0h-.5v.5h.5v-.5zm0 .9h-.5v.5h.5v-.5zm0 1.7h-.5v.5h.5v-.5zm0-.4v-.5h-.5v.5h.5zm0-3h-.5v.5h.5v-.5zm13.4 1.6h.5v-.5h-.5v.5zm-.8-.8h.5v-.5h-.5v.5zm-12.6-1.6h-.5v.5h.5v-.5zm12.6 2.4h.5v-.5h-.5v.5zm-2.7-4.1h-.4v.5h.5v-.5zm0-5h-.4v.5h.5v-.5zm0 .8h-.4v.5h.5v-.5zm0 .8h-.4v.5h.5v-.5zm-10.3 2.8h-.5v.5h.5v-.5zm10.3-5.3h-.4v.5h.5v-.5zm0 3.4h-.4v.5h.5v-.5zm0 1.7h-.4v.5h.5v-.5zm-11.2.2h-.5v.5h.5v-.5zm1.3 7.3h-.5v.5h.5v-.5zm9.9-8.3h-.4v.5h.5v-.5zm3.5 3h.5v-.5h-.5v.5zm0-.9h.5v-.5h-.5v.5zm0-5.9h.5v-.5h-.5v.5zm0 5h.5v-.5h-.5v.5zm-.8-5h.5v-.5h-.5v.5zm.8 4.2h.5v-.5h-.5v.5zm0-3.4h.5v-.5h-.5v.5zm0 .8h.5v-.5h-.5v.5zm0 1.8h.5v-.5h-.5v.5zm0-.8h.5v-.5h-.5v.5zm0-6h.5v-.5h-.5v.5zm-6.3 16h.5v-.5h-.5v.5zm-10.3-4.7h-.5v.5h.5v-.5zm0 .8h-.5v.5h.5v-.5zm9.6 3.9h.5v-.5h-.5v.5zm12.9-2h-.5v.5h.5v-.5zm-2.3 0h-.5v.5h.5v-.5zm-3.9 0h-.5v.5h.5v-.5zm5.4 0h-.5v.5h.5v-.5zm-4.6 0h-.5v.5h.5v-.5zm-17.1-1h-.5v.5h.5v-.5zm21 1h-.5v.5h.5v-.5zm10.5-5.8h-.5v.5h.5v-.5zm-31.5 6.1v-.5h-.5v.5h.5zm2.4-3.4v-.5c0-.1-.1-.2-.2-.2-.2 0-.2.1-.2.2v1.7h.5v-1.2zm30.6-2.7h-.5v.5h.5v-.5zm-2.3 0h-.5v.5h.5v-.5zm-17.6 5.8h-.4v.5h.5v-.5zm13.7-2.5h-.5v.5h.5v-.5zm-3.5 4h-.5v.5h.5v-.5zm-23.3 0h-.5v.5h.5v-.5zm0-.8h-.5v.5h.5v-.5zm22.5.8h-.5v.5h.5v-.5zm4.3-3.1h-.5v.5h.5v-.5zm-10.5-15v-.5c0-.1-.1-.2-.2-.2-.2 0-.2.1-.2.2v1.4h.5v-.9zm.7 0v-.5c0-.1-.1-.2-.2-.2-.2 0-.2.1-.2.2v1.4h.5v-.9zm-.4 1.8h.5v-.5h-.5v.5zm0 1.7h.5v-.5h-.5v.5zm15.6 7.3h-.5v.5h.5v-.5zm-14.1-10.6v-.5c0-.1-.2-.3-.3-.3-.2 0-.3.2-.3.3v1.3h.6v-.8zm-1.9 3.7h-.5v.5h.5v-.5zm0-2.6h-.5v.5h.5v-.5zm-3.9 15.3h-.5v.5h.5v-.5zm3.9-14.5h-.5v.5h.5v-.5zm0 .9h-.5v.5h.5v-.5zm-.9-2.8v-.5c0-.1-.2-.3-.3-.3-.1 0-.3.2-.3.3v1.3h.6v-.8zm-15.3 12.9h-.5v.5h.5v-.5zm.7 2.8v-.5c0-.2-.1-.2-.2-.2-.2 0-.2.1-.2.2v1.7h.5v-1.2zm0-2.4v-.5c0-.1-.1-.2-.2-.2-.2 0-.2.1-.2.2v1.7h.5v-1.2zm10.1 3.1h-.5v.5h.5v-.5zm.7 0h-.5v.5h.5v-.5zm1.6-4.3h-.4v.5h.5v-.5zm3.5-8h.5v-.5h-.5v.5zm-14.2 11.6v-.5c0-.2-.1-.2-.2-.2-.2 0-.2.1-.2.2v1.7h.5v-1.2zm-.8 0v-.5c0-.2-.1-.2-.2-.2-.2 0-.2.1-.2.2v1.7h.5v-1.2zm0-2.4v-.5c0-.1-.1-.2-.2-.2-.2 0-.2.1-.2.2v1.7h.5v-1.2zm9.9-3.7h-.5v.5h.5v-.5zm4.8-16.8h-.5v.5h.5v-.5zm.8 1.7h-.5v.5h.5v-.5zm-.8-.9h-.5v.5h.5v-.5zm5.8 12.2h.5v-.5h-.5v.5zm-5-12.2h-.5v.5h.5v-.5zm-.8.9h-.5v.5h.5v-.5zm-11.3 20.3h-.5v.5h.5v-.5zm4-.9h-.5v.5h.5v-.5zm-.7 0h-.5v.5h.5v-.5zm0 .9h-.5v.5h.5v-.5zm-3.3-.9h-.5v.5h.5v-.5zm17.1-7.3h.5v-.5h-.5v.5zm-13.1 8.2h-.5v.5h.5v-.5zm-2.4 0h-.5v.5h.5v-.5zm0-.9h-.5v.5h.5v-.5zm10.5-21.1h-.5v.5h.5v-.5zm4.2 14.6h.5v-.5h-.5v.5zm0-.8h.5v-.5h-.5v.5zm0 1.8h.5v-.5h-.5v.5zm0 .8h.5v-.5h-.5v.5zm0 1.7h.5v-.4h-.5v.4zm0-.9h.5v-.5h-.5v.5zm0-4.2h.5v-.5h-.5v.5zm.8 5.1h.5v-.4h-.5v.4zm0-1.7h.5v-.5h-.5v.5zm0-.8h.5v-.5h-.5v.5zm0 1.6h.5v-.5h-.5v.5zm-9.8-4.7h-.5v.5h.5v-.5zm9.8 7.3h.5v-.5h-.5v.5zm0-.9h.5v-.5h-.5v.5zm-.8 0h.5v-.5h-.5v.5zm9.7 4v-.5c0-.2-.1-.2-.2-.2-.2 0-.2.1-.2.2v1.7h.5v-1.2zm-.8-2.8h-.5v.5h.5v-.5zm.8.4v-.5c0-.1-.1-.2-.2-.2-.2 0-.2.1-.2.2v1.7h.5v-1.2zm.9 0v-.5c0-.1-.1-.2-.2-.2-.2 0-.2.1-.2.2v1.7h.5v-1.2zm.8 0v-.5c0-.1-.1-.2-.2-.2s-.2.1-.2.2v1.7h.5v-1.2zm-.8 2.4v-.5c0-.2-.1-.2-.2-.2-.2 0-.2.1-.2.2v1.7h.5v-1.2zm-1.7-2h-.5v.5h.5v-.5zm2.5 2v-.5c0-.2-.1-.2-.2-.2s-.2.1-.2.2v1.7h.5v-1.2zm-2.5 2.2h-.5v.5h.5v-.5zm0-.8h-.5v.5h.5v-.5zm4.2-5.3v7.5H591v-7.5h.7V186h.4v.5h.2v-.1c0-.1.1-.2.2-.2.2 0 .2.1.2.2v.1h.2v-.5h.4v1.4h1.4V186h.4v.5h.2v-.1c0-.1.1-.2.2-.2.2 0 .2.1.2.2v.1h.1v-.5h.4v3.3h.6v1.1h1.3l.6-.5h.8l.6.5h1v-12l.2-1.2c-.1-.1-.1-.2-.1-.2 0-.1.1-.3.2-.3.2 0 .2.2.2.3 0 .1 0 .2-.1.2l.1 1.2h1.7l.2-1.2c-.1-.1-.1-.2-.1-.2 0-.1.1-.3.2-.3s.2.2.2.3c0 .1 0 .2-.1.2l.2 1.2v2h1.1V174.8l.1-1.9c-.1-.1-.2-.2-.2-.5 0-.2.2-.5.4-.5s.4.2.4.5c0 .1-.1.4-.2.5v.1l.2 1.9h.5l.2-2.2c-.2-.1-.2-.2-.2-.5s.2-.5.4-.5.4.2.4.5c0 .2-.1.3-.2.5l.2 2.2h.6V167.7h.5v.9h.4v-1.3l.5-.2.1-3.8c-.4-.1-.6-.4-.6-.8 0-.2.2-.5.3-.6l.2.3c-.1.1-.2.1-.2.3 0 .2.2.4.4.4s.4-.2.4-.4-.1-.2-.2-.3l.3-.3c.2.2.3.4.3.6 0 .4-.2.7-.6.8l.2 3.8.5.2v1.3h.4v-.9h.5V174.9h.6l.2-2.2c-.2-.1-.2-.2-.2-.5s.2-.5.4-.5.4.2.4.5c0 .2-.1.3-.2.5l.1 2.2h.5l.2-1.9c-.2-.1-.2-.2-.2-.5 0-.2.2-.5.4-.5s.4.2.4.5c0 .2-.1.4-.2.5v.1l.2 1.9v5.7h1.2v-2l.2-1.3c-.1-.1-.1-.2-.1-.2 0-.2.1-.3.2-.3.2 0 .2.1.2.3 0 .1 0 .2-.1.2l.1 1.2h1.7l.2-1.2c-.1-.1-.1-.2-.1-.2 0-.2.1-.3.2-.3s.2.1.2.3c0 .1 0 .2-.1.2l.2 1.2v12h1.1l.6-.5h.8l.6.5h1.3v-1.1h.7V186.2h.4v.5h.2v-.1c0-.2.1-.2.2-.2.2 0 .2.1.2.2v.1h.2v-.5h.4v1.4h1.4v-1.4h.4v.5h.2v-.1c0-.2.1-.2.2-.2.2 0 .2.1.2.2v.1h.2v-.5h.4v3.3h.4v-.2zm-32-1.9h.7v-.5h-.7v.5zm-2-.5h-.7v.5h.7v-.5zm-.7 2.4h.3v-.4h.5v.4h.4v-.4h.5v.4h.4v-.4h.5v.4h.4v-.4h.5v.4h.4v-1.6h-3.5v1.6h-.4zm4 .5h-4.6v6.7h1.3v-1.6h.5v1.6h.4v-1.6h.5v1.6h.4v-1.6h.5v1.6h1.3l-.3-6.7zm29-2.4h.7v-.5h-.7v.5zm-2-.5h-.7v.5h.7v-.5zm-.8 2.4h.3v-.4h.5v.4h.4v-.4h.5v.4h.4v-.4h.5v.4h.4v-.4h.5v.4h.4v-1.6h-3.5v1.6h-.4zm-3.9 4l.4.2v-.5h.5v.5l.4-.2v-2.6l-.4-.2h-.5l-.4.2v2.6zm-1.9-10.9h-.7v8.1h.7v-8.1zm-3.3 13.9c0-.2-.2-.4-.4-.4h-.6c-.2 0-.4.2-.4.4v.2h1.4v-.2zm.4 0v.2h2.7v-1.4h-5.8v1.4h.8v-.2c0-.5.4-.8.8-.8h.6c.5 0 .9.3.9.8zm-7.7 0c0-.2-.1-.4-.4-.4h-.6c-.2 0-.4.2-.4.4v.2h1.4v-.2zm.5 0v.2h.8v-1.4h-5.7v1.4h2.7v-.2c0-.5.4-.8.8-.8h.6c.4 0 .8.3.8.8zm1.3.2h2.2v-1.4h-2.2v1.4zm8.6-2.9h-15v1.1h5.7v-.8h.6v.8h2.2v-.8h.6v.8h5.8l.1-1.1zM603 178.9h-1.9v.5h1.9v-.5zm-1.9 3h.7v-.8c0-.1 0-.2.1-.2h-.1v-.4h1.3v-.8h-1.9l-.1 2.2zm3.9-6.1h.8v-.6h-.8v.6zm1.3 0h5v-.6h-5v.6zm2.5-1.2c.2 0 .5-.2.5-.5v-.5c0-.2-.2-.5-.5-.5s-.5.2-.5.5v.5c-.1.3.2.5.5.5zm3.7.6h-.8v.6h.8v-.6zm-6.2 1.1v5.7h.8v-3.4h.6v3.4h2.3v-3.4h.6v3.4h.8v-5.7h-5.1zm10.1 2.6h-1.9v.5h1.9v-.5zm-1.9 1.6h1.2v.4h-.1c0 .1.1.2.1.2v.8h.7v-2.3h-1.9v.9zm-.7.7v.8h.5v-.8c0-.2-.2-.2-.2-.2-.1-.1-.3 0-.3.2zm1 .7h.5v-.8c0-.2-.1-.2-.2-.2-.2 0-.2.1-.2.2l-.1.8zm-1.7-1c-.1 0-.2.1-.2.2v.8h.5v-.8c0-.1-.1-.2-.3-.2zm-.6 0h-.8v1.1h.8v-1.1zm-1.3 12.3v-2.3h-5v2.3h.8v-2h.6v2h2.2v-2h.6v2h.8zm0-2.7v-8.2h-.8v7.7h-.6v-7.7h-2.3v7.7h-.6v-7.7h-.8v8.2h5.1zm-5.4-9.6h-.8v1h.8v-1zm-1.4 0c-.1 0-.2.1-.2.2v.8h.5v-.8c-.1-.1-.2-.2-.3-.2zm-.9 0c-.2 0-.2.1-.2.2v.8h.5v-.8c-.1-.1-.2-.2-.3-.2zm-1.2.3v.8h.5v-.8c0-.2-.2-.2-.2-.2-.3-.1-.3 0-.3.2zm0 9.3h3.6v-8.1h-3.6v8.1zm0 2.7h3.6v-2.3h-3.6v2.3zm12.9-2.3h-3.6v2.3h3.6v-2.3zm0-8.5h-3.6v8.1h3.6v-8.1zm-2.7-6.1h-.8v4.2h.8v-4.2zm-4.1-7.8h.8v-1l-.3-.1h-.2l-.3.1v1zm-.9.9h2.3v-.5h-2.3v.5zm0 5.4h.6c-.2-.1-.4-.4-.4-.7v-.5c0-.5.4-.8.9-.8s.9.4.9.8v.5c0 .3-.2.5-.4.7h.6v-5.1h-2.3l.1 5.1zm-2.5 5.7h.8v-4.2h-.8v4.2zm-3.9 10h.7v-8.1h-.7v8.1zm-3 2.8l.4.2v-.5h.5v.5l.4-.2v-2.6l-.4-.2h-.5l-.4.2v2.6zm-1.7-2.4v5.6h.4v-1.3c0-.4.4-.8.8-.8.5 0 .8.3.8.8v1.3h.5v-1.3c0-.4.4-.8.8-.8.5 0 .8.3.8.8v1.3h.5v-3.2h1V191h-2.1v2.6l-.9.4h-.8l-.6-.5v-2.6h-1.2zm3.5 4.2c0-.1-.2-.3-.4-.3s-.4.2-.4.3v1.3h.7l.1-1.3zm-2 0c0-.1-.1-.3-.4-.3-.2 0-.4.2-.4.3v1.3h.7l.1-1.3zm20.4 0c0-.1-.1-.3-.4-.3-.2 0-.4.2-.4.3v1.3h.7l.1-1.3zm2 0c0-.1-.2-.3-.4-.3s-.4.2-.4.3v1.3h.7l.1-1.3zm.9 1.4v-5.6h-1.3v2.6l-.6.5h-.8l-.6-.5v-2.6h-2.2v2.3h1v3.2h.5v-1.3c0-.4.4-.8.8-.8.5 0 .8.3.8.8v1.3h.5v-1.3c0-.4.4-.8.8-.8.5 0 .8.3.8.8v1.3h.3zm5-6.7h-4.6v6.7h1.3v-1.6h.5v1.6h.4v-1.6h.5v1.6h.4v-1.6h.5v1.6h1.3l-.3-6.7zm-3.7 2.2h-.5v.5h.5v-.5zm0 .9h-.5v.5h.5v-.5zm0 1.3v-.5h-.5v.5h.5zm-6.3-1.4h.5v-.5h-.5v.5zm.8-.8h.5v-.5h-.5v.5zm3.4 1.6h.5v-.5h-.5v.5zm0-1.6h.5v-.5h-.5v.5zm0 .8h.5v-.5h-.5v.5zm-23.1.4h-.5v.5h.5v-.5zm19.7-.4h.5v-.5h-.5v.5zm-.8-.8h.5v-.5h-.5v.5zm9.5 2.2v-.5h-.5v.5h.5zm0-1.3h-.5v.5h.5v-.5zm0 2.5h-.5v.5h.5v-.5zm0-.8h-.5v.5h.5v-.5zm0-3.4h-.5v.5h.5v-.5zm0 .8h-.5v.5h.5v-.5zm0-1.6h-.5v.5h.5v-.5zm-11.3-5.5h.5v-.5h-.5v.5zm-11.3.4h-.5v.5h.5v-.5zm0-.8h-.5v.5h.5v-.5zm0 2.2v-.5h-.5v.5h.5zm0-3.9h-.5v.5h.5v-.5zm.7 5.9h-.5v.5h.5v-.5zm-.7-1.6h-.5v.5h.5v-.5zm0-3.4h-.5v.5h.5v-.5zm.7 5.9h-.5v.5h.5v-.5zm1.6 2.7h-.4v.5h.5v-.5zm-2.3-4.4h-.5v.5h.5v-.5zm1.5 4.4h-.5v.5h.5v-.5zm0-.9h-.5v.5h.5v-.5zm-1.5-2.7h-.5v.5h.5v-.5zm2.3 2.7h-.4v.5h.5v-.5zm-1.6 0h-.5v.5h.5v-.5zm-.7-1.8h-.5v.5h.5v-.5zm1.5-2.9v-.5h-.5v.5h.5zm0 .4h-.5v.5h.5v-.5zm0 .8h-.5v.5h.5v-.5zm0-3.4h-.5v.5h.5v-.5zm0-.8h-.5v.5h.5v-.5zm0 5h-.5v.5h.5v-.5zm-.8-.8h-.5v.5h.5v-.5zm.8-2.6h-.5v.5h.5v-.5zm-.8 0h-.5v.5h.5v-.5zm0 1.4v-.5h-.5v.5h.5zm0-2.2h-.5v.5h.5v-.5zm0-1.7h-.5v.5h.5v-.5zm0 .9h-.5v.5h.5v-.5zm.8 5.9h-.5v.5h.5v-.5zm7.5-3.7h.5v-.5h-.5v.5zm.7 4.2h.5v-.5h-.5v.5zm-.7-3.9v.5h.5v-.5h-.5zm.7 3h.5v-.5h-.5v.5zm-.7-5.9h.5v-.5h-.5v.5zm1.5 6.8h.5v-.5h-.5v.5zm-1.5-6h.5v-.5h-.5v.5zm0 .8h.5v-.5h-.5v.5zm.7 3.5h.5v-.4h-.5v.4zm0-4.3h.5v-.5h-.5v.5zm0 .8h.5v-.5h-.5v.5zm0-1.6h.5v-.5h-.5v.5zm0 4.2h.5v-.5h-.5v.5zm0-.8h.5v-.5h-.5v.5zm0-.8h.5v-.5h-.5v.5zm-.7 4.2h.5v-.5h-.5v.5zm0 1.9h.5v-.5h-.5v.5zm.7.8h.5v-.5h-.5v.5zm0-.8h.5v-.5h-.5v.5zm-.7.8h.5v-.5h-.5v.5zm1.5 0h.5v-.5h-.5v.5zm-10.5-1.4h-.5v.5h.5v-.5zm9-3.9h.5v-.5h-.5v.5zm-9 4.8h-.5v.5h.5v-.5zm9-3.1h.5v-.5h-.5v.5zm0-.8h.5v-.4h-.5v.4zm-8.3 3.9h-.5v.5h.5v-.5zm10.6.5h.5v-.5h-.5v.5zm-.8-.8h.5v-.5h-.5v.5zm.8 0h.5v-.5h-.5v.5z"/><linearGradient id="a" gradientUnits="userSpaceOnUse" x1="1121" y1="-505" x2="1121" y2="-697" gradientTransform="matrix(0 1 1 0 1403 -569)"><stop offset="0" stop-color="#f5f5f3"/><stop offset="1" stop-color="#f5f5f3" stop-opacity="0"/></linearGradient><path fill="url(#a)" d="M706 452H898V652H706z"/><path fill-rule="evenodd" clip-rule="evenodd" fill="#302B24" d="M587.2 341.7l-3.6-3.7-3.6 3.7h-24V375h55.2v-33.3h-24z"/><path fill="#DBD9CC" d="M571.4 351.1V350h8.5v16.5h-2.2v-15.4h-6.3zm22.7 14.1c-.3-.5-.6-1.3-.9-2.2-.4-1-.7-1.8-1.1-2.3-.4-.6-.9-1-1.4-1.3 2.5-.6 3.7-2.1 3.7-4.5 0-1.6-.6-2.8-1.7-3.6-1.1-.8-2.7-1.2-4.7-1.2h-6.1v16.5h2.2v-15.4h4c2.8 0 4.2 1.2 4.2 3.7 0 2.4-1.3 3.6-3.8 3.7v1.1h.2c.6.2 1.1.6 1.5 1.3.4.6.8 1.5 1.2 2.7.2.7.5 1.3.7 1.7.2.5.4.8.7 1.1h2.3v-.2c-.5-.2-.8-.6-1-1.1z"/><path fill="#302B24" d="M506.9 304.9h5.7v7.1h-.9v-6.3h-3.9v6.3h-.9v-7.1zm10.7 7.1v-.5h-.2c-.3.4-.9.7-1.6.7-.6 0-1-.2-1.3-.5-.3-.3-.5-.7-.5-1.2s.2-.9.5-1.2c.3-.3.8-.5 1.5-.5h1.6v-.2c0-.3-.1-.6-.3-.8-.2-.2-.5-.3-.9-.3-.7 0-1.1.2-1.2.7h-.8c0-.5.2-.8.6-1.1.4-.3.8-.4 1.4-.4.6 0 1.2.2 1.5.5.4.3.6.7.6 1.3v3.4h-.9zm-1.6-.6c.4 0 .8-.1 1.1-.4.3-.3.5-.6.5-1v-.5H516c-.8 0-1.2.3-1.2 1 0 .3.1.5.3.7.2.1.5.2.9.2zm7.5-2.2v.2c.2.1.4.2.6.4.2.2.2.5.2.8 0 .9-.6 1.4-1.8 1.4h-2.6v-5h2.5c.5 0 .9.1 1.2.3.3.2.4.5.4.9 0 .2-.1.4-.2.6 0 .2-.2.3-.3.4zm-2.7 2.1h1.7c.7 0 1-.2 1-.8 0-.5-.3-.8-1-.8h-1.7v1.6zm0-3.6v1.4h1.6c.3 0 .5-.1.6-.2.1-.1.2-.3.2-.5 0-.5-.3-.7-.8-.7h-1.6zm9.2 1.5v.3h-3.8c0 .6.2 1.1.4 1.4.3.3.7.5 1.2.5.7 0 1.1-.3 1.3-.8h.9c-.1.5-.3.8-.7 1.1-.4.3-.8.4-1.5.4-.8 0-1.4-.2-1.8-.8-.4-.5-.6-1.1-.6-2 0-.8.2-1.4.6-1.9.4-.5 1-.7 1.8-.7.7 0 1.3.2 1.6.7.4.6.6 1.1.6 1.8zm-2.3-1.6c-.4 0-.8.1-1 .3-.3.2-.4.5-.5.9h2.9c0-.3-.2-.6-.4-.9-.2-.2-.6-.3-1-.3zm3 4.4v-.8h.2c.4 0 .6-.2.8-.5.2-.3.2-.9.2-1.8v-2h3.9v5h-.9v-4.3h-2.2v1.2c0 1.1-.1 1.9-.4 2.4-.3.5-.7.7-1.4.7h-.2zm11.1-2.8v.3H538c0 .6.2 1.1.4 1.4.3.3.7.5 1.2.5.7 0 1.1-.3 1.3-.8h.9c-.1.5-.3.8-.7 1.1-.4.3-.9.4-1.5.4-.8 0-1.4-.2-1.8-.8-.4-.5-.7-1.1-.7-2 0-.8.2-1.4.7-1.9.4-.5 1-.7 1.8-.7.7 0 1.3.2 1.7.7.3.6.5 1.1.5 1.8zm-2.3-1.6c-.4 0-.8.1-1 .3-.3.2-.4.5-.5.9h2.9c0-.3-.2-.6-.4-.9-.3-.2-.6-.3-1-.3zm7.2-.6h.8v4.3h.9v2.2h-.8V312h-4.5v-5h.8v4.3h2.7V307zm6.3 5l-1.1-2.2h-1.5v2.2h-.8v-5h.8v2.1h1.5l1-2.1h.9l-1.2 2.4 1.3 2.6h-.9zm5.3 0v-.5h-.2c-.3.4-.9.7-1.6.7-.6 0-1-.2-1.3-.5s-.5-.7-.5-1.2.2-.9.5-1.2.8-.5 1.5-.5h1.6v-.2c0-.3-.1-.6-.3-.8-.2-.2-.5-.3-.9-.3-.7 0-1.1.2-1.2.7h-.9c0-.5.2-.8.6-1.1.4-.3.8-.4 1.4-.4.6 0 1.2.2 1.5.5.4.3.6.7.6 1.3v3.4h-.8zm-1.6-.6c.4 0 .8-.1 1.1-.4.3-.3.5-.6.5-1v-.5h-1.5c-.8 0-1.2.3-1.2 1 0 .3.1.5.3.7.2.1.5.2.8.2zm5.6-4.4h2.5v5h-.8v-2h-1.8l-.8 2h-.9l.9-2.2c-.5-.2-.8-.7-.8-1.3 0-.5.2-.9.5-1.1.2-.3.6-.4 1.2-.4zm1.7.7h-1.6c-.4 0-.6.1-.8.2-.2.1-.2.3-.2.6s.1.5.2.6c.2.1.4.2.8.2h1.6v-1.6zm-60.8 77.5h1v2.6h-.9V386h-5.4v1.8h-.9v-2.6h.7c.6-1.3.9-2.9.9-4.9v-1.4h4.5v6.3zm-.9 0v-5.5h-2.8v.8c0 1.9-.3 3.5-.8 4.7h3.6zm7.4-2v.3h-3.8c0 .6.2 1.1.4 1.4.3.3.7.5 1.2.5.7 0 1.1-.3 1.3-.8h.9c-.1.5-.3.8-.7 1.1-.4.3-.9.4-1.5.4-.8 0-1.4-.2-1.8-.8s-.6-1.1-.6-2c0-.8.2-1.4.6-1.9.4-.5 1-.7 1.8-.7.7 0 1.3.2 1.6.7.3.6.5 1.1.6 1.8zm-2.3-1.6c-.4 0-.8.1-1 .3-.3.2-.4.5-.5.9h2.9c0-.3-.2-.6-.4-.9-.3-.2-.6-.3-1-.3zm6 0c-.5 0-.9.2-1.2.5-.3.4-.4.8-.4 1.4 0 .5.1 1 .4 1.4.3.4.7.6 1.2.6s.9-.2 1.1-.5c.3-.4.4-.8.4-1.4s-.1-1-.4-1.4c-.2-.5-.6-.6-1.1-.6zm-2.4-.6h.8v.5h.2c.4-.4.9-.7 1.6-.7.7 0 1.2.2 1.6.8.4.5.6 1.1.6 1.9 0 .8-.2 1.4-.6 1.9-.4.5-.9.7-1.6.7-.7 0-1.2-.2-1.5-.7h-.2v2.5h-.9V381zm8.4 0c.7 0 1.3.2 1.8.7.4.5.6 1.1.6 1.8s-.2 1.3-.7 1.8c-.4.5-1 .7-1.8.7s-1.4-.3-1.9-.8c-.4-.5-.7-1.3-.7-2.3v-1c0-.3.1-.6.2-.9.1-.3.2-.6.3-.8.1-.2.3-.4.6-.6.2-.2.5-.3.9-.3l1.3-.2c.2 0 .3-.1.4-.1.1 0 .1-.1.1-.3h.8c0 .3-.1.6-.2.8-.1.2-.4.3-.8.4l-1.5.3c-.4.1-.7.2-.9.5-.2.3-.3.6-.4 1.1h.2c.2-.3.4-.5.7-.6.4-.1.7-.2 1-.2zm-1.3 3.9c.3.4.7.5 1.2.5s.9-.2 1.2-.5c.3-.4.4-.8.4-1.3s-.1-.9-.4-1.3c-.3-.4-.7-.5-1.2-.5s-.9.2-1.2.5c-.3.4-.4.8-.4 1.3s.1.9.4 1.3zm9.4-1.7v.3h-3.8c0 .6.2 1.1.4 1.4.3.3.7.5 1.2.5.7 0 1.1-.3 1.3-.8h.9c-.1.5-.3.8-.7 1.1-.4.3-.9.4-1.5.4-.8 0-1.4-.2-1.8-.8-.4-.5-.7-1.1-.7-2 0-.8.2-1.4.7-1.9.4-.5 1-.7 1.8-.7.7 0 1.3.2 1.7.7.3.6.5 1.1.5 1.8zm-2.3-1.6c-.4 0-.8.1-1 .3-.3.2-.4.5-.5.9h2.9c0-.3-.2-.6-.4-.9-.2-.2-.5-.3-1-.3zm8.1 4.4h-.9v-2.2h-2.8v2.2h-.8v-5h.8v2.1h2.8V381h.9v5zm6-2.8v.3h-3.8c0 .6.2 1.1.4 1.4.3.3.7.5 1.2.5.7 0 1.1-.3 1.3-.8h.9c-.1.5-.3.8-.7 1.1-.4.3-.9.4-1.5.4-.8 0-1.4-.2-1.8-.8-.4-.5-.7-1.1-.7-2 0-.8.2-1.4.7-1.9.4-.5 1-.7 1.8-.7.7 0 1.3.2 1.7.7.3.6.5 1.1.5 1.8zm-2.2-1.6c-.4 0-.8.1-1 .3-.3.2-.4.5-.5.9h2.9c0-.3-.2-.6-.4-.9-.3-.2-.6-.3-1-.3zm7.1 1.6v.2c.2.1.4.2.6.4.2.2.2.5.2.8 0 .9-.6 1.4-1.8 1.4h-2.6v-5h2.5c.5 0 .9.1 1.2.3.3.2.4.5.4.9 0 .2-.1.4-.2.6 0 .2-.1.3-.3.4zm-2.7 2.1h1.7c.7 0 1-.2 1-.8 0-.5-.3-.8-1-.8h-1.7v1.6zm0-3.6v1.4h1.6c.3 0 .5-.1.6-.2.1-.1.2-.3.2-.5 0-.5-.3-.7-.8-.7h-1.6zm8.3 2.8h.9c-.1.5-.3.9-.7 1.2-.4.3-.8.4-1.4.4-.8 0-1.4-.2-1.8-.7-.4-.5-.6-1.1-.6-1.9 0-.8.2-1.4.6-1.9.4-.5 1-.7 1.8-.7.6 0 1 .1 1.4.4.4.3.6.7.7 1.2h-.8c-.2-.6-.6-.9-1.2-.9-.5 0-.9.2-1.2.5-.3.4-.4.8-.4 1.4 0 .6.1 1 .4 1.4.3.4.7.6 1.2.6.5-.1.9-.4 1.1-1zm5.6 1.5l-1.1-2.2h-1.5v2.2h-.9v-5h.9v2.1h1.5l1-2.1h.9l-1.2 2.4 1.3 2.6h-.9zm5.3 0v-.5h-.2c-.3.4-.9.7-1.6.7-.6 0-1-.2-1.3-.5-.3-.3-.5-.7-.5-1.2s.2-.9.5-1.2.8-.5 1.4-.5h1.6v-.2c0-.3-.1-.6-.3-.8-.2-.2-.5-.3-.9-.3-.7 0-1.1.2-1.2.7h-.9c0-.5.2-.8.6-1.1.4-.3.8-.4 1.4-.4.6 0 1.2.2 1.5.5.4.3.6.7.6 1.3v3.4h-.7zm-1.6-.6c.4 0 .8-.1 1.1-.4.3-.3.5-.6.5-1v-.5h-1.5c-.8 0-1.2.3-1.2 1 0 .3.1.5.3.7.1.1.4.2.8.2zm5.6-4.4h2.5v5h-.9v-2h-1.8l-.8 2h-.9l.9-2.2c-.5-.2-.8-.7-.8-1.3 0-.5.2-.9.5-1.1.3-.3.7-.4 1.3-.4zm1.6.7h-1.6c-.4 0-.6.1-.8.2-.2.1-.2.3-.2.6s.1.5.2.6c.2.1.4.2.8.2h1.6v-1.6z"/><path fill="#AAA5A0" d="M548.1 394.8h.7c-.1.4-.3.7-.6 1-.3.2-.7.4-1.1.4-.6 0-1.1-.2-1.4-.6-.3-.4-.5-.9-.5-1.5s.2-1.1.5-1.5c.3-.4.8-.6 1.4-.6.5 0 .8.1 1.1.4.3.2.5.5.5.9h-.7c-.1-.5-.5-.7-1-.7-.4 0-.8.1-1 .4-.2.3-.3.6-.3 1.1 0 .4.1.8.3 1.1.2.3.5.4 1 .4.7-.1 1-.3 1.1-.8zm4.5 1.2l-.9-1.8h-1.2v1.8h-.7v-4h.7v1.7h1.2l.8-1.7h.7l-1 1.9 1 2.1h-.6zm1.9-3.5c.4-.4.8-.6 1.5-.6.6 0 1.1.2 1.4.6.4.4.5.9.5 1.5s-.2 1.1-.5 1.5c-.4.4-.8.6-1.4.6-.6 0-1.1-.2-1.5-.6-.4-.4-.5-.9-.5-1.5-.1-.6.1-1.1.5-1.5zm.4 2.6c.2.3.5.4 1 .4.4 0 .7-.1 1-.4.2-.3.3-.7.3-1.1s-.1-.8-.3-1.1c-.2-.3-.5-.4-1-.4-.4 0-.7.1-1 .4-.2.3-.3.7-.3 1.1s.1.8.3 1.1zm6-2.6c-.4 0-.7.1-1 .4-.2.3-.3.7-.3 1.1 0 .4.1.8.3 1.1.2.3.5.4 1 .4.4 0 .7-.1.9-.4.2-.3.3-.7.3-1.1 0-.5-.1-.8-.3-1.1-.2-.3-.5-.4-.9-.4zm-1.9-.5h.7v.4h.2c.3-.4.7-.5 1.3-.5.5 0 1 .2 1.3.6.3.4.5.9.5 1.5s-.2 1.1-.5 1.5c-.3.4-.7.6-1.3.6-.6 0-1-.2-1.2-.5h-.2v2h-.8V392zm5.2.5c.4-.4.8-.6 1.5-.6.6 0 1.1.2 1.4.6.4.4.5.9.5 1.5s-.2 1.1-.5 1.5c-.4.4-.8.6-1.4.6-.6 0-1.1-.2-1.5-.6-.4-.4-.5-.9-.5-1.5-.1-.6.1-1.1.5-1.5zm.4 2.6c.2.3.5.4 1 .4.4 0 .7-.1 1-.4.2-.3.3-.7.3-1.1s-.1-.8-.3-1.1c-.2-.3-.5-.4-1-.4-.4 0-.7.1-1 .4-.2.3-.3.7-.3 1.1s.1.8.3 1.1z"/><path fill="#302B24" d="M382.9 299.7c1 0 1.9.3 2.4 1 .6.7.9 1.6.9 2.6 0 1.1-.3 2-.9 2.6-.6.7-1.4 1.1-2.4 1.1-1.1 0-1.9-.3-2.5-1-.6-.7-.9-1.6-.9-2.7s.3-2 .9-2.6c.6-.6 1.4-1 2.5-1zm-1.8 5.8c.4.6 1 .8 1.8.8s1.4-.3 1.8-.8c.4-.6.6-1.2.6-2.1 0-.8-.2-1.5-.6-2-.4-.6-1-.8-1.8-.8s-1.4.3-1.8.8c-.4.6-.6 1.2-.6 2s.2 1.5.6 2.1zm10 1.5l-1.1-2.2h-1.5v2.2h-.8v-5h.8v2.1h1.5l1.1-2.1h.9l-1.2 2.4 1.3 2.6h-1zm1.6-4.3v-.7h4.3v.7h-1.7v4.3h-.9v-4.3h-1.7zm7.1-.7h2.5v5h-.9v-2h-1.8l-.8 2h-.9l.8-2.2c-.5-.2-.8-.7-.8-1.3 0-.5.2-.9.5-1.1.3-.3.8-.4 1.4-.4zm1.6.7h-1.6c-.4 0-.6.1-.8.2-.2.1-.2.3-.2.6s.1.5.2.6c.2.1.4.2.8.2h1.6v-1.6zm4.8-.7c.7 0 1.3.2 1.8.7.4.5.6 1.1.6 1.8s-.2 1.3-.7 1.8c-.4.5-1.1.7-1.8.7-.8 0-1.4-.3-1.9-.8-.4-.5-.6-1.3-.6-2.3v-1c0-.3.1-.6.2-.9.1-.3.2-.6.3-.8.1-.2.3-.4.6-.6.2-.2.5-.3.9-.3l1.3-.2c.2 0 .3-.1.4-.1.1 0 .1-.1.1-.3h.8c0 .3-.1.6-.2.8-.1.2-.4.3-.8.4l-1.5.3c-.4.1-.7.2-.9.5-.2.3-.3.6-.4 1.1h.2c.2-.3.4-.5.7-.6.2-.1.5-.2.9-.2zm-1.3 3.9c.3.4.7.5 1.2.5s.9-.2 1.2-.5c.3-.4.4-.8.4-1.3s-.1-.9-.4-1.3c-.3-.4-.7-.5-1.2-.5s-.9.2-1.2.5c-.3.4-.4.8-.4 1.3s.1.9.4 1.3zm7.4-3.3c-.5 0-.9.2-1.2.5-.3.4-.4.8-.4 1.4 0 .5.1 1 .4 1.4.3.4.7.6 1.2.6s.9-.2 1.1-.5c.3-.4.4-.8.4-1.4s-.1-1-.4-1.4c-.2-.5-.6-.6-1.1-.6zm-2.4-.6h.8v.5h.2c.4-.4.9-.7 1.6-.7.7 0 1.2.2 1.6.8.4.5.6 1.1.6 1.9 0 .8-.2 1.4-.6 1.9-.4.5-.9.7-1.6.7-.7 0-1.2-.2-1.5-.7h-.2v2.5h-.9V302zm7 0v1.7h1.5c.6 0 1.1.1 1.4.4.3.3.5.7.5 1.2s-.2 1-.5 1.2c-.3.3-.8.4-1.4.4h-2.3v-5h.8zm0 4.3h1.4c.4 0 .7-.1.9-.2s.3-.4.3-.7-.1-.5-.3-.7-.5-.2-.9-.2h-1.4v1.8zm8-.8h.9c-.1.5-.3.9-.7 1.2-.4.3-.8.4-1.4.4-.8 0-1.4-.2-1.8-.7-.4-.5-.6-1.1-.6-1.9 0-.8.2-1.4.6-1.9.4-.5 1-.7 1.8-.7.6 0 1.1.1 1.4.4.4.3.6.7.7 1.2h-.9c-.2-.6-.6-.9-1.2-.9-.5 0-.9.2-1.2.5-.3.4-.4.8-.4 1.4 0 .6.1 1 .4 1.4.3.4.7.6 1.2.6.7-.1 1.1-.4 1.2-1zm5.6 1.5l-1.1-2.2h-1.5v2.2h-.9v-5h.9v2.1h1.5l1.1-2.1h.9l-1.2 2.4 1.3 2.6h-1zm5.3 0v-.5h-.2c-.3.4-.9.7-1.6.7-.6 0-1-.2-1.3-.5-.3-.3-.5-.7-.5-1.2s.2-.9.5-1.2c.3-.3.8-.5 1.5-.5h1.6v-.2c0-.3-.1-.6-.3-.8-.2-.2-.5-.3-.9-.3-.7 0-1.1.2-1.2.7h-.9c0-.5.2-.8.6-1.1.4-.3.8-.4 1.4-.4.6 0 1.2.2 1.5.5.4.3.6.7.6 1.3v3.4h-.8zm-1.5-.6c.4 0 .8-.1 1.1-.4.3-.3.5-.6.5-1v-.5h-1.5c-.8 0-1.2.3-1.2 1 0 .3.1.5.3.7.1.1.4.2.8.2zm5.5-4.4h2.5v5h-.9v-2h-1.8l-.8 2h-.8l.8-2.2c-.5-.2-.8-.7-.8-1.3 0-.5.2-.9.5-1.1.3-.3.8-.4 1.3-.4zm1.7.7h-1.6c-.4 0-.6.1-.8.2-.2.1-.2.3-.2.6s.1.5.2.6c.2.1.4.2.8.2h1.6v-1.6z"/><circle fill="#302B24" cx="411.5" cy="288.5" r="6.5"/><path fill="#F5F5F3" d="M408.8 291v-5h1.4l1.2 2.3h.2l1.2-2.3h1.3v5h-.8v-4h-.2l-1.2 2.2h-.9l-1.2-2.2h-.2v4h-.8z"/><circle fill="#302B24" cx="535.5" cy="293.5" r="6.5"/><path fill="#F5F5F3" d="M532.8 296v-5h1.3l1.2 2.3h.2l1.2-2.3h1.3v5h-.8v-4h-.2l-1.2 2.2h-.8l-1.2-2.2h-.2v4h-.8z"/><circle fill="#302B24" cx="575.5" cy="382.5" r="6.5"/><path fill="#F5F5F3" d="M572.8 385v-5h1.3l1.2 2.3h.2l1.2-2.3h1.3v5h-.8v-4h-.2l-1.2 2.2h-.8l-1.2-2.2h-.2v4h-.8z"/><path fill="none" stroke="#302B24" stroke-dasharray="2,2" d="M542 299l39.5 44.5"/></svg>
