<svg width="398" height="322" viewBox="0 0 398 322" fill="none" xmlns="http://www.w3.org/2000/svg">
<path d="M111 0.366028L105.5 0.731995L96 1.81805L86.5 2.90405L73.625 5.84503L60.749 8.78705L51.625 11.881L42.5 14.975L29.5 21.331L16.5 27.688L9.547 32.475L2.59399 37.262L2.85599 38.262L3.11899 39.262L22.192 61.512L41.266 83.762H42.229H43.191L45.846 81.886L48.5 80.01L57.5 75.508L66.5 71.005L76.036 67.956L85.573 64.907L94.536 63.095L103.5 61.283L124 61.278L144.5 61.273L152.695 63.072L160.89 64.871L168.608 67.392L176.326 69.913L184.069 73.737L191.812 77.56L197.751 81.593L203.69 85.626L209.366 90.814L215.043 96.002L220.159 102.882L225.275 109.762H259.746H294.217L293.53 107.012L292.844 104.262L289.797 97.262L286.75 90.262L282.705 83.262L278.661 76.262L273.482 69.262L268.302 62.262L261.494 54.944L254.687 47.626L246.593 41.322L238.5 35.018L231.18 30.296L223.86 25.575L214.18 20.763L204.5 15.951L194.078 12.33L183.656 8.71002L174.078 6.29803L164.5 3.88702L154 2.36804L143.5 0.848999L130 0.425049L116.5 0L111 0.366028Z" fill="#AC7644"/>
<path d="M119.619 136.596L111.28 146.344L106.333 152.346L101.386 158.347L100.789 158.847L100.193 159.347L92.759 168.347L85.324 177.347L83.466 179.347L81.607 181.347L79.804 183.847L78 186.347L179.14 186.123L280.28 185.898L283.28 182.579L286.28 179.26L290.875 173.804L295.469 168.347L302.375 160.252L309.28 152.158L313.453 147.252L317.626 142.347L319.941 139.347L322.256 136.347L325.268 133.008L328.28 129.669L329.08 128.258L329.879 126.847H228.918H127.957L119.619 136.596Z" fill="#AC7644"/>
<path d="M262.5 203.54L229.5 203.817L225.836 210.54L222.173 217.262L216.673 223.88L211.174 230.498L202.425 237.064L193.677 243.63L184.588 248.105L175.5 252.58L167.374 255.116L159.248 257.651L150.374 259.417L141.5 261.182L124 261.207L106.5 261.231L97.661 259.447L88.821 257.664L79.661 254.596L70.5 251.528L61.5 247.011L52.5 242.494L46.716 238.568L40.933 234.642L37.616 231.73L34.3 228.818L22.9 245.314L11.5 261.81L5.75 269.95L0 278.09V278.927V279.764L5.86401 284.318L11.728 288.872L19.114 293.484L26.5 298.096L36.5 302.834L46.5 307.571L56.648 311.09L66.795 314.609L76.648 316.756L86.5 318.903L97 320.313L107.5 321.723L123.564 321.742L139.627 321.762L150.927 320.272L162.226 318.781L174.363 315.777L186.5 312.772L196 309.187L205.5 305.601L217 299.647L228.5 293.693L237.972 286.978L247.444 280.262L257.972 269.762L268.5 259.262L274.856 250.262L281.212 241.262L287.021 229.262L292.829 217.262L294.818 210.511L296.806 203.76L296.153 203.511L295.5 203.262L262.5 203.54Z" fill="#AC7644"/>
<path d="M256.997 0.825989L247.714 1.65302L240.997 2.77399L234.28 3.89496L227.091 5.539L219.901 7.18396L225.591 10.121L231.28 13.058L235.28 15.614L239.28 18.17L243.78 21.202L248.28 24.234L255.425 30.019L262.571 35.805L270.26 43.576L277.949 51.347L281.055 55.626L284.16 59.904L286.22 60.303L288.28 60.701L297.28 61.817L306.28 62.932L315.78 65.475L325.28 68.017L333.673 71.934L342.065 75.851L346.81 78.771L351.556 81.69L353.418 79.496L355.28 77.302L360.774 70.824L366.268 64.347L366.78 63.847L367.292 63.347L372.78 56.847L378.268 50.347L378.788 49.847L379.309 49.347L385.044 42.736L390.78 36.125V35.563V35.001L384.03 30.571L377.28 26.141L371.78 23.292L366.28 20.443L364.78 19.316L363.28 18.189L352.384 13.964L341.488 9.73901L329.884 6.85199L318.28 3.966L307.78 2.45398L297.28 0.942993L281.78 0.471008L266.28 0L256.997 0.825989Z" fill="#AC7644"/>
<path d="M358.12 233.638L353.28 237.429L348.422 240.677L343.564 243.925L334.422 248.237L325.28 252.55L319.038 254.694L312.796 256.839L304.038 258.742L295.28 260.646L289.696 261.297L284.113 261.949L280.506 266.648L276.9 271.347L267.09 281.094L257.28 290.841L248.07 297.594L238.861 304.347L229.233 309.774L219.605 315.202L224.442 316.416L229.28 317.63L239.78 319.489L250.28 321.347L274.28 321.299L298.28 321.251L307.78 319.495L317.28 317.739L325.28 315.821L333.28 313.902L341.78 310.806L350.28 307.71L359.78 303.225L369.28 298.74L376.78 294.094L384.28 289.449L385 289L386.309 288.199L386.897 287.847L391.064 284.597L395.231 281.347L396.584 280.09L397.937 278.833L394.988 275.09L392.039 271.347L386.208 262.847L380.377 254.347L375.529 247.347L370.681 240.347L367.089 235.097L363.497 229.847H363.228H362.96L358.12 233.638Z" fill="#AC7644"/>
</svg>
