<svg xmlns="http://www.w3.org/2000/svg" xmlns:xlink="http://www.w3.org/1999/xlink" width="1500" height="1500" viewBox="0 0 1500 1500">
  <defs>
    <clipPath id="clip-undraw_balloons_re_8ymj">
      <rect width="1500" height="1500"/>
    </clipPath>
  </defs>
  <g id="undraw_balloons_re_8ymj" clip-path="url(#clip-undraw_balloons_re_8ymj)">
    <rect width="1500" height="1500" fill="#fff"/>
    <g id="undraw_balloons_re_8ymj-2" data-name="undraw_balloons_re_8ymj">
      <g id="Group_131" data-name="Group 131" transform="translate(36.442 303.576)">
        <path id="Path_3556" data-name="Path 3556" d="M105.422,625.657a23.157,23.157,0,0,1,46.315,0" transform="translate(-65.868 -93.898)" fill="#dff1fd"/>
        <path id="Path_3557" data-name="Path 3557" d="M122.75,623.147a.626.626,0,0,1-.626-.626v-12.2a.626.626,0,1,1,1.252,0v12.2A.626.626,0,0,1,122.75,623.147Z" transform="translate(-60.038 -91.389)" fill="#b0e0f6"/>
        <path id="Path_3558" data-name="Path 3558" d="M124.693,618.549a.623.623,0,0,1-.407-.151l-7.51-6.446a.626.626,0,1,1,.815-.95l7.51,6.446a.626.626,0,0,1-.408,1.1Z" transform="translate(-61.981 -90.984)" fill="#b0e0f6"/>
        <path id="Path_3559" data-name="Path 3559" d="M158.31,625.657a23.157,23.157,0,0,1,46.315,0" transform="translate(-47.406 -93.898)" fill="#dff1fd"/>
        <path id="Path_3560" data-name="Path 3560" d="M175.637,623.147a.626.626,0,0,1-.626-.626v-12.2a.626.626,0,1,1,1.252,0v12.2a.626.626,0,0,1-.626.626Z" transform="translate(-41.576 -91.389)" fill="#b0e0f6"/>
        <path id="Path_3561" data-name="Path 3561" d="M177.58,618.549a.623.623,0,0,1-.407-.151l-7.51-6.446a.626.626,0,1,1,.815-.95l7.51,6.446a.626.626,0,0,1-.408,1.1Z" transform="translate(-43.519 -90.984)" fill="#b0e0f6"/>
        <ellipse id="Ellipse_646" data-name="Ellipse 646" cx="44.519" cy="44.519" rx="44.519" ry="44.519" transform="translate(1014.228 0)" fill="#dff1fd"/>
        <path id="Path_3563" data-name="Path 3563" d="M626.51,594.663a1.349,1.349,0,0,0,0-2.7H613.694v-5.4H626.51a1.349,1.349,0,0,0,0-2.7H517.235a1.349,1.349,0,1,0,0,2.7h12.816v5.4H517.235a1.349,1.349,0,1,0,0,2.7h12.816v5.4H517.235a1.349,1.349,0,1,0,0,2.7h12.816v5.4H518.584a2.7,2.7,0,1,0,0,5.4H529.5a2.013,2.013,0,0,0-.124.675v18.887a2.024,2.024,0,1,0,4.047,0V614.224a2.013,2.013,0,0,0-.124-.675h77.145a2.015,2.015,0,0,0-.124.675v18.887a2.024,2.024,0,1,0,4.047,0V614.224a2.013,2.013,0,0,0-.124-.675h10.917a2.7,2.7,0,0,0,0-5.4H613.694v-5.4H626.51a1.349,1.349,0,0,0,0-2.7H613.694v-5.4Zm-93.761-8.094H611v5.4H532.749ZM611,608.153H532.749v-5.4H611Zm0-8.094H532.749v-5.4H611Z" transform="translate(77.414 -100.402)" fill="#c3e8f8"/>
        <path id="Path_3564" data-name="Path 3564" d="M315.238,570.693c0-23.826-19.328-80.365-43.17-80.365s-43.17,56.539-43.17,80.365a43.17,43.17,0,0,0,86.341,0Z" transform="translate(-22.766 -133.055)" fill="#aadaf2"/>
        <path id="Path_3565" data-name="Path 3565" d="M307.238,570.693c0-23.826-19.328-80.365-43.17-80.365s-43.17,56.539-43.17,80.365a43.17,43.17,0,1,0,86.341,0Z" transform="translate(-25.558 -133.055)" fill="#dff1fd"/>
        <path id="Path_3566" data-name="Path 3566" d="M254.247,653.264a1.349,1.349,0,0,1-1.349-1.349V531.657a1.349,1.349,0,0,1,2.7,0V651.915A1.349,1.349,0,0,1,254.247,653.264Z" transform="translate(-14.388 -119.099)" fill="#b0e0f6"/>
        <path id="Path_3567" data-name="Path 3567" d="M254.247,551.185a1.349,1.349,0,0,1-.954-2.3l17.643-17.643a1.349,1.349,0,0,1,1.908,1.908L255.2,550.79A1.344,1.344,0,0,1,254.247,551.185Z" transform="translate(-14.388 -118.912)" fill="#b0e0f6"/>
        <path id="Path_3568" data-name="Path 3568" d="M622.247,653.264a1.349,1.349,0,0,1-1.349-1.349V531.657a1.349,1.349,0,0,1,2.7,0V651.915A1.349,1.349,0,0,1,622.247,653.264Z" transform="translate(114.071 -119.099)" fill="#b0e0f6"/>
        <path id="Path_3569" data-name="Path 3569" d="M751.238,570.693c0-23.826-19.328-80.365-43.17-80.365s-43.17,56.539-43.17,80.365a43.17,43.17,0,0,0,86.341,0Z" transform="translate(129.43 -133.055)" fill="#aadaf2"/>
        <path id="Path_3570" data-name="Path 3570" d="M743.238,570.693c0-23.826-19.328-80.365-43.17-80.365s-43.17,56.539-43.17,80.365a43.17,43.17,0,1,0,86.341,0Z" transform="translate(126.638 -133.055)" fill="#dff1fd"/>
        <path id="Path_3571" data-name="Path 3571" d="M690.247,653.264a1.349,1.349,0,0,1-1.349-1.349V531.657a1.349,1.349,0,0,1,2.7,0V651.915A1.349,1.349,0,0,1,690.247,653.264Z" transform="translate(137.808 -119.099)" fill="#b0e0f6"/>
        <path id="Path_3572" data-name="Path 3572" d="M690.247,551.185a1.349,1.349,0,0,1-.954-2.3l17.643-17.643a1.349,1.349,0,0,1,1.908,1.908L691.2,550.79a1.344,1.344,0,0,1-.954.4Z" transform="translate(137.808 -118.912)" fill="#b0e0f6"/>
        <path id="Path_3573" data-name="Path 3573" d="M367.054,292.057H345.468a6.078,6.078,0,0,1-6.071-6.071V236.071A6.078,6.078,0,0,1,345.468,230h21.585a6.077,6.077,0,0,1,6.071,6.071v49.916a6.078,6.078,0,0,1-6.071,6.071Z" transform="translate(15.807 -223.929)" fill="#aadaf2"/>
        <path id="Path_3574" data-name="Path 3574" d="M454.489,742.478H343.865A11.48,11.48,0,0,1,332.4,731.011V284.467A11.48,11.48,0,0,1,343.865,273H454.489a11.48,11.48,0,0,1,11.467,11.467V731.011A11.48,11.48,0,0,1,454.489,742.478Z" transform="translate(13.363 -208.919)" fill="#aadaf2"/>
        <path id="Path_3575" data-name="Path 3575" d="M405.489,742.478H294.865A11.48,11.48,0,0,1,283.4,731.011V284.467A11.48,11.48,0,0,1,294.865,273H405.489a11.48,11.48,0,0,1,11.467,11.467V731.011A11.48,11.48,0,0,1,405.489,742.478Z" transform="translate(-3.741 -208.919)" fill="#dff1fd"/>
        <path id="Path_3576" data-name="Path 3576" d="M352.054,292.057H330.469a6.078,6.078,0,0,1-6.071-6.071V236.071A6.078,6.078,0,0,1,330.469,230h21.585a6.078,6.078,0,0,1,6.071,6.071v49.916a6.078,6.078,0,0,1-6.071,6.071Z" transform="translate(10.571 -223.929)" fill="#dff1fd"/>
        <path id="Path_3577" data-name="Path 3577" d="M331.4,359.869H305.77A3.376,3.376,0,0,1,302.4,356.5V317.373A3.376,3.376,0,0,1,305.77,314H331.4a3.377,3.377,0,0,1,3.373,3.373V356.5a3.377,3.377,0,0,1-3.373,3.373Z" transform="translate(2.891 -194.607)" fill="#fff"/>
        <path id="Path_3578" data-name="Path 3578" d="M368.4,359.869H342.77A3.377,3.377,0,0,1,339.4,356.5V317.373A3.376,3.376,0,0,1,342.77,314H368.4a3.376,3.376,0,0,1,3.373,3.373V356.5a3.377,3.377,0,0,1-3.373,3.373Z" transform="translate(15.807 -194.607)" fill="#fff"/>
        <path id="Path_3579" data-name="Path 3579" d="M331.4,412.869H305.77A3.376,3.376,0,0,1,302.4,409.5V370.373A3.376,3.376,0,0,1,305.77,367H331.4a3.377,3.377,0,0,1,3.373,3.373V409.5a3.377,3.377,0,0,1-3.373,3.373Z" transform="translate(2.891 -176.105)" fill="#fff"/>
        <path id="Path_3580" data-name="Path 3580" d="M368.4,412.869H342.77A3.377,3.377,0,0,1,339.4,409.5V370.373A3.376,3.376,0,0,1,342.77,367H368.4a3.377,3.377,0,0,1,3.373,3.373V409.5a3.377,3.377,0,0,1-3.373,3.373Z" transform="translate(15.807 -176.105)" fill="#fff"/>
        <path id="Path_3581" data-name="Path 3581" d="M331.4,465.869H305.77A3.377,3.377,0,0,1,302.4,462.5V423.373A3.376,3.376,0,0,1,305.77,420H331.4a3.376,3.376,0,0,1,3.373,3.373V462.5A3.377,3.377,0,0,1,331.4,465.869Z" transform="translate(2.891 -157.604)" fill="#fff"/>
        <path id="Path_3582" data-name="Path 3582" d="M368.4,465.869H342.77A3.377,3.377,0,0,1,339.4,462.5V423.373A3.376,3.376,0,0,1,342.77,420H368.4a3.376,3.376,0,0,1,3.373,3.373V462.5A3.377,3.377,0,0,1,368.4,465.869Z" transform="translate(15.807 -157.604)" fill="#fff"/>
        <path id="Path_3583" data-name="Path 3583" d="M331.4,518.869H305.77A3.377,3.377,0,0,1,302.4,515.5V476.373A3.376,3.376,0,0,1,305.77,473H331.4a3.376,3.376,0,0,1,3.373,3.373V515.5A3.377,3.377,0,0,1,331.4,518.869Z" transform="translate(2.891 -139.103)" fill="#fff"/>
        <path id="Path_3584" data-name="Path 3584" d="M368.4,518.869H342.77A3.377,3.377,0,0,1,339.4,515.5V476.373A3.376,3.376,0,0,1,342.77,473H368.4a3.376,3.376,0,0,1,3.373,3.373V515.5A3.377,3.377,0,0,1,368.4,518.869Z" transform="translate(15.807 -139.103)" fill="#fff"/>
        <path id="Path_3585" data-name="Path 3585" d="M331.4,571.869H305.77A3.376,3.376,0,0,1,302.4,568.5V529.373A3.377,3.377,0,0,1,305.77,526H331.4a3.377,3.377,0,0,1,3.373,3.373V568.5A3.377,3.377,0,0,1,331.4,571.869Z" transform="translate(2.891 -120.603)" fill="#fff"/>
        <path id="Path_3586" data-name="Path 3586" d="M368.4,571.869H342.77A3.377,3.377,0,0,1,339.4,568.5V529.373A3.377,3.377,0,0,1,342.77,526H368.4a3.376,3.376,0,0,1,3.373,3.373V568.5A3.377,3.377,0,0,1,368.4,571.869Z" transform="translate(15.807 -120.603)" fill="#fff"/>
        <path id="Path_3587" data-name="Path 3587" d="M780.054,461.472H758.469A6.078,6.078,0,0,1,752.4,455.4V427.071A6.078,6.078,0,0,1,758.469,421h21.585a6.078,6.078,0,0,1,6.071,6.071V455.4A6.078,6.078,0,0,1,780.054,461.472Z" transform="translate(159.974 -157.256)" fill="#aadaf2"/>
        <path id="Path_3588" data-name="Path 3588" d="M939.489,683.437H828.865A11.48,11.48,0,0,1,817.4,671.97v-214.5A11.48,11.48,0,0,1,828.865,446H939.489a11.48,11.48,0,0,1,11.467,11.467v214.5A11.48,11.48,0,0,1,939.489,683.437Z" transform="translate(182.664 -148.529)" fill="#aadaf2"/>
        <path id="Path_3589" data-name="Path 3589" d="M911.433,683.437H719.865A11.48,11.48,0,0,1,708.4,671.97v-214.5A11.48,11.48,0,0,1,719.865,446H911.433A11.48,11.48,0,0,1,922.9,457.467v214.5a11.48,11.48,0,0,1-11.467,11.467Z" transform="translate(144.615 -148.529)" fill="#dff1fd"/>
        <path id="Path_3590" data-name="Path 3590" d="M765.054,461.472H743.469A6.078,6.078,0,0,1,737.4,455.4V427.071A6.078,6.078,0,0,1,743.469,421h21.585a6.078,6.078,0,0,1,6.071,6.071V455.4A6.078,6.078,0,0,1,765.054,461.472Z" transform="translate(154.738 -157.256)" fill="#dff1fd"/>
        <path id="Path_3591" data-name="Path 3591" d="M786.4,536.369H760.77A3.377,3.377,0,0,1,757.4,533V493.873a3.377,3.377,0,0,1,3.373-3.373H786.4a3.377,3.377,0,0,1,3.373,3.373V533a3.377,3.377,0,0,1-3.373,3.373Z" transform="translate(161.72 -132.995)" fill="#fff"/>
        <path id="Path_3592" data-name="Path 3592" d="M823.4,536.369H797.77A3.377,3.377,0,0,1,794.4,533V493.873a3.377,3.377,0,0,1,3.373-3.373H823.4a3.377,3.377,0,0,1,3.373,3.373V533a3.376,3.376,0,0,1-3.373,3.373Z" transform="translate(174.636 -132.995)" fill="#fff"/>
        <path id="Path_3593" data-name="Path 3593" d="M786.4,589.369H760.77A3.376,3.376,0,0,1,757.4,586V546.873a3.376,3.376,0,0,1,3.373-3.373H786.4a3.377,3.377,0,0,1,3.373,3.373V586a3.377,3.377,0,0,1-3.373,3.373Z" transform="translate(161.72 -114.494)" fill="#fff"/>
        <path id="Path_3594" data-name="Path 3594" d="M823.4,589.369H797.77A3.377,3.377,0,0,1,794.4,586V546.873a3.377,3.377,0,0,1,3.373-3.373H823.4a3.377,3.377,0,0,1,3.373,3.373V586a3.376,3.376,0,0,1-3.373,3.373Z" transform="translate(174.636 -114.494)" fill="#fff"/>
        <path id="Path_3595" data-name="Path 3595" d="M1488.307,623.2H77.451a1.349,1.349,0,1,1,0-2.7H1488.307a1.349,1.349,0,0,1,0,2.7Z" transform="translate(-76.103 -87.616)" fill="#b0e0f6"/>
        <path id="Path_3596" data-name="Path 3596" d="M471.711,658.2H346.247a1.349,1.349,0,1,1,0-2.7H471.711a1.349,1.349,0,1,1,0,2.7Z" transform="translate(17.726 -80.336)" fill="#b0e0f6"/>
        <path id="Path_3597" data-name="Path 3597" d="M702.711,658.2H577.247a1.349,1.349,0,0,1,0-2.7H702.711a1.349,1.349,0,0,1,0,2.7Z" transform="translate(98.363 -80.336)" fill="#b0e0f6"/>
        <path id="Path_3598" data-name="Path 3598" d="M933.711,658.2H808.247a1.349,1.349,0,0,1,0-2.7H933.711a1.349,1.349,0,1,1,0,2.7Z" transform="translate(178.999 -80.336)" fill="#b0e0f6"/>
        <path id="Path_3599" data-name="Path 3599" d="M514.238,570.693c0-23.826-19.328-80.365-43.17-80.365s-43.17,56.539-43.17,80.365a43.17,43.17,0,0,0,86.341,0Z" transform="translate(46.7 -133.055)" fill="#aadaf2"/>
        <path id="Path_3600" data-name="Path 3600" d="M506.238,570.693c0-23.826-19.328-80.365-43.17-80.365s-43.17,56.539-43.17,80.365a43.17,43.17,0,0,0,86.341,0Z" transform="translate(43.907 -133.055)" fill="#dff1fd"/>
        <path id="Path_3601" data-name="Path 3601" d="M453.247,653.264a1.349,1.349,0,0,1-1.349-1.349V531.657a1.349,1.349,0,1,1,2.7,0V651.915A1.349,1.349,0,0,1,453.247,653.264Z" transform="translate(55.078 -119.099)" fill="#b0e0f6"/>
        <path id="Path_3602" data-name="Path 3602" d="M453.247,551.185a1.349,1.349,0,0,1-.954-2.3l17.643-17.643a1.349,1.349,0,0,1,1.908,1.908L454.2,550.79a1.344,1.344,0,0,1-.954.4Z" transform="translate(55.078 -118.912)" fill="#b0e0f6"/>
        <path id="Path_3603" data-name="Path 3603" d="M1025.239,570.693c0-23.826-19.328-80.365-43.17-80.365s-43.17,56.539-43.17,80.365a43.17,43.17,0,1,0,86.341,0Z" transform="translate(225.077 -133.055)" fill="#aadaf2"/>
        <path id="Path_3604" data-name="Path 3604" d="M1017.238,570.693c0-23.826-19.328-80.365-43.17-80.365s-43.17,56.539-43.17,80.365a43.171,43.171,0,0,0,86.341,0Z" transform="translate(222.284 -133.055)" fill="#dff1fd"/>
        <path id="Path_3605" data-name="Path 3605" d="M964.247,653.264a1.349,1.349,0,0,1-1.349-1.349V531.657a1.349,1.349,0,0,1,2.7,0V651.915A1.349,1.349,0,0,1,964.247,653.264Z" transform="translate(233.455 -119.099)" fill="#b0e0f6"/>
        <path id="Path_3606" data-name="Path 3606" d="M964.247,551.185a1.349,1.349,0,0,1-.953-2.3l17.642-17.643a1.349,1.349,0,0,1,1.908,1.908L965.2,550.79A1.344,1.344,0,0,1,964.247,551.185Z" transform="translate(233.455 -118.912)" fill="#b0e0f6"/>
        <path id="Path_3607" data-name="Path 3607" d="M641.45,570.425H611.77a3.376,3.376,0,0,1-3.373-3.373v-29.68A3.376,3.376,0,0,1,611.77,534h29.68a3.376,3.376,0,0,1,3.373,3.373v29.68A3.376,3.376,0,0,1,641.45,570.425Z" transform="translate(109.707 -117.81)" fill="#b0e0f6"/>
        <path id="Path_3699" data-name="Path 3699" d="M989.422,625.657a23.157,23.157,0,0,1,46.315,0" transform="translate(242.714 -93.898)" fill="#dff1fd"/>
        <path id="Path_3700" data-name="Path 3700" d="M1006.75,623.147a.626.626,0,0,1-.626-.625v-12.2a.626.626,0,1,1,1.252,0v12.2a.626.626,0,0,1-.626.626Z" transform="translate(248.544 -91.389)" fill="#b0e0f6"/>
        <path id="Path_3701" data-name="Path 3701" d="M1008.693,618.549a.623.623,0,0,1-.407-.151l-7.51-6.446a.626.626,0,1,1,.815-.95l7.51,6.446a.626.626,0,0,1-.408,1.1Z" transform="translate(246.6 -90.984)" fill="#b0e0f6"/>
        <path id="Path_3702" data-name="Path 3702" d="M1042.31,625.657a23.157,23.157,0,1,1,46.315,0" transform="translate(261.176 -93.898)" fill="#dff1fd"/>
        <path id="Path_3703" data-name="Path 3703" d="M1059.637,623.147a.626.626,0,0,1-.626-.626v-12.2a.626.626,0,0,1,1.252,0v12.2a.626.626,0,0,1-.626.626Z" transform="translate(267.005 -91.389)" fill="#b0e0f6"/>
        <path id="Path_3704" data-name="Path 3704" d="M1061.581,618.549a.624.624,0,0,1-.407-.151l-7.51-6.446a.626.626,0,1,1,.815-.95l7.51,6.446a.626.626,0,0,1-.408,1.1Z" transform="translate(265.061 -90.984)" fill="#b0e0f6"/>
      </g>
      <path id="Path_3532" data-name="Path 3532" d="M237.145,696.15H251.7l6.926-56.138h-21.48Z" transform="translate(444.212 596.362)" fill="#f68389"/>
      <path id="Path_3533" data-name="Path 3533" d="M548.14,783.065H576.8a18.287,18.287,0,0,1,18.267,18.266v.594H548.14Z" transform="translate(129.505 504.694)" fill="#2f2e41"/>
      <path id="Path_3534" data-name="Path 3534" d="M79.05,671.655l12.476,7.5L126.374,634.6l-18.413-11.063Z" transform="translate(414.625 593.278)" fill="#f68389"/>
      <path id="Path_3535" data-name="Path 3535" d="M384.371,774.962l9.713-16.166,24.569,14.761a18.288,18.288,0,0,1,6.25,25.065l-.306.509Z" transform="translate(98.856 500.152)" fill="#2f2e41"/>
      <path id="Path_3536" data-name="Path 3536" d="M576.254,815.133c-2.936-2.989-10.229-52.086-21.021-126.647-3.753-25.929-7.3-50.469-10.23-69.262-25.041,55.048-65.525,114.6-114.174,167.9l-.28.307-.384-.158c-15.563-6.409-18.46-7.894-25.458-11.482-2.09-1.072-4.548-2.332-7.822-3.969l-.181-.14c-1.5-1.717,12.21-24.479,60.155-101.873,20.886-33.715,42.483-68.577,56.788-92.78l.133-.225.256-.053c34.579-7.212,67.921,1.253,93.883,23.834l.211.184-.007.279c-.7,28.382-.112,72.948.407,112.269,1.014,76.769.947,99.2-1.444,99.908l-.12.022c-3.5.288-6.414.575-9.1.84a195.426,195.426,0,0,1-21.19,1.22h-.251Z" transform="translate(101.144 465.614)" fill="#028ffa"/>
      <path id="Path_3537" data-name="Path 3537" d="M485.267,408.3c-4.9-20.229-9.05-43.046.19-61.678,6.411-12.927,30.128-17.281,43.724-12.624s23.425,17.293,27.748,31.07,3.821,28.622,1.937,42.944C533.862,407.533,508.857,407.053,485.267,408.3Z" transform="translate(116.746 420.313)" fill="#2f2e41"/>
      <ellipse id="Ellipse_645" data-name="Ellipse 645" cx="29.158" cy="29.158" rx="29.158" ry="29.158" transform="translate(615.051 770.293)" fill="#f68389"/>
      <path id="Path_3538" data-name="Path 3538" d="M489.95,372.56a36.623,36.623,0,1,1,73.2.965C538.195,373.578,513.238,373.63,489.95,372.56Z" transform="translate(118.614 420.885)" fill="#2f2e41"/>
      <path id="Path_3539" data-name="Path 3539" d="M609.139,645.541c-5.377-18.343-8.055-31.181-11.147-46.007-4.24-20.324-9.046-43.36-22.284-88.209l-.033-.111.011-.114c3.749-38.9-12.591-80.172-42.642-107.72a10.4,10.4,0,0,0-14.2.719c-16.906,18.985-27.531,36.768-32.481,54.366l-.107.381c7.058,22.711,14.957,45.534,22.6,67.615l.109.316-.214.257c-28.61,34.448-44.434,80.494-43.481,126.456a254.827,254.827,0,0,1,85.21-14.266,276.087,276.087,0,0,1,58.6,6.3Z" transform="translate(113.988 433.176)" fill="#fec230"/>
      <path id="Path_3540" data-name="Path 3540" d="M186.941,382.463l43.065,93.757,24.6-24.9Z" transform="translate(434.817 548.161)" opacity="0.1"/>
      <path id="Path_3541" data-name="Path 3541" d="M723.082,195.342c.41-52.45-33.805-95.239-76.421-95.572s-77.494,41.917-77.9,94.366c-.371,47.552,27.717,87.162,64.724,94.393l-2.555,15.313,28.281.221-2.315-15.351C694.007,282.06,722.71,242.894,723.082,195.342Z" transform="translate(133.364 376.816)" fill="#028ffa"/>
      <path id="Path_3542" data-name="Path 3542" d="M592.658,209.989l-10.684-.083a173.907,173.907,0,0,1,.473-60.543l10.684.083Q585.95,180.791,592.658,209.989Z" transform="translate(135.384 386.098)" fill="#fff"/>
      <rect id="Rectangle_892" data-name="Rectangle 892" width="32.053" height="7.123" transform="translate(762.524 665.213) rotate(0.447)" fill="#3f3d56"/>
      <path id="Path_3543" data-name="Path 3543" d="M848.14,220.589c4.153-52.287-26.92-97.409-69.4-100.783s-80.289,36.278-84.442,88.565c-3.765,47.4,21.425,88.918,57.82,98.772l-3.641,15.092,28.193,2.239L775.453,309C812.949,305.011,844.375,267.994,848.14,220.589Z" transform="translate(156.789 380.528)" fill="#ff6584"/>
      <path id="Path_3544" data-name="Path 3544" d="M716.309,226.7l-10.651-.846a173.917,173.917,0,0,1,4.793-60.355l10.651.846Q711.7,197.1,716.309,226.7Z" transform="translate(158.836 389.117)" fill="#fff"/>
      <rect id="Rectangle_893" data-name="Rectangle 893" width="32.053" height="7.123" transform="matrix(0.997, 0.079, -0.079, 0.997, 904.604, 687.229)" fill="#3f3d56"/>
      <rect id="Rectangle_894" data-name="Rectangle 894" width="446.532" height="3.562" transform="matrix(0.522, -0.853, 0.853, 0.522, 686.191, 1070.734)" fill="#3f3d56"/>
      <path id="Path_3545" data-name="Path 3545" d="M898.2,268.064c24.679-46.283,14.2-100.058-23.4-120.109s-88.1,1.213-112.775,47.5c-22.374,41.961-15.85,90.079,13.588,113.643l-9.363,12.384L791.2,334.784l5.065-14.676C832.232,331.421,875.823,310.025,898.2,268.064Z" transform="translate(167.032 384.421)" fill="#028ffa"/>
      <path id="Path_3546" data-name="Path 3546" d="M770.929,224.869l-9.428-5.027a173.91,173.91,0,0,1,28.487-53.424l9.428,5.027Q778.522,195.889,770.929,224.869Z" transform="translate(169.436 389.289)" fill="#fff"/>
      <rect id="Rectangle_895" data-name="Rectangle 895" width="32.053" height="7.123" transform="translate(938.873 691.397) rotate(28.067)" fill="#3f3d56"/>
      <rect id="Rectangle_896" data-name="Rectangle 896" width="446.532" height="3.561" transform="matrix(0.588, -0.809, 0.809, 0.588, 686.5, 1063.391)" fill="#3f3d56"/>
      <rect id="Rectangle_897" data-name="Rectangle 897" width="446.532" height="3.561" transform="translate(702.425 1108.294) rotate(-79.929)" fill="#3f3d56"/>
      <path id="Path_3547" data-name="Path 3547" d="M589.227,573.559a11.938,11.938,0,0,1-10.75-14.816l-35.485-23.249,20.237-8.743,30.594,23.418a12,12,0,0,1-4.6,23.39Z" transform="translate(128.543 456.725)" fill="#f68389"/>
      <path id="Path_3548" data-name="Path 3548" d="M563.251,579.463c-21.22-24.413-43.163-49.656-63.139-75.035l-.128-.17v-.207c.091-20.724.185-42.149,2.64-66.119A18.974,18.974,0,0,1,497.6,422.4a21.037,21.037,0,0,1,9.238-15.711c10-6.316,24.98-2.9,32.061,7.321,6.837,9.863,5.838,23.992.621,31.109l-5.775,45.293-.511-.039.113.057.04-.033.075.091.176.09c-.01.019-.021.046-.036.082,18.738,22.878,38.111,46.528,57.463,69.17l.429.5-.545.373c-9.067,6.216-18.442,12.644-26.887,18.86l-.448.316Z" transform="translate(120.016 433.66)" fill="#fec230"/>
      <path id="Path_3549" data-name="Path 3549" d="M767.612,800.606h-452.3a1.187,1.187,0,0,1,0-2.374h452.3a1.187,1.187,0,0,1,0,2.374Z" transform="translate(85.71 507.533)" fill="#3f3d56"/>
      <path id="Path_3550" data-name="Path 3550" d="M492.715,480.274Z" transform="translate(492.042 566.467)" fill="#f2f2f2"/>
      <path id="Path_3551" data-name="Path 3551" d="M853.293,594.947l-.719,2.264-44.73-14.193c3.966,5.238,17.253,21.6,31.059,25.2,16.493,4.308,24.987-1.713,27.473-11.229S864.4,578.072,847.9,573.764c-13.981-3.652-33.9,4.367-39.642,6.895Z" transform="translate(178.109 465.348)" fill="#dff1fd"/>
      <path id="Path_3552" data-name="Path 3552" d="M350.832,578.731h0Z" transform="translate(465.489 584.893)" fill="#f2f2f2"/>
      <path id="Path_3553" data-name="Path 3553" d="M670.8,726.739l-2.372.12-2.373-46.868c-3.518,5.549-14.188,23.725-12.73,37.919,1.742,16.957,10.357,22.8,20.14,21.8s17.03-8.481,15.288-25.438c-1.476-14.374-15.962-30.22-20.343-34.716Z" transform="translate(149.165 485.322)" fill="#dff1fd"/>
      <path id="Path_3554" data-name="Path 3554" d="M63.981,131.667Z" transform="translate(411.805 501.226)" fill="#dff1fd"/>
      <path id="Path_3555" data-name="Path 3555" d="M346.974,210.038l1.415-1.907,37.691,27.957c-2.048-6.243-9.3-26.033-21.183-33.929-14.2-9.433-24.188-6.5-29.63,1.693s-4.277,18.538,9.922,27.971c12.036,8,33.476,6.885,39.731,6.361Z" transform="translate(89.104 394.878)" fill="#dff1fd"/>
      <g id="Group_130" data-name="Group 130" transform="translate(627.702 800.06) rotate(-1)">
        <path id="Subtraction_4" data-name="Subtraction 4" d="M4.457,5.672A4.46,4.46,0,0,1,.168,0H8.75A4.465,4.465,0,0,1,4.457,5.672Z" transform="translate(0 0)" fill="#2f2e41"/>
        <path id="Subtraction_5" data-name="Subtraction 5" d="M4.457,5.672A4.46,4.46,0,0,1,.168,0H8.75A4.465,4.465,0,0,1,4.457,5.672Z" transform="translate(25.946 0)" fill="#2f2e41"/>
      </g>
      <rect id="Rectangle_908" data-name="Rectangle 908" width="1500" height="1500" fill="#fff" opacity="0"/>
    </g>
  </g>
</svg>
