<svg xmlns="http://www.w3.org/2000/svg" xmlns:xlink="http://www.w3.org/1999/xlink" width="1500" height="1500" viewBox="0 0 1500 1500">
  <defs>
    <clipPath id="clip-undraw_coffee_break_h3uu">
      <rect width="1500" height="1500"/>
    </clipPath>
  </defs>
  <g id="undraw_coffee_break_h3uu" clip-path="url(#clip-undraw_coffee_break_h3uu)">
    <rect width="1500" height="1500" fill="#fff"/>
    <g id="undraw_coffee_break_h3uu-2" data-name="undraw_coffee_break_h3uu">
      <g id="Group_53" data-name="Group 53" transform="translate(-27.702)">
        <path id="Path_1290" data-name="Path 1290" d="M760.372,400.731H733.864a3.409,3.409,0,0,1-3.405-3.088l-5.306-54.386h43.93l-5.306,54.385a3.409,3.409,0,0,1-3.4,3.089Z" transform="translate(319.862 206.094)" fill="#e6e6e6"/>
        <path id="Path_1291" data-name="Path 1291" d="M770.577,353.931h-43.79a3.425,3.425,0,0,1-3.421-3.421V342.3a3.425,3.425,0,0,1,3.421-3.421h43.79A3.425,3.425,0,0,1,774,342.3v8.211a3.425,3.425,0,0,1-3.421,3.421Z" transform="translate(318.298 202.262)" fill="#b4631c"/>
        <g id="Group_52" data-name="Group 52" transform="translate(160)">
          <path id="Path_1292" data-name="Path 1292" d="M627.563,365.267H522.549v-31.88c33.184-23.094,62.586-21.086,101.264,1.875Z" transform="translate(82.53 183.135)" fill="#e8cfbe"/>
          <path id="Path_1293" data-name="Path 1293" d="M293.768,444.347l-22.991,0-3.437-88.678,26.432,0Z" transform="translate(286.993 670.303)" fill="#c95636"/>
          <path id="Path_1294" data-name="Path 1294" d="M547.307,670.5l-74.13,0v-.938A28.853,28.853,0,0,1,502.031,640.7h0l45.276,0Z" transform="translate(39.316 466.439)"/>
          <path id="Path_1295" data-name="Path 1295" d="M350.488,444.347l22.991,0,3.437-88.678-26.432,0Z" transform="translate(359.766 670.303)" fill="#c95636"/>
          <path id="Path_1296" data-name="Path 1296" d="M575.507,640.7l45.276,0h0a28.853,28.853,0,0,1,28.854,28.854v.937l-74.13,0Z" transform="translate(128.883 466.439)"/>
          <path id="Path_1297" data-name="Path 1297" d="M655.815,790.622a8.476,8.476,0,0,1-8.24-6.605L590.593,535.471a2.733,2.733,0,0,0-2.746-2.2h-.014a2.735,2.735,0,0,0-2.738,2.229l-52.328,246.87a8.479,8.479,0,0,1-8.256,6.688H499.583a8.439,8.439,0,0,1-8.424-8.937l18.567-312.9,7.471-2.21.14,0L664.092,466.3l31.256,312.554a8.434,8.434,0,0,1-7.719,9.23l-31.137,2.514Q656.152,790.622,655.815,790.622Z" transform="translate(55.043 312.662)" fill="#3c7745"/>
          <circle id="Ellipse_271" data-name="Ellipse 271" cx="46.058" cy="46.058" r="46.058" transform="translate(604.196 399.148)" fill="#c95636"/>
          <path id="Path_1298" data-name="Path 1298" d="M558.1,628.5a79.5,79.5,0,0,1-23.868-3.359,52.689,52.689,0,0,1-31.951-26.957,8.449,8.449,0,0,1-.628-6.291c5.08-17.337,29.627-107.454,13.965-179.093a75.92,75.92,0,0,1,10.792-58.347,74.967,74.967,0,0,1,48.62-32.7v0c2.6-.507,5.21-.923,7.762-1.238a74.7,74.7,0,0,1,60.492,19.9,76.549,76.549,0,0,1,24.033,60.684L655.277,594.254a8.364,8.364,0,0,1-4.5,6.944C636.918,608.464,595.273,628.5,558.1,628.5Z" transform="translate(63.942 185.693)" fill="#ff8e28"/>
          <path id="Path_1299" data-name="Path 1299" d="M623.323,286.28a56.55,56.55,0,0,0-61.983-34.849l14.522,11.735c-18.043.608-37.036-.684-49.918,11.963,4.1-.114,9.477,8.659,13.578,8.545-7.668.152-14.621,5.539-18.008,12.42a35.377,35.377,0,0,0-2.089,22.5c1.514,7.518,13.067,25.132,16.177,32.142-.535-18.322,35.535-62.023,53.148-57.462a48.33,48.33,0,0,0-22.316,16.944,65.454,65.454,0,0,1,38.82-6.352,27.47,27.47,0,0,0,9.254.518,11.3,11.3,0,0,0,6.7-18.056Z" transform="translate(78.964 125.023)"/>
          <path id="Path_1300" data-name="Path 1300" d="M574.638,614.043a8.444,8.444,0,0,1-3.379-.713L483.87,575.186a8.383,8.383,0,0,1-4.788-9.9l57.852-218.541A31.627,31.627,0,0,1,576.2,324.428l23.132,6.6L583.051,606.094a8.462,8.462,0,0,1-4.024,6.694,8.375,8.375,0,0,1-4.389,1.255Z" transform="translate(44.229 188.549)" fill="#e8cfbe"/>
          <path id="Path_1301" data-name="Path 1301" d="M672.271,565.291l-3.845-14.5-5.569-21.078-2.682-10.108-5.569-21.022-40.187-151.84a31.593,31.593,0,0,0-39.268-22.316l-23.122,6.6L563.486,524.5l1.182,20.2.75,12.733v.019l1.2,20.084,1.689,28.56a8.5,8.5,0,0,0,8.419,7.951,8.6,8.6,0,0,0,3.376-.713l87.387-38.143A8.375,8.375,0,0,0,672.271,565.291Z" transform="translate(108.333 188.545)" fill="#e8cfbe"/>
          <path id="Path_1302" data-name="Path 1302" d="M426.679,196l-95.505,25.091-1.183-20.2,91.121-25.916Z" transform="translate(341.828 512.152)" fill="#ff8e28"/>
          <path id="Path_1303" data-name="Path 1303" d="M434.027,212.658,332.219,239.4l-1.2-20.084V219.3L428.46,191.58Z" transform="translate(342.731 526.684)" fill="#ff8e28"/>
          <path id="Path_1304" data-name="Path 1304" d="M352.452,204.573l-1.183,19.822L257.6,196.49l5.493-20.74Z" transform="translate(278.469 512.828)" fill="#ff8e28"/>
          <path id="Path_1305" data-name="Path 1305" d="M354.317,223.048,258.734,192.2,253.24,213l99.914,29.76Z" transform="translate(274.652 527.225)" fill="#ff8e28"/>
          <path id="Path_1306" data-name="Path 1306" d="M497.109,543.444a20.145,20.145,0,0,0,13.208-27.924l44.935-141.068-31.863-6.673-41.2,138.307a20.255,20.255,0,0,0,14.917,37.359Z" transform="translate(37.945 227.559)" fill="#c95636"/>
          <path id="Path_1307" data-name="Path 1307" d="M538.636,334.388h0c9.149.933,14.3,11.221,12.021,24.03l-10.916,61.468c-.818,4.608-4.61,8.256-7.762,7.468l-36.925-9.23c-2.841-.71-3.888-4.747-2.278-8.786l22.167-55.608C519.757,341.653,529.766,333.483,538.636,334.388Z" transform="translate(55.808 198.271)" fill="#ff8e28"/>
          <path id="Path_1308" data-name="Path 1308" d="M574.557,241.75h0a60,60,0,0,1,59.961,58.127l11.3.007a3.751,3.751,0,0,1,3.75,3.75v15a3.751,3.751,0,0,1-3.75,3.751H518.3a3.751,3.751,0,0,1-3.751-3.75V301.758a60.008,60.008,0,0,1,60.009-60.008Z" transform="translate(75.528 117.25)" fill="#ff8e28"/>
          <path id="Path_1309" data-name="Path 1309" d="M566.811,466.38H540.3a3.409,3.409,0,0,1-3.4-3.088l-5.306-54.386h43.93l-5.306,54.385a3.409,3.409,0,0,1-3.405,3.089Z" transform="translate(90.445 263.555)" fill="#e6e6e6"/>
          <path id="Path_1310" data-name="Path 1310" d="M577.016,419.581h-43.79a3.425,3.425,0,0,1-3.421-3.421v-8.211a3.425,3.425,0,0,1,3.421-3.421h43.79a3.425,3.425,0,0,1,3.421,3.421v8.211a3.425,3.425,0,0,1-3.421,3.421Z" transform="translate(88.881 259.723)" fill="#b4631c"/>
          <path id="Path_1311" data-name="Path 1311" d="M553.789,467.3a19.736,19.736,0,0,1,3.05.6l70.6-60.541-4.127-22.213,32.709-10.609,11.127,38.614a15,15,0,0,1-6.393,16.831l-89.408,56.577A19.685,19.685,0,1,1,553.789,467.3Z" transform="translate(90.782 233.471)" fill="#c95636"/>
          <path id="Path_1312" data-name="Path 1312" d="M590.357,337.327h0c9.773-2.736,19.539,4.7,22.811,17.376l15.7,60.815c1.177,4.559-1.109,9.4-4.68,9.917l-41.831,6.017c-3.219.463-6.055-2.838-6.173-7.185l-1.624-59.846C574.209,351.424,580.881,339.979,590.357,337.327Z" transform="translate(128.044 200.41)" fill="#ff8e28"/>
        </g>
        <path id="Path_1313" data-name="Path 1313" d="M904.086,605.009a314.114,314.114,0,0,1-45.148-84.259,8.069,8.069,0,0,1,3.81-9.713l65.907-35.314a7.963,7.963,0,0,1,6.986-.284,8.1,8.1,0,0,1,4.616,5.408A191.892,191.892,0,0,0,982.349,559.4a8.1,8.1,0,0,1,1.947,6.838,7.963,7.963,0,0,1-4.106,5.66l-65.906,35.314A8.068,8.068,0,0,1,904.086,605.009Z" transform="translate(436.58 321.201)" fill="#e8cfbe"/>
        <path id="Path_1314" data-name="Path 1314" d="M905.959,599a2.435,2.435,0,0,0,3.042.628l65.907-35.315a2.337,2.337,0,0,0,1.224-1.682,2.472,2.472,0,0,0-.61-2.115A197.54,197.54,0,0,1,932.19,479.65a2.474,2.474,0,0,0-1.422-1.678,2.338,2.338,0,0,0-2.082.086l-65.906,35.314a2.435,2.435,0,0,0-1.162,2.883A308.5,308.5,0,0,0,905.959,599Z" transform="translate(439.205 323.826)" fill="#fff"/>
        <path id="Path_1315" data-name="Path 1315" d="M919.074,508.118l-35.9,15.845a5.632,5.632,0,0,1-7.419-2.875l-.888-2.011a5.632,5.632,0,0,1,2.875-7.418l35.9-15.845a5.632,5.632,0,0,1,7.419,2.875l.888,2.011a5.631,5.631,0,0,1-2.875,7.419Z" transform="translate(450.487 339.203)" fill="#f8eee7"/>
        <path id="Path_1316" data-name="Path 1316" d="M926.074,521.118l-35.9,15.845a5.632,5.632,0,0,1-7.418-2.875l-.888-2.011a5.632,5.632,0,0,1,2.875-7.419l35.9-15.845a5.632,5.632,0,0,1,7.419,2.875l.888,2.011a5.632,5.632,0,0,1-2.875,7.419Z" transform="translate(456.614 350.582)" fill="#f8eee7"/>
        <path id="Path_1317" data-name="Path 1317" d="M869.2,618.892a20.145,20.145,0,0,1-3.867-30.647L850.192,373.419l43.606,4.229,1.2,210.38a20.255,20.255,0,0,1-25.8,30.865Z" transform="translate(429.305 232.494)" fill="#c95636"/>
        <path id="Path_1318" data-name="Path 1318" d="M858.591,453.363a8.4,8.4,0,0,1-3.485-6.377l-3.2-57.9a23.251,23.251,0,0,1,45.656-7.364L911.6,433.488a8.448,8.448,0,0,1-5.937,10.353l-39.925,10.825a8.407,8.407,0,0,1-7.149-1.3Z" transform="translate(430.777 224.734)" fill="#ff8e28"/>
        <path id="Path_1319" data-name="Path 1319" d="M603.511,444.8H580.521L569.584,356.12h33.931Z" transform="translate(611.536 670.698)" fill="#c95636"/>
        <path id="Path_1320" data-name="Path 1320" d="M579.689,399.9h44.338v27.917H551.772A27.917,27.917,0,0,1,579.689,399.9Z" transform="translate(595.946 709.021)" fill="#2f2e41"/>
        <path id="Path_1321" data-name="Path 1321" d="M649.511,444.8H626.521L615.584,356.12h33.931Z" transform="translate(651.798 670.698)" fill="#c95636"/>
        <path id="Path_1322" data-name="Path 1322" d="M625.689,399.9h44.338v27.917H597.772A27.917,27.917,0,0,1,625.689,399.9Z" transform="translate(636.208 709.021)" fill="#2f2e41"/>
        <path id="Path_1323" data-name="Path 1323" d="M835.1,749.294l-25.309-1.207a8.437,8.437,0,0,1-8.037-8.369c-6.672-102.988-15.913-213.419-1.766-256.08a8.441,8.441,0,0,1,9.651-8.411l101.252,14.7a8.389,8.389,0,0,1,7.226,8.288c12.927,50.513,13.512,142.111,13.023,237.285A8.44,8.44,0,0,1,922.7,744H895.413a8.4,8.4,0,0,1-8.336-7.128L870.243,629.858a6.563,6.563,0,0,0-13,.24l-13.364,111.77a8.471,8.471,0,0,1-8.38,7.437Q835.3,749.305,835.1,749.294Z" transform="translate(378.864 321.527)" fill="#3c7745"/>
        <path id="Path_1324" data-name="Path 1324" d="M850.747,608.964c-22.315-12.4-39.75-15.656-48.157-16.495a8.285,8.285,0,0,1-5.726-3.137,8.4,8.4,0,0,1-1.746-6.378L819.38,402.834a62.3,62.3,0,0,1,36.312-48.676,60.582,60.582,0,0,1,58.875,4.615q1.247.83,2.448,1.694a62.218,62.218,0,0,1,23.7,64.834c-14.878,60.862-19.988,160.639-20.861,180.023a8.374,8.374,0,0,1-5.472,7.51,84.548,84.548,0,0,1-28.552,5.084,71.5,71.5,0,0,1-35.077-8.953Z" transform="translate(381.031 210.789)" fill="#ff8e28"/>
        <circle id="Ellipse_272" data-name="Ellipse 272" cx="46.058" cy="46.058" r="46.058" transform="translate(1206.014 448.373)" fill="#c95636"/>
        <path id="Path_1325" data-name="Path 1325" d="M892.923,381.42c-8.592,9.153-24.55,4.239-25.669-8.265a15.1,15.1,0,0,1,.019-2.917c.578-5.539,3.778-10.567,3.011-16.415a8.608,8.608,0,0,0-1.575-4.03c-6.847-9.169-22.92,4.1-29.382-4.2-3.962-5.089.7-13.1-2.345-18.791-4.013-7.508-15.9-3.8-23.354-7.916-8.294-4.575-7.8-17.3-2.338-25.04,6.658-9.439,18.332-14.476,29.86-15.2s22.978,2.39,33.74,6.585c12.229,4.766,24.355,11.352,31.881,22.1,9.152,13.077,10.032,30.657,5.456,45.947C909.441,362.583,899.939,373.946,892.923,381.42Z" transform="translate(391.742 149.449)"/>
        <path id="Path_1326" data-name="Path 1326" d="M950.64,367.155c-.807-3.788-7.726-8.964-17.627-13.183a109.019,109.019,0,0,0-98.451,8.439,4.65,4.65,0,0,0-4.294,3.657l-33.305,147.3-4.332,19.184-2.869,12.7-4.332,19.128-2.307,10.22a4.7,4.7,0,0,0,4.164,5.72L931.1,592.73c.131,0,.281.019.412.019a4.689,4.689,0,0,0,4.651-4.388l1.369-20.834,1.463-22.278.637-9.658,1.444-22.222,9.582-145.97v-.131Z" transform="translate(370.5 208.494)" fill="#e8cfbe"/>
        <path id="Path_1327" data-name="Path 1327" d="M764.695,369.313a19.711,19.711,0,0,1,.449,3.076L845.7,418.861l19.58-11.272,20.874,27.327-41.888,29.855-91.9-72.5a19.682,19.682,0,1,1,12.331-22.956Z" transform="translate(320.472 215.607)" fill="#c95636"/>
        <path id="Path_1328" data-name="Path 1328" d="M791.317,412.057a8.4,8.4,0,0,1,2.425-6.851l41-41.009a23.251,23.251,0,0,1,35.945,29.1l-29.2,44.992a8.448,8.448,0,0,1-11.673,2.485l-34.7-22.519A8.407,8.407,0,0,1,791.317,412.057Z" transform="translate(377.731 218.461)" fill="#ff8e28"/>
        <path id="Path_1329" data-name="Path 1329" d="M708.436,193.5l-1.444,22.222-147-3.038,4.332-19.184Z" transform="translate(603.139 528.363)" fill="#ff8e28"/>
        <path id="Path_1330" data-name="Path 1330" d="M709.717,210.5l-1.464,22.278-152.1-3.15,4.334-19.128Z" transform="translate(599.778 543.242)" fill="#ff8e28"/>
        <path id="Path_1331" data-name="Path 1331" d="M871.059,266.25h0A60,60,0,0,0,811.1,324.377l-11.3.007a3.751,3.751,0,0,0-3.751,3.751v15a3.75,3.75,0,0,0,3.75,3.751H927.317a3.751,3.751,0,0,0,3.75-3.75V326.258a60.008,60.008,0,0,0-60.009-60.008Z" transform="translate(381.915 138.693)" fill="#ff8e28"/>
        <path id="Path_1336" data-name="Path 1336" d="M1594.915,660H259.727a1.875,1.875,0,0,1,0-3.751H1594.915a1.875,1.875,0,1,1,0,3.751Z" transform="translate(-149.149 480.047)" fill="#918b87"/>
        <g id="Group_51" data-name="Group 51" transform="translate(7537.83 15695.961)">
          <path id="Path_1456" data-name="Path 1456" d="M371.211,869.918h-.072a9.379,9.379,0,0,1-9.368-9.368V310.586a9.379,9.379,0,0,1,9.368-9.368h462.9a9.379,9.379,0,0,1,9.368,9.368V738.213a9.378,9.378,0,0,1-9.3,9.368Z" transform="translate(-7758.906 -15449.564)" fill="#f8eee7"/>
          <path id="Path_1457" data-name="Path 1457" d="M700.687,243.178H485.772V118.637a9.93,9.93,0,0,1,9.919-9.919H690.768a9.931,9.931,0,0,1,9.919,9.919Zm-212.711-2.2H698.483V118.637a7.723,7.723,0,0,0-7.715-7.715H495.691a7.724,7.724,0,0,0-7.715,7.715Z" transform="translate(-7746.241 -15469.225)" fill="#e8cfbe"/>
          <path id="Path_1458" data-name="Path 1458" d="M447.089,87h92.579a8.817,8.817,0,0,1,8.817,8.817V228.073H438.272V95.817A8.817,8.817,0,0,1,447.089,87Z" transform="translate(-7646.39 -15400.114)" fill="#e6e6e6"/>
          <path id="Path_1459" data-name="Path 1459" d="M561.959,115.416H516.772V70.229a5.517,5.517,0,0,1,5.511-5.511h34.166a5.517,5.517,0,0,1,5.511,5.511Zm-42.983-2.2h40.779V70.229a3.31,3.31,0,0,0-3.306-3.306H522.282a3.31,3.31,0,0,0-3.306,3.306Z" transform="translate(-7743.075 -15473.719)" fill="#e8cfbe"/>
          <path id="Path_1472" data-name="Path 1472" d="M394.011,239.74l.816,1.609a4.875,4.875,0,0,1,.551,2.248v43.534h38.575V243.6a4.874,4.874,0,0,1,.551-2.248l.816-1.609Zm37.737,3.857v41.33H397.582V243.6a6.915,6.915,0,0,0-.2-1.653h34.563a6.918,6.918,0,0,0-.2,1.653Zm10.757-3.857.816,1.609a4.874,4.874,0,0,1,.551,2.248v43.534h38.575V243.6a4.875,4.875,0,0,1,.551-2.248l.816-1.609Zm37.737,3.857v41.33H446.076V243.6a6.918,6.918,0,0,0-.2-1.653h34.563a6.915,6.915,0,0,0-.2,1.653ZM491,239.74l.816,1.609a4.875,4.875,0,0,1,.551,2.248v43.534H530.94V243.6a4.875,4.875,0,0,1,.551-2.248l.816-1.609Zm37.737,3.857v41.33H494.57V243.6a6.921,6.921,0,0,0-.2-1.653h34.563a6.918,6.918,0,0,0-.2,1.653Zm10.757-3.857.816,1.609a4.875,4.875,0,0,1,.551,2.248v43.534h38.575V243.6a4.875,4.875,0,0,1,.551-2.248l.816-1.609ZM577.23,243.6v41.33H543.064V243.6a6.918,6.918,0,0,0-.2-1.653h34.563a6.918,6.918,0,0,0-.2,1.653Zm10.757-3.857.816,1.609a4.876,4.876,0,0,1,.551,2.248v43.534h38.575V243.6a4.875,4.875,0,0,1,.551-2.248l.816-1.609Zm37.737,3.857v41.33H591.558V243.6a6.921,6.921,0,0,0-.2-1.653h34.563a6.915,6.915,0,0,0-.2,1.653Zm10.757-3.857.816,1.609a4.875,4.875,0,0,1,.551,2.248v43.534h38.575V243.6a4.875,4.875,0,0,1,.551-2.248l.816-1.609Zm37.737,3.857v41.33H640.051V243.6a6.918,6.918,0,0,0-.2-1.653h34.563a6.918,6.918,0,0,0-.2,1.653Zm10.757-3.857.816,1.609a4.874,4.874,0,0,1,.551,2.248v43.534h38.575V243.6a4.875,4.875,0,0,1,.551-2.248l.816-1.609Zm37.737,3.857v41.33H688.545V243.6a6.918,6.918,0,0,0-.2-1.653H722.91a6.921,6.921,0,0,0-.2,1.653Zm10.757-3.857.816,1.609a4.877,4.877,0,0,1,.551,2.248v43.534h38.575V243.6a4.875,4.875,0,0,1,.551-2.248l.816-1.609Zm37.737,3.857v41.33H737.039V243.6a6.915,6.915,0,0,0-.2-1.653H771.4a6.921,6.921,0,0,0-.2,1.653Zm10.757-3.857.816,1.609a4.876,4.876,0,0,1,.551,2.248v43.534H821.9V243.6a4.875,4.875,0,0,1,.551-2.248l.816-1.609ZM819.7,243.6v41.33H785.533V243.6a6.915,6.915,0,0,0-.2-1.653H819.9a6.921,6.921,0,0,0-.2,1.653Zm-37.737-3.857.816,1.609a4.876,4.876,0,0,1,.551,2.248v43.534H821.9V243.6a4.875,4.875,0,0,1,.551-2.248l.816-1.609ZM819.7,243.6v41.33H785.533V243.6a6.915,6.915,0,0,0-.2-1.653H819.9a6.921,6.921,0,0,0-.2,1.653Zm-86.231-3.857.816,1.609a4.877,4.877,0,0,1,.551,2.248v43.534h38.575V243.6a4.875,4.875,0,0,1,.551-2.248l.816-1.609Zm37.737,3.857v41.33H737.039V243.6a6.915,6.915,0,0,0-.2-1.653H771.4a6.921,6.921,0,0,0-.2,1.653Zm-86.231-3.857.816,1.609a4.874,4.874,0,0,1,.551,2.248v43.534h38.575V243.6a4.875,4.875,0,0,1,.551-2.248l.816-1.609Zm37.737,3.857v41.33H688.545V243.6a6.918,6.918,0,0,0-.2-1.653H722.91a6.921,6.921,0,0,0-.2,1.653ZM636.48,239.74l.816,1.609a4.875,4.875,0,0,1,.551,2.248v43.534h38.575V243.6a4.875,4.875,0,0,1,.551-2.248l.816-1.609Zm37.737,3.857v41.33H640.051V243.6a6.918,6.918,0,0,0-.2-1.653h34.563a6.918,6.918,0,0,0-.2,1.653Zm-86.231-3.857.816,1.609a4.876,4.876,0,0,1,.551,2.248v43.534h38.575V243.6a4.875,4.875,0,0,1,.551-2.248l.816-1.609Zm37.737,3.857v41.33H591.558V243.6a6.921,6.921,0,0,0-.2-1.653h34.563a6.915,6.915,0,0,0-.2,1.653Zm-86.231-3.857.816,1.609a4.875,4.875,0,0,1,.551,2.248v43.534h38.575V243.6a4.875,4.875,0,0,1,.551-2.248l.816-1.609ZM577.23,243.6v41.33H543.064V243.6a6.918,6.918,0,0,0-.2-1.653h34.563a6.918,6.918,0,0,0-.2,1.653ZM491,239.74l.816,1.609a4.875,4.875,0,0,1,.551,2.248v43.534H530.94V243.6a4.875,4.875,0,0,1,.551-2.248l.816-1.609Zm37.737,3.857v41.33H494.57V243.6a6.921,6.921,0,0,0-.2-1.653h34.563a6.918,6.918,0,0,0-.2,1.653Zm-86.231-3.857.816,1.609a4.874,4.874,0,0,1,.551,2.248v43.534h38.575V243.6a4.875,4.875,0,0,1,.551-2.248l.816-1.609Zm37.737,3.857v41.33H446.076V243.6a6.918,6.918,0,0,0-.2-1.653h34.563a6.915,6.915,0,0,0-.2,1.653Zm-86.231-3.857.816,1.609a4.875,4.875,0,0,1,.551,2.248v43.534h38.575V243.6a4.874,4.874,0,0,1,.551-2.248l.816-1.609Zm37.737,3.857v41.33H397.582V243.6a6.915,6.915,0,0,0-.2-1.653h34.563a6.918,6.918,0,0,0-.2,1.653Zm350.213-3.857.816,1.609a4.876,4.876,0,0,1,.551,2.248v43.534H821.9V243.6a4.875,4.875,0,0,1,.551-2.248l.816-1.609ZM819.7,243.6v41.33H785.533V243.6a6.915,6.915,0,0,0-.2-1.653H819.9a6.921,6.921,0,0,0-.2,1.653Zm-86.231-3.857.816,1.609a4.877,4.877,0,0,1,.551,2.248v43.534h38.575V243.6a4.875,4.875,0,0,1,.551-2.248l.816-1.609Zm37.737,3.857v41.33H737.039V243.6a6.915,6.915,0,0,0-.2-1.653H771.4a6.921,6.921,0,0,0-.2,1.653Zm-86.231-3.857.816,1.609a4.874,4.874,0,0,1,.551,2.248v43.534h38.575V243.6a4.875,4.875,0,0,1,.551-2.248l.816-1.609Zm37.737,3.857v41.33H688.545V243.6a6.918,6.918,0,0,0-.2-1.653H722.91a6.921,6.921,0,0,0-.2,1.653ZM636.48,239.74l.816,1.609a4.875,4.875,0,0,1,.551,2.248v43.534h38.575V243.6a4.875,4.875,0,0,1,.551-2.248l.816-1.609Zm37.737,3.857v41.33H640.051V243.6a6.918,6.918,0,0,0-.2-1.653h34.563a6.918,6.918,0,0,0-.2,1.653Zm-86.231-3.857.816,1.609a4.876,4.876,0,0,1,.551,2.248v43.534h38.575V243.6a4.875,4.875,0,0,1,.551-2.248l.816-1.609Zm37.737,3.857v41.33H591.558V243.6a6.921,6.921,0,0,0-.2-1.653h34.563a6.915,6.915,0,0,0-.2,1.653Zm-86.231-3.857.816,1.609a4.875,4.875,0,0,1,.551,2.248v43.534h38.575V243.6a4.875,4.875,0,0,1,.551-2.248l.816-1.609ZM577.23,243.6v41.33H543.064V243.6a6.918,6.918,0,0,0-.2-1.653h34.563a6.918,6.918,0,0,0-.2,1.653ZM491,239.74l.816,1.609a4.875,4.875,0,0,1,.551,2.248v43.534H530.94V243.6a4.875,4.875,0,0,1,.551-2.248l.816-1.609Zm37.737,3.857v41.33H494.57V243.6a6.921,6.921,0,0,0-.2-1.653h34.563a6.918,6.918,0,0,0-.2,1.653Zm-86.231-3.857.816,1.609a4.874,4.874,0,0,1,.551,2.248v43.534h38.575V243.6a4.875,4.875,0,0,1,.551-2.248l.816-1.609Zm37.737,3.857v41.33H446.076V243.6a6.918,6.918,0,0,0-.2-1.653h34.563a6.915,6.915,0,0,0-.2,1.653Zm-86.231-3.857.816,1.609a4.875,4.875,0,0,1,.551,2.248v43.534h38.575V243.6a4.874,4.874,0,0,1,.551-2.248l.816-1.609Zm37.737,3.857v41.33H397.582V243.6a6.915,6.915,0,0,0-.2-1.653h34.563a6.918,6.918,0,0,0-.2,1.653Zm350.213-3.857.816,1.609a4.876,4.876,0,0,1,.551,2.248v43.534H821.9V243.6a4.875,4.875,0,0,1,.551-2.248l.816-1.609ZM819.7,243.6v41.33H785.533V243.6a6.915,6.915,0,0,0-.2-1.653H819.9a6.921,6.921,0,0,0-.2,1.653Zm-86.231-3.857.816,1.609a4.877,4.877,0,0,1,.551,2.248v43.534h38.575V243.6a4.875,4.875,0,0,1,.551-2.248l.816-1.609Zm37.737,3.857v41.33H737.039V243.6a6.915,6.915,0,0,0-.2-1.653H771.4a6.921,6.921,0,0,0-.2,1.653Zm-86.231-3.857.816,1.609a4.874,4.874,0,0,1,.551,2.248v43.534h38.575V243.6a4.875,4.875,0,0,1,.551-2.248l.816-1.609Zm37.737,3.857v41.33H688.545V243.6a6.918,6.918,0,0,0-.2-1.653H722.91a6.921,6.921,0,0,0-.2,1.653ZM636.48,239.74l.816,1.609a4.875,4.875,0,0,1,.551,2.248v43.534h38.575V243.6a4.875,4.875,0,0,1,.551-2.248l.816-1.609Zm37.737,3.857v41.33H640.051V243.6a6.918,6.918,0,0,0-.2-1.653h34.563a6.918,6.918,0,0,0-.2,1.653Zm-86.231-3.857.816,1.609a4.876,4.876,0,0,1,.551,2.248v43.534h38.575V243.6a4.875,4.875,0,0,1,.551-2.248l.816-1.609Zm37.737,3.857v41.33H591.558V243.6a6.921,6.921,0,0,0-.2-1.653h34.563a6.915,6.915,0,0,0-.2,1.653Zm-86.231-3.857.816,1.609a4.875,4.875,0,0,1,.551,2.248v43.534h38.575V243.6a4.875,4.875,0,0,1,.551-2.248l.816-1.609ZM577.23,243.6v41.33H543.064V243.6a6.918,6.918,0,0,0-.2-1.653h34.563a6.918,6.918,0,0,0-.2,1.653ZM491,239.74l.816,1.609a4.875,4.875,0,0,1,.551,2.248v43.534H530.94V243.6a4.875,4.875,0,0,1,.551-2.248l.816-1.609Zm37.737,3.857v41.33H494.57V243.6a6.921,6.921,0,0,0-.2-1.653h34.563a6.918,6.918,0,0,0-.2,1.653Zm-86.231-3.857.816,1.609a4.874,4.874,0,0,1,.551,2.248v43.534h38.575V243.6a4.875,4.875,0,0,1,.551-2.248l.816-1.609Zm37.737,3.857v41.33H446.076V243.6a6.918,6.918,0,0,0-.2-1.653h34.563a6.915,6.915,0,0,0-.2,1.653Zm-86.231-3.857.816,1.609a4.875,4.875,0,0,1,.551,2.248v43.534h38.575V243.6a4.874,4.874,0,0,1,.551-2.248l.816-1.609Zm37.737,3.857v41.33H397.582V243.6a6.915,6.915,0,0,0-.2-1.653h34.563a6.918,6.918,0,0,0-.2,1.653Zm350.213-3.857.816,1.609a4.876,4.876,0,0,1,.551,2.248v43.534H821.9V243.6a4.875,4.875,0,0,1,.551-2.248l.816-1.609ZM819.7,243.6v41.33H785.533V243.6a6.915,6.915,0,0,0-.2-1.653H819.9a6.921,6.921,0,0,0-.2,1.653Zm-86.231-3.857.816,1.609a4.877,4.877,0,0,1,.551,2.248v43.534h38.575V243.6a4.875,4.875,0,0,1,.551-2.248l.816-1.609Zm37.737,3.857v41.33H737.039V243.6a6.915,6.915,0,0,0-.2-1.653H771.4a6.921,6.921,0,0,0-.2,1.653Zm-86.231-3.857.816,1.609a4.874,4.874,0,0,1,.551,2.248v43.534h38.575V243.6a4.875,4.875,0,0,1,.551-2.248l.816-1.609Zm37.737,3.857v41.33H688.545V243.6a6.918,6.918,0,0,0-.2-1.653H722.91a6.921,6.921,0,0,0-.2,1.653ZM636.48,239.74l.816,1.609a4.875,4.875,0,0,1,.551,2.248v43.534h38.575V243.6a4.875,4.875,0,0,1,.551-2.248l.816-1.609Zm37.737,3.857v41.33H640.051V243.6a6.918,6.918,0,0,0-.2-1.653h34.563a6.918,6.918,0,0,0-.2,1.653Zm-86.231-3.857.816,1.609a4.876,4.876,0,0,1,.551,2.248v43.534h38.575V243.6a4.875,4.875,0,0,1,.551-2.248l.816-1.609Zm37.737,3.857v41.33H591.558V243.6a6.921,6.921,0,0,0-.2-1.653h34.563a6.915,6.915,0,0,0-.2,1.653Zm-86.231-3.857.816,1.609a4.875,4.875,0,0,1,.551,2.248v43.534h38.575V243.6a4.875,4.875,0,0,1,.551-2.248l.816-1.609ZM577.23,243.6v41.33H543.064V243.6a6.918,6.918,0,0,0-.2-1.653h34.563a6.918,6.918,0,0,0-.2,1.653ZM491,239.74l.816,1.609a4.875,4.875,0,0,1,.551,2.248v43.534H530.94V243.6a4.875,4.875,0,0,1,.551-2.248l.816-1.609Zm37.737,3.857v41.33H494.57V243.6a6.921,6.921,0,0,0-.2-1.653h34.563a6.918,6.918,0,0,0-.2,1.653Zm-86.231-3.857.816,1.609a4.874,4.874,0,0,1,.551,2.248v43.534h38.575V243.6a4.875,4.875,0,0,1,.551-2.248l.816-1.609Zm37.737,3.857v41.33H446.076V243.6a6.918,6.918,0,0,0-.2-1.653h34.563a6.915,6.915,0,0,0-.2,1.653Zm-86.231-3.857.816,1.609a4.875,4.875,0,0,1,.551,2.248v43.534h38.575V243.6a4.874,4.874,0,0,1,.551-2.248l.816-1.609Zm37.737,3.857v41.33H397.582V243.6a6.915,6.915,0,0,0-.2-1.653h34.563a6.918,6.918,0,0,0-.2,1.653Zm350.213-3.857.816,1.609a4.876,4.876,0,0,1,.551,2.248v43.534H821.9V243.6a4.875,4.875,0,0,1,.551-2.248l.816-1.609ZM819.7,243.6v41.33H785.533V243.6a6.915,6.915,0,0,0-.2-1.653H819.9a6.921,6.921,0,0,0-.2,1.653Zm-85.415-2.248a4.877,4.877,0,0,1,.551,2.248v43.534h38.575V243.6a4.875,4.875,0,0,1,.551-2.248l.816-1.609H733.468Zm37.12.6a6.921,6.921,0,0,0-.2,1.653v41.33H737.039V243.6a6.915,6.915,0,0,0-.2-1.653Zm-85.614-.6a4.874,4.874,0,0,1,.551,2.248v43.534h38.575V243.6a4.875,4.875,0,0,1,.551-2.248l.816-1.609H684.974Zm37.12.6a6.921,6.921,0,0,0-.2,1.653v41.33H688.545V243.6a6.918,6.918,0,0,0-.2-1.653Zm-85.614-.6a4.875,4.875,0,0,1,.551,2.248v43.534h38.575V243.6a4.875,4.875,0,0,1,.551-2.248l.816-1.609H636.48Zm37.12.6a6.918,6.918,0,0,0-.2,1.653v41.33H640.051V243.6a6.918,6.918,0,0,0-.2-1.653Zm-85.614-.6a4.876,4.876,0,0,1,.551,2.248v43.534h38.575V243.6a4.875,4.875,0,0,1,.551-2.248l.816-1.609H587.986Zm37.12.6a6.915,6.915,0,0,0-.2,1.653v41.33H591.558V243.6a6.921,6.921,0,0,0-.2-1.653Zm-85.614-.6a4.875,4.875,0,0,1,.551,2.248v43.534h38.575V243.6a4.875,4.875,0,0,1,.551-2.248l.816-1.609H539.493Zm37.12.6a6.918,6.918,0,0,0-.2,1.653v41.33H543.064V243.6a6.918,6.918,0,0,0-.2-1.653Zm-85.614-.6a4.875,4.875,0,0,1,.551,2.248v43.534H530.94V243.6a4.875,4.875,0,0,1,.551-2.248l.816-1.609H491Zm37.12.6a6.918,6.918,0,0,0-.2,1.653v41.33H494.57V243.6a6.921,6.921,0,0,0-.2-1.653Zm-85.614-.6a4.874,4.874,0,0,1,.551,2.248v43.534h38.575V243.6a4.875,4.875,0,0,1,.551-2.248l.816-1.609H442.505Zm37.12.6a6.915,6.915,0,0,0-.2,1.653v41.33H446.076V243.6a6.918,6.918,0,0,0-.2-1.653Zm-85.614-.6a4.875,4.875,0,0,1,.551,2.248v43.534h38.575V243.6a4.874,4.874,0,0,1,.551-2.248l.816-1.609H394.011Zm37.12.6a6.918,6.918,0,0,0-.2,1.653v41.33H397.582V243.6a6.915,6.915,0,0,0-.2-1.653Zm350.83-.6a4.876,4.876,0,0,1,.551,2.248v43.534H821.9V243.6a4.875,4.875,0,0,1,.551-2.248l.816-1.609H781.962Zm37.12.6a6.921,6.921,0,0,0-.2,1.653v41.33H785.533V243.6a6.915,6.915,0,0,0-.2-1.653Zm-85.614-.6a4.877,4.877,0,0,1,.551,2.248v43.534h38.575V243.6a4.875,4.875,0,0,1,.551-2.248l.816-1.609H733.468Zm37.12.6a6.921,6.921,0,0,0-.2,1.653v41.33H737.039V243.6a6.915,6.915,0,0,0-.2-1.653Zm-85.614-.6a4.874,4.874,0,0,1,.551,2.248v43.534h38.575V243.6a4.875,4.875,0,0,1,.551-2.248l.816-1.609H684.974Zm37.12.6a6.921,6.921,0,0,0-.2,1.653v41.33H688.545V243.6a6.918,6.918,0,0,0-.2-1.653Zm-85.614-.6a4.875,4.875,0,0,1,.551,2.248v43.534h38.575V243.6a4.875,4.875,0,0,1,.551-2.248l.816-1.609H636.48Zm37.12.6a6.918,6.918,0,0,0-.2,1.653v41.33H640.051V243.6a6.918,6.918,0,0,0-.2-1.653Zm-85.614-.6a4.876,4.876,0,0,1,.551,2.248v43.534h38.575V243.6a4.875,4.875,0,0,1,.551-2.248l.816-1.609H587.986Zm37.12.6a6.915,6.915,0,0,0-.2,1.653v41.33H591.558V243.6a6.921,6.921,0,0,0-.2-1.653Zm-85.614-.6a4.875,4.875,0,0,1,.551,2.248v43.534h38.575V243.6a4.875,4.875,0,0,1,.551-2.248l.816-1.609H539.493Zm37.12.6a6.918,6.918,0,0,0-.2,1.653v41.33H543.064V243.6a6.918,6.918,0,0,0-.2-1.653Zm-85.614-.6a4.875,4.875,0,0,1,.551,2.248v43.534H530.94V243.6a4.875,4.875,0,0,1,.551-2.248l.816-1.609H491Zm37.12.6a6.918,6.918,0,0,0-.2,1.653v41.33H494.57V243.6a6.921,6.921,0,0,0-.2-1.653Zm-85.614-.6a4.874,4.874,0,0,1,.551,2.248v43.534h38.575V243.6a4.875,4.875,0,0,1,.551-2.248l.816-1.609H442.505Zm37.12.6a6.915,6.915,0,0,0-.2,1.653v41.33H446.076V243.6a6.918,6.918,0,0,0-.2-1.653Zm-85.614-.6a4.875,4.875,0,0,1,.551,2.248v43.534h38.575V243.6a4.874,4.874,0,0,1,.551-2.248l.816-1.609H394.011Zm37.12.6a6.918,6.918,0,0,0-.2,1.653v41.33H397.582V243.6a6.915,6.915,0,0,0-.2-1.653Zm434.041,51.8H852.851a12.157,12.157,0,0,0-11.661-8.817h-7.164V243.6a6.889,6.889,0,0,0-.5-2.59,6.6,6.6,0,0,0-3.361-12.289H387.112a6.6,6.6,0,0,0-3.361,12.289,6.89,6.89,0,0,0-.5,2.59v41.33h-7.164a12.158,12.158,0,0,0-11.661,8.817h-14.24a9.934,9.934,0,0,0-9.919,9.919V885.589a9.941,9.941,0,0,0,9.919,9.919h515.8a9.934,9.934,0,0,0,9.919-9.919V303.663a9.934,9.934,0,0,0-9.919-9.919ZM873.7,885.589a7.721,7.721,0,0,1-5.037,7.23,7.409,7.409,0,0,1-2.678.485h-515.8a7.41,7.41,0,0,1-2.678-.485,7.721,7.721,0,0,1-5.037-7.23V303.663a7.723,7.723,0,0,1,7.715-7.715h16l.177-.882a9.954,9.954,0,0,1,9.721-7.935h9.368V243.6a4.954,4.954,0,0,1,.706-2.546l.683-1.135-1.245-.463a4.4,4.4,0,0,1,1.51-8.531H830.169a4.4,4.4,0,0,1,1.51,8.531l-1.245.463.683,1.135a4.948,4.948,0,0,1,.706,2.546v43.534h9.368a9.954,9.954,0,0,1,9.721,7.935l.176.882h14.9a7.723,7.723,0,0,1,7.715,7.715ZM394.011,239.74l.816,1.609a4.875,4.875,0,0,1,.551,2.248v43.534h38.575V243.6a4.874,4.874,0,0,1,.551-2.248l.816-1.609Zm37.737,3.857v41.33H397.582V243.6a6.915,6.915,0,0,0-.2-1.653h34.563a6.918,6.918,0,0,0-.2,1.653Zm10.757-3.857.816,1.609a4.874,4.874,0,0,1,.551,2.248v43.534h38.575V243.6a4.875,4.875,0,0,1,.551-2.248l.816-1.609Zm37.737,3.857v41.33H446.076V243.6a6.918,6.918,0,0,0-.2-1.653h34.563a6.915,6.915,0,0,0-.2,1.653ZM491,239.74l.816,1.609a4.875,4.875,0,0,1,.551,2.248v43.534H530.94V243.6a4.875,4.875,0,0,1,.551-2.248l.816-1.609Zm37.737,3.857v41.33H494.57V243.6a6.921,6.921,0,0,0-.2-1.653h34.563a6.918,6.918,0,0,0-.2,1.653Zm10.757-3.857.816,1.609a4.875,4.875,0,0,1,.551,2.248v43.534h38.575V243.6a4.875,4.875,0,0,1,.551-2.248l.816-1.609ZM577.23,243.6v41.33H543.064V243.6a6.918,6.918,0,0,0-.2-1.653h34.563a6.918,6.918,0,0,0-.2,1.653Zm10.757-3.857.816,1.609a4.876,4.876,0,0,1,.551,2.248v43.534h38.575V243.6a4.875,4.875,0,0,1,.551-2.248l.816-1.609Zm37.737,3.857v41.33H591.558V243.6a6.921,6.921,0,0,0-.2-1.653h34.563a6.915,6.915,0,0,0-.2,1.653Zm10.757-3.857.816,1.609a4.875,4.875,0,0,1,.551,2.248v43.534h38.575V243.6a4.875,4.875,0,0,1,.551-2.248l.816-1.609Zm37.737,3.857v41.33H640.051V243.6a6.918,6.918,0,0,0-.2-1.653h34.563a6.918,6.918,0,0,0-.2,1.653Zm10.757-3.857.816,1.609a4.874,4.874,0,0,1,.551,2.248v43.534h38.575V243.6a4.875,4.875,0,0,1,.551-2.248l.816-1.609Zm37.737,3.857v41.33H688.545V243.6a6.918,6.918,0,0,0-.2-1.653H722.91a6.921,6.921,0,0,0-.2,1.653Zm10.757-3.857.816,1.609a4.877,4.877,0,0,1,.551,2.248v43.534h38.575V243.6a4.875,4.875,0,0,1,.551-2.248l.816-1.609Zm37.737,3.857v41.33H737.039V243.6a6.915,6.915,0,0,0-.2-1.653H771.4a6.921,6.921,0,0,0-.2,1.653Zm10.757-3.857.816,1.609a4.876,4.876,0,0,1,.551,2.248v43.534H821.9V243.6a4.875,4.875,0,0,1,.551-2.248l.816-1.609ZM819.7,243.6v41.33H785.533V243.6a6.915,6.915,0,0,0-.2-1.653H819.9a6.921,6.921,0,0,0-.2,1.653ZM394.011,239.74l.816,1.609a4.875,4.875,0,0,1,.551,2.248v43.534h38.575V243.6a4.874,4.874,0,0,1,.551-2.248l.816-1.609Zm37.737,3.857v41.33H397.582V243.6a6.915,6.915,0,0,0-.2-1.653h34.563a6.918,6.918,0,0,0-.2,1.653Zm10.757-3.857.816,1.609a4.874,4.874,0,0,1,.551,2.248v43.534h38.575V243.6a4.875,4.875,0,0,1,.551-2.248l.816-1.609Zm37.737,3.857v41.33H446.076V243.6a6.918,6.918,0,0,0-.2-1.653h34.563a6.915,6.915,0,0,0-.2,1.653ZM491,239.74l.816,1.609a4.875,4.875,0,0,1,.551,2.248v43.534H530.94V243.6a4.875,4.875,0,0,1,.551-2.248l.816-1.609Zm37.737,3.857v41.33H494.57V243.6a6.921,6.921,0,0,0-.2-1.653h34.563a6.918,6.918,0,0,0-.2,1.653Zm10.757-3.857.816,1.609a4.875,4.875,0,0,1,.551,2.248v43.534h38.575V243.6a4.875,4.875,0,0,1,.551-2.248l.816-1.609ZM577.23,243.6v41.33H543.064V243.6a6.918,6.918,0,0,0-.2-1.653h34.563a6.918,6.918,0,0,0-.2,1.653Zm10.757-3.857.816,1.609a4.876,4.876,0,0,1,.551,2.248v43.534h38.575V243.6a4.875,4.875,0,0,1,.551-2.248l.816-1.609Zm37.737,3.857v41.33H591.558V243.6a6.921,6.921,0,0,0-.2-1.653h34.563a6.915,6.915,0,0,0-.2,1.653Zm10.757-3.857.816,1.609a4.875,4.875,0,0,1,.551,2.248v43.534h38.575V243.6a4.875,4.875,0,0,1,.551-2.248l.816-1.609Zm37.737,3.857v41.33H640.051V243.6a6.918,6.918,0,0,0-.2-1.653h34.563a6.918,6.918,0,0,0-.2,1.653Zm10.757-3.857.816,1.609a4.874,4.874,0,0,1,.551,2.248v43.534h38.575V243.6a4.875,4.875,0,0,1,.551-2.248l.816-1.609Zm37.737,3.857v41.33H688.545V243.6a6.918,6.918,0,0,0-.2-1.653H722.91a6.921,6.921,0,0,0-.2,1.653Zm10.757-3.857.816,1.609a4.877,4.877,0,0,1,.551,2.248v43.534h38.575V243.6a4.875,4.875,0,0,1,.551-2.248l.816-1.609Zm37.737,3.857v41.33H737.039V243.6a6.915,6.915,0,0,0-.2-1.653H771.4a6.921,6.921,0,0,0-.2,1.653Zm10.757-3.857.816,1.609a4.876,4.876,0,0,1,.551,2.248v43.534H821.9V243.6a4.875,4.875,0,0,1,.551-2.248l.816-1.609ZM819.7,243.6v41.33H785.533V243.6a6.915,6.915,0,0,0-.2-1.653H819.9a6.921,6.921,0,0,0-.2,1.653ZM394.011,239.74l.816,1.609a4.875,4.875,0,0,1,.551,2.248v43.534h38.575V243.6a4.874,4.874,0,0,1,.551-2.248l.816-1.609Zm37.737,3.857v41.33H397.582V243.6a6.915,6.915,0,0,0-.2-1.653h34.563a6.918,6.918,0,0,0-.2,1.653Zm10.757-3.857.816,1.609a4.874,4.874,0,0,1,.551,2.248v43.534h38.575V243.6a4.875,4.875,0,0,1,.551-2.248l.816-1.609Zm37.737,3.857v41.33H446.076V243.6a6.918,6.918,0,0,0-.2-1.653h34.563a6.915,6.915,0,0,0-.2,1.653ZM491,239.74l.816,1.609a4.875,4.875,0,0,1,.551,2.248v43.534H530.94V243.6a4.875,4.875,0,0,1,.551-2.248l.816-1.609Zm37.737,3.857v41.33H494.57V243.6a6.921,6.921,0,0,0-.2-1.653h34.563a6.918,6.918,0,0,0-.2,1.653Zm10.757-3.857.816,1.609a4.875,4.875,0,0,1,.551,2.248v43.534h38.575V243.6a4.875,4.875,0,0,1,.551-2.248l.816-1.609ZM577.23,243.6v41.33H543.064V243.6a6.918,6.918,0,0,0-.2-1.653h34.563a6.918,6.918,0,0,0-.2,1.653Zm10.757-3.857.816,1.609a4.876,4.876,0,0,1,.551,2.248v43.534h38.575V243.6a4.875,4.875,0,0,1,.551-2.248l.816-1.609Zm37.737,3.857v41.33H591.558V243.6a6.921,6.921,0,0,0-.2-1.653h34.563a6.915,6.915,0,0,0-.2,1.653Zm10.757-3.857.816,1.609a4.875,4.875,0,0,1,.551,2.248v43.534h38.575V243.6a4.875,4.875,0,0,1,.551-2.248l.816-1.609Zm37.737,3.857v41.33H640.051V243.6a6.918,6.918,0,0,0-.2-1.653h34.563a6.918,6.918,0,0,0-.2,1.653Zm10.757-3.857.816,1.609a4.874,4.874,0,0,1,.551,2.248v43.534h38.575V243.6a4.875,4.875,0,0,1,.551-2.248l.816-1.609Zm37.737,3.857v41.33H688.545V243.6a6.918,6.918,0,0,0-.2-1.653H722.91a6.921,6.921,0,0,0-.2,1.653Zm10.757-3.857.816,1.609a4.877,4.877,0,0,1,.551,2.248v43.534h38.575V243.6a4.875,4.875,0,0,1,.551-2.248l.816-1.609Zm37.737,3.857v41.33H737.039V243.6a6.915,6.915,0,0,0-.2-1.653H771.4a6.921,6.921,0,0,0-.2,1.653Zm10.757-3.857.816,1.609a4.876,4.876,0,0,1,.551,2.248v43.534H821.9V243.6a4.875,4.875,0,0,1,.551-2.248l.816-1.609ZM819.7,243.6v41.33H785.533V243.6a6.915,6.915,0,0,0-.2-1.653H819.9a6.921,6.921,0,0,0-.2,1.653ZM394.011,239.74l.816,1.609a4.875,4.875,0,0,1,.551,2.248v43.534h38.575V243.6a4.874,4.874,0,0,1,.551-2.248l.816-1.609Zm37.737,3.857v41.33H397.582V243.6a6.915,6.915,0,0,0-.2-1.653h34.563a6.918,6.918,0,0,0-.2,1.653Zm10.757-3.857.816,1.609a4.874,4.874,0,0,1,.551,2.248v43.534h38.575V243.6a4.875,4.875,0,0,1,.551-2.248l.816-1.609Zm37.737,3.857v41.33H446.076V243.6a6.918,6.918,0,0,0-.2-1.653h34.563a6.915,6.915,0,0,0-.2,1.653ZM491,239.74l.816,1.609a4.875,4.875,0,0,1,.551,2.248v43.534H530.94V243.6a4.875,4.875,0,0,1,.551-2.248l.816-1.609Zm37.737,3.857v41.33H494.57V243.6a6.921,6.921,0,0,0-.2-1.653h34.563a6.918,6.918,0,0,0-.2,1.653Zm10.757-3.857.816,1.609a4.875,4.875,0,0,1,.551,2.248v43.534h38.575V243.6a4.875,4.875,0,0,1,.551-2.248l.816-1.609ZM577.23,243.6v41.33H543.064V243.6a6.918,6.918,0,0,0-.2-1.653h34.563a6.918,6.918,0,0,0-.2,1.653Zm10.757-3.857.816,1.609a4.876,4.876,0,0,1,.551,2.248v43.534h38.575V243.6a4.875,4.875,0,0,1,.551-2.248l.816-1.609Zm37.737,3.857v41.33H591.558V243.6a6.921,6.921,0,0,0-.2-1.653h34.563a6.915,6.915,0,0,0-.2,1.653Zm10.757-3.857.816,1.609a4.875,4.875,0,0,1,.551,2.248v43.534h38.575V243.6a4.875,4.875,0,0,1,.551-2.248l.816-1.609Zm37.737,3.857v41.33H640.051V243.6a6.918,6.918,0,0,0-.2-1.653h34.563a6.918,6.918,0,0,0-.2,1.653Zm10.757-3.857.816,1.609a4.874,4.874,0,0,1,.551,2.248v43.534h38.575V243.6a4.875,4.875,0,0,1,.551-2.248l.816-1.609Zm37.737,3.857v41.33H688.545V243.6a6.918,6.918,0,0,0-.2-1.653H722.91a6.921,6.921,0,0,0-.2,1.653Zm10.757-3.857.816,1.609a4.877,4.877,0,0,1,.551,2.248v43.534h38.575V243.6a4.875,4.875,0,0,1,.551-2.248l.816-1.609Zm37.737,3.857v41.33H737.039V243.6a6.915,6.915,0,0,0-.2-1.653H771.4a6.921,6.921,0,0,0-.2,1.653Zm10.757-3.857.816,1.609a4.876,4.876,0,0,1,.551,2.248v43.534H821.9V243.6a4.875,4.875,0,0,1,.551-2.248l.816-1.609ZM819.7,243.6v41.33H785.533V243.6a6.915,6.915,0,0,0-.2-1.653H819.9a6.921,6.921,0,0,0-.2,1.653Z" transform="translate(-7761.102 -15456.97)" fill="#e8cfbe"/>
          <path id="Path_1473" data-name="Path 1473" d="M516.054,418.927H434.779a6.464,6.464,0,0,1-6.456-6.456v-43.3a6.464,6.464,0,0,1,6.456-6.456h81.275a6.464,6.464,0,0,1,6.456,6.456v43.3A6.464,6.464,0,0,1,516.054,418.927Z" transform="translate(-7752.109 -15443.283)" fill="#e8cfbe"/>
          <path id="Path_1474" data-name="Path 1474" d="M628.273,418.927H547a6.464,6.464,0,0,1-6.456-6.456v-43.3A6.464,6.464,0,0,1,547,362.718h81.275a6.464,6.464,0,0,1,6.456,6.456v43.3A6.464,6.464,0,0,1,628.273,418.927Z" transform="translate(-7740.647 -15443.283)" fill="#e8cfbe"/>
          <path id="Path_1475" data-name="Path 1475" d="M740.493,418.927H659.218a6.464,6.464,0,0,1-6.456-6.456v-43.3a6.464,6.464,0,0,1,6.457-6.456h81.275a6.464,6.464,0,0,1,6.456,6.456v43.3a6.464,6.464,0,0,1-6.456,6.456Z" transform="translate(-7729.187 -15443.283)" fill="#e8cfbe"/>
          <path id="Path_1476" data-name="Path 1476" d="M516.054,549.927H434.779a6.464,6.464,0,0,1-6.456-6.456v-43.3a6.464,6.464,0,0,1,6.456-6.456h81.275a6.464,6.464,0,0,1,6.456,6.456v43.3a6.464,6.464,0,0,1-6.456,6.456Z" transform="translate(-7752.109 -15429.904)" fill="#e8cfbe"/>
          <path id="Path_1477" data-name="Path 1477" d="M628.273,549.927H547a6.464,6.464,0,0,1-6.456-6.456v-43.3A6.464,6.464,0,0,1,547,493.718h81.275a6.464,6.464,0,0,1,6.456,6.456v43.3A6.464,6.464,0,0,1,628.273,549.927Z" transform="translate(-7740.647 -15429.904)" fill="#e8cfbe"/>
          <path id="Path_1478" data-name="Path 1478" d="M740.493,549.927H659.218a6.463,6.463,0,0,1-6.456-6.456v-43.3a6.464,6.464,0,0,1,6.457-6.456h81.275a6.464,6.464,0,0,1,6.456,6.456v43.3a6.464,6.464,0,0,1-6.456,6.456Z" transform="translate(-7729.187 -15429.904)" fill="#e8cfbe"/>
          <path id="Path_1479" data-name="Path 1479" d="M516.054,680.927H434.779a6.464,6.464,0,0,1-6.456-6.456v-43.3a6.464,6.464,0,0,1,6.456-6.456h81.275a6.464,6.464,0,0,1,6.456,6.456v43.3A6.464,6.464,0,0,1,516.054,680.927Z" transform="translate(-7752.109 -15416.525)" fill="#e8cfbe"/>
          <path id="Path_1480" data-name="Path 1480" d="M628.273,680.927H547a6.464,6.464,0,0,1-6.456-6.456v-43.3A6.464,6.464,0,0,1,547,624.718h81.275a6.464,6.464,0,0,1,6.456,6.456v43.3A6.464,6.464,0,0,1,628.273,680.927Z" transform="translate(-7740.647 -15416.525)" fill="#e8cfbe"/>
          <path id="Path_1481" data-name="Path 1481" d="M740.493,680.927H659.218a6.463,6.463,0,0,1-6.456-6.456v-43.3a6.464,6.464,0,0,1,6.457-6.456h81.275a6.464,6.464,0,0,1,6.456,6.456v43.3a6.464,6.464,0,0,1-6.456,6.456Z" transform="translate(-7729.187 -15416.525)" fill="#e8cfbe"/>
          <path id="Path_1482" data-name="Path 1482" d="M505.505,425H411.353a8.591,8.591,0,0,1-8.582-8.582V366.26a8.591,8.591,0,0,1,8.582-8.582h94.152a8.592,8.592,0,0,1,8.582,8.582v50.156A8.591,8.591,0,0,1,505.505,425Zm-94.152-65.115a6.385,6.385,0,0,0-6.377,6.378v50.156a6.385,6.385,0,0,0,6.377,6.378h94.152a6.385,6.385,0,0,0,6.377-6.378V366.26a6.385,6.385,0,0,0-6.377-6.378Z" transform="translate(-7754.718 -15443.799)" fill="#e8cfbe"/>
          <path id="Path_1483" data-name="Path 1483" d="M635.505,425H541.353a8.592,8.592,0,0,1-8.582-8.582V366.26a8.592,8.592,0,0,1,8.582-8.582h94.152a8.592,8.592,0,0,1,8.582,8.582v50.156A8.591,8.591,0,0,1,635.505,425Zm-94.152-65.115a6.385,6.385,0,0,0-6.377,6.378v50.156a6.385,6.385,0,0,0,6.377,6.378h94.152a6.385,6.385,0,0,0,6.377-6.378V366.26a6.385,6.385,0,0,0-6.377-6.378Z" transform="translate(-7741.441 -15443.799)" fill="#e8cfbe"/>
          <path id="Path_1484" data-name="Path 1484" d="M765.505,425H671.353a8.592,8.592,0,0,1-8.582-8.582V366.26a8.592,8.592,0,0,1,8.582-8.582h94.152a8.592,8.592,0,0,1,8.582,8.582v50.156A8.592,8.592,0,0,1,765.505,425Zm-94.152-65.115a6.385,6.385,0,0,0-6.377,6.378v50.156a6.385,6.385,0,0,0,6.377,6.378h94.152a6.385,6.385,0,0,0,6.378-6.378V366.26a6.384,6.384,0,0,0-6.377-6.378Z" transform="translate(-7728.164 -15443.799)" fill="#e8cfbe"/>
          <path id="Path_1485" data-name="Path 1485" d="M505.505,556H411.353a8.591,8.591,0,0,1-8.582-8.582V497.26a8.592,8.592,0,0,1,8.582-8.582h94.152a8.592,8.592,0,0,1,8.582,8.582v50.156A8.591,8.591,0,0,1,505.505,556Zm-94.152-65.115a6.385,6.385,0,0,0-6.377,6.378v50.156a6.385,6.385,0,0,0,6.377,6.378h94.152a6.385,6.385,0,0,0,6.377-6.378V497.26a6.385,6.385,0,0,0-6.377-6.378Z" transform="translate(-7754.718 -15430.419)" fill="#e8cfbe"/>
          <path id="Path_1486" data-name="Path 1486" d="M635.505,556H541.353a8.591,8.591,0,0,1-8.582-8.582V497.26a8.592,8.592,0,0,1,8.582-8.582h94.152a8.592,8.592,0,0,1,8.582,8.582v50.156A8.591,8.591,0,0,1,635.505,556Zm-94.152-65.115a6.385,6.385,0,0,0-6.377,6.378v50.156a6.385,6.385,0,0,0,6.377,6.378h94.152a6.385,6.385,0,0,0,6.377-6.378V497.26a6.385,6.385,0,0,0-6.377-6.378Z" transform="translate(-7741.441 -15430.419)" fill="#e8cfbe"/>
          <path id="Path_1487" data-name="Path 1487" d="M765.505,556H671.353a8.591,8.591,0,0,1-8.582-8.582V497.26a8.592,8.592,0,0,1,8.582-8.582h94.152a8.592,8.592,0,0,1,8.582,8.582v50.156A8.592,8.592,0,0,1,765.505,556Zm-94.152-65.115a6.385,6.385,0,0,0-6.377,6.378v50.156a6.385,6.385,0,0,0,6.377,6.378h94.152a6.385,6.385,0,0,0,6.378-6.378V497.26a6.384,6.384,0,0,0-6.377-6.378Z" transform="translate(-7728.164 -15430.419)" fill="#e8cfbe"/>
          <path id="Path_1488" data-name="Path 1488" d="M505.505,687H411.353a8.592,8.592,0,0,1-8.582-8.582V628.26a8.591,8.591,0,0,1,8.582-8.582h94.152a8.592,8.592,0,0,1,8.582,8.582v50.156A8.591,8.591,0,0,1,505.505,687Zm-94.152-65.115a6.385,6.385,0,0,0-6.377,6.378v50.156a6.385,6.385,0,0,0,6.377,6.378h94.152a6.385,6.385,0,0,0,6.377-6.378V628.26a6.385,6.385,0,0,0-6.377-6.378Z" transform="translate(-7754.718 -15417.04)" fill="#e8cfbe"/>
          <path id="Path_1489" data-name="Path 1489" d="M635.505,687H541.353a8.591,8.591,0,0,1-8.582-8.582V628.26a8.592,8.592,0,0,1,8.582-8.582h94.152a8.592,8.592,0,0,1,8.582,8.582v50.156A8.591,8.591,0,0,1,635.505,687Zm-94.152-65.115a6.385,6.385,0,0,0-6.377,6.378v50.156a6.385,6.385,0,0,0,6.377,6.378h94.152a6.385,6.385,0,0,0,6.377-6.378V628.26a6.385,6.385,0,0,0-6.377-6.378Z" transform="translate(-7741.441 -15417.04)" fill="#e8cfbe"/>
          <path id="Path_1490" data-name="Path 1490" d="M765.505,687H671.353a8.591,8.591,0,0,1-8.582-8.582V628.26a8.592,8.592,0,0,1,8.582-8.582h94.152a8.592,8.592,0,0,1,8.582,8.582v50.156A8.592,8.592,0,0,1,765.505,687Zm-94.152-65.115a6.385,6.385,0,0,0-6.377,6.378v50.156a6.385,6.385,0,0,0,6.377,6.378h94.152a6.385,6.385,0,0,0,6.378-6.378V628.26a6.384,6.384,0,0,0-6.377-6.378Z" transform="translate(-7728.164 -15417.04)" fill="#e8cfbe"/>
          <path id="Path_1492" data-name="Path 1492" d="M638.929,739.318a9.486,9.486,0,0,0-9.368-9.6h-46.29V843.789h55.658Z" transform="translate(-7736.284 -15405.802)" fill="#e8cfbe"/>
          <path id="Path_1493" data-name="Path 1493" d="M589.634,842.738H531.772V739.688a10.482,10.482,0,0,1,10.47-10.47h47.392Zm-55.658-2.2h53.453V731.422H542.242a8.275,8.275,0,0,0-8.266,8.266Z" transform="translate(-7741.543 -15405.853)" fill="#e8cfbe"/>
          <circle id="Ellipse_290" data-name="Ellipse 290" cx="3.306" cy="3.306" r="3.306" transform="translate(-7205.915 -14618.771)" fill="#e8cfbe"/>
        </g>
      </g>
      <rect id="Rectangle_268" data-name="Rectangle 268" width="1500" height="1500" fill="#fff" opacity="0"/>
      <ellipse id="Ellipse_294" data-name="Ellipse 294" cx="5" cy="7" rx="5" ry="7" transform="translate(797 444)"/>
      <ellipse id="Ellipse_296" data-name="Ellipse 296" cx="5" cy="7" rx="5" ry="7" transform="translate(1179 491)"/>
      <ellipse id="Ellipse_295" data-name="Ellipse 295" cx="4" cy="5.5" rx="4" ry="5.5" transform="translate(818 444)"/>
    </g>
  </g>
</svg>
